<?xml version="1.0" encoding="UTF-8"?>
<!DOCTYPE svg PUBLIC "-//W3C//DTD SVG 1.1//EN" "http://www.w3.org/Graphics/SVG/1.1/DTD/svg11.dtd">
<!-- Creator: CorelDRAW 2017 -->
<svg xmlns="http://www.w3.org/2000/svg" xml:space="preserve" width="37.345mm" height="50.618mm" version="1.1" style="shape-rendering:geometricPrecision; text-rendering:geometricPrecision; image-rendering:optimizeQuality; fill-rule:evenodd; clip-rule:evenodd"
viewBox="0 0 3734.5 5061.8"
 xmlns:xlink="http://www.w3.org/1999/xlink">
 <defs>
  <style type="text/css">
   <![CDATA[
    .fil4 {fill:#FEFEFE}
    .fil3 {fill:#F4B489}
    .fil2 {fill:#D9DAD9}
    .fil0 {fill:#D2B7A6}
    .fil7 {fill:#9C3234}
    .fil6 {fill:#755948}
    .fil1 {fill:#4C4B4C}
    .fil5 {fill:#292929}
   ]]>
  </style>
 </defs>
 <g id="Capa_x0020_1">
  <metadata id="CorelCorpID_0Corel-Layer"/>
  <g id="_2242532495824">
   <path class="fil0" d="M1944.42 2125.91c61.79,23.16 82.59,-1.2 90.19,-59.42 -18.98,3.18 -36.69,4.52 -57.21,13.81 -54.11,24.49 -28.35,11.71 -32.98,45.61z"/>
   <path class="fil0" d="M1501.34 2257.64c48.31,5.7 29.54,13.14 61.18,-19.83 -28.58,-30.16 -18.82,-25.45 -60.69,-24.44l-0.49 44.27z"/>
   <path class="fil0" d="M1387.08 2200.61c29.72,31.42 68.92,61.28 70.59,-7.64 -41.02,-4.9 -36.39,-10.04 -70.59,7.64z"/>
   <path class="fil1" d="M741.87 2828.9c37.8,38.63 74.43,14.58 98.77,68.55 15.97,35.4 2.42,98.89 5.4,145.65 -111.21,-74.66 -44.55,-112.31 -40.41,-124.05l-126.48 -3.72c36.77,30.42 22.13,32.58 7.44,72.25l46.51 -57.82c17.63,14.02 138.08,183.96 145.06,199.98 25.81,59.23 65.28,185.83 110,226.9 -19.95,-90.37 -39.76,-182.97 -60,-274.42 -17.61,-79.54 -65.38,-157.6 -100.01,-233.99l110.7 11.79 31.62 56.55 -13.69 -55.3 39.3 -25.95c-72.17,8.18 -97.23,14.89 -164.81,-17.62 -44.36,28.81 24.02,25.81 -56.23,17.95 -25.3,-30.59 -11.01,-0.21 -11.06,-47.18 -18.09,21.63 -14.83,-21.64 -22.11,40.43z"/>
   <path class="fil2" d="M2845.11 2360.71c-48.01,-79.28 14.37,-139.3 -25.56,-225.02l-72.03 0.98c8.56,149.19 115.29,244.18 53.57,370.73 -47.49,97.36 -124.01,234.09 -144.31,339.04 85.21,-82.43 118.24,-259.01 187.38,-325.65 36.97,34.02 84.91,168.32 106.97,221.64 -13.9,-154.06 -151.71,-199.76 -18.3,-428.16 27.57,-47.2 15.49,-43.56 34.85,-89.76 25.3,-60.39 93.26,-103.27 65.35,-163.82 -107.77,-34.1 -102.66,274.41 -187.92,300.02z"/>
   <path class="fil2" d="M1962.59 2837.98c-25.09,-20.65 -1.91,-16.74 -29.63,6.18 -71.86,59.4 -182.54,123.02 -248.62,12.99l-29.84 -41.53c-14.29,204 282.61,194.37 308.09,22.36z"/>
   <path class="fil2" d="M1750.84 3022.05c44.25,22.79 86.15,12.61 119.07,-21.66 -36.01,-7.01 -94.98,-7.17 -119.07,21.66z"/>
   <path class="fil2" d="M1330.5 2579.21l45.27 -1.69c-3.39,-44.07 19.06,-21 -27.26,-51.34 -35.52,25.17 -33.39,6.22 -18.01,53.03z"/>
   <path class="fil2" d="M3029.86 1586.09c39.95,-21.66 60.31,-45.13 1.54,-60.25 -25.12,44.7 -23.19,21.43 -1.54,60.25z"/>
   <path class="fil3" d="M1588.42 2822.55c44.18,-46.3 41.77,-73.74 68.49,-127.95 48.34,-98.1 61.98,-47.36 124.72,-54.12 50.13,-5.4 83.19,-63.37 137.92,-2.22 44.94,50.19 8.91,59.85 89.36,98.73 -31.85,148.09 36.16,287.17 -161.49,321.28 -60.97,10.53 -134.62,52.16 -179.82,-5.7 -31.75,-40.65 -35.2,-152.41 -31.28,-210.31l-47.9 -19.71zm-189.47 -138.88l-77.65 15.82c27.75,94.79 22.2,53.74 121.83,67.63 -143.57,34.33 -34.52,11.12 -122.55,77.91 -108.89,82.61 -337.41,307.58 -350.11,71.54l-31.62 -56.55 -110.7 -11.79c34.63,76.39 82.4,154.45 100.01,233.99 20.24,91.45 40.05,184.05 60,274.42 -44.72,-41.07 -84.19,-167.67 -110,-226.9 -6.98,-16.02 -127.43,-185.96 -145.06,-199.98l-46.51 57.82c14.69,-39.67 29.33,-41.83 -7.44,-72.25l126.48 3.72c-4.14,11.74 -70.8,49.39 40.41,124.05 -2.98,-46.76 10.57,-110.25 -5.4,-145.65 -24.34,-53.97 -60.97,-29.92 -98.77,-68.55 -178.09,1.44 -103.54,131.92 -183.67,222.08l-155.57 -325.76c4.26,159.9 135.55,510.1 212.03,669.14 60.2,125.18 7,213.85 2.46,160.74l-29.81 14.05 457.52 354.22c-9.23,-82.58 -60.36,-228.83 -81.34,-326.37 -37.72,-175.32 -23.5,-134.24 100.44,-249.59 109.25,-101.69 167.3,-421.21 309.81,-489.73 39.39,56.84 54.58,119.53 108.31,168.66 44.51,40.71 108.89,45.45 174.76,99.53 206.4,169.46 193.31,-0.91 391.01,-14.99 -24.42,52.94 -48.38,42.29 -94.78,78.65l23.25 26.79c120.85,14.32 242.18,-113.06 244.63,-5.11l35.89 -48.8 78.54 9.34c-19.93,40.52 -25.44,39.82 -62.37,64 -90.69,59.38 -64.8,42.92 -76.54,16.94 -124.39,47.46 -75.78,54.25 -76.81,155.42 30.9,-15.35 7.79,-13.21 32.35,-1.57 10.66,48.15 12.58,83.91 54.71,106.03l100.9 19.75c36.02,-4.44 12.23,2.38 31.33,-10.2 -20.94,-90.68 -30.32,-37.98 -124.02,-39.75l148.7 -52.41 -36.47 40.44c94.77,155.48 39.95,264.51 274.58,257.5l0.48 121.75c59.66,-11.8 117.66,-65.95 169.19,-102.81 183.32,-131.17 -24.72,-224.41 -82.96,-306.51 -151.42,-213.49 -112.35,-255.61 -161.94,-348.59 -14.98,-28.09 -84.02,-103.36 -110.52,-139.11 -70.58,-95.23 -223.46,-157.48 -337.93,-175.13 28.63,171.93 245.38,84.22 277.84,296.54l-187.53 -8.42 81.45 -130.65c-43.43,-33.18 -92.65,-25.8 -137.51,-65.39 -48.07,-42.43 -34.44,-77.63 -66.31,-119.23 -49.42,-64.51 -150.06,-127.55 -195.03,-186.24 142.67,50.25 284.07,225.09 440.14,276.93l63 -206.06 6.38 -62.57c-177.48,18.48 -306.43,52.88 -467.24,-74.05 -38.27,72.52 -98.01,91.15 -182.51,93.88 -57.75,1.87 -31.76,23.25 -71.33,-22.45 3.34,-1.78 7.85,-3.26 10.59,-4.07 70.43,-20.82 76.88,0.38 142.27,-20.25 39.12,-12.34 68.08,-42.26 89.96,-70.71 -49.2,-19.45 -95.46,-21.92 -148.41,-11.79 -109.96,21.01 -108.29,180.46 -334.84,220.7z"/>
   <path class="fil3" d="M1622.98 2355.07c-73.61,49.13 -170.28,34.83 -252.41,-0.42 -42.66,-18.31 49.85,33.62 -19.29,-10.68l-18.44 -16.39c-63.91,24.03 -86.84,4.15 -143.65,-0.4 2.75,30.45 12.52,65.13 29.39,90.94 40.52,61.99 30.29,31.95 98.83,31.08 84.21,-38.2 211.94,13.8 293.48,51.78 51.09,-31.48 95.04,-55.46 158.36,-79.52 -11.6,-163.07 -13.07,-274.65 86.25,-411.39 51.08,-70.34 271.8,-212.87 321.7,-91.06 -164.59,-69.38 -364.77,165.4 -348.58,255.85 57.54,-19.85 68.14,-55.58 70.59,-109.26 30.89,37.49 66.17,10.5 124.52,-12.87 70.55,-28.25 43.45,-53.53 73.78,-115.92l11.89 122.4 123.77 -95.59 -69.41 166.11 154.19 -70c-5.77,-139.37 -65.12,-380.03 -176.3,-464.61 -228.93,-174.18 -289.61,129.31 -717.88,94.8 -106.95,-8.62 -149.04,-13.82 -220.54,78.95 -80.98,105.05 -67.47,433.54 -16.95,523.28l125.95 -12.83 -76.46 -78.99 69.11 -6.69 -14.13 -62.56c57.81,41.28 27.92,43.88 99.55,39.96 76.44,-4.18 73.33,7.02 104.08,-40.9 11.22,52.97 56.08,97.19 103.53,67.69 8.86,-75.87 -204.31,-177.14 -321.38,-87.17 14.34,-50.47 87.34,-83.41 138.95,-90.35 70.54,-9.5 100.99,34.3 148.82,77.5 97.58,88.11 42.19,-15.65 93.27,115.94 20.1,51.8 56.94,126.45 45.3,168.06 -32.05,-71.18 -19.47,-135.81 -81.36,-189.2 -30.89,35.17 -29.7,32.78 0.83,71.45 -35.75,11.34 -21.08,-33.52 -44.96,21.01 25.77,26.11 84.74,65.3 45.6,70z"/>
   <path class="fil3" d="M2109.41 2173.25l13.94 23.45c-51.87,34.87 -47.54,71.31 -89.35,86.85 -32.62,12.13 -98.86,5.81 -157.44,21.35l-3.89 -33.27 -35.41 48.68 32.45 -99.3c-69.21,11.84 -30.49,3.27 -69.43,63.56l26.4 -94.4c-66.67,14.39 -40.53,173.3 -38.82,232.92l122.63 30.03c106.47,-95.58 281.83,-154.53 424.29,-151.12l-6.1 -85.34 -2.49 -110.23c-58.65,-5.61 -85.39,74.94 -216.78,66.82z"/>
   <path class="fil3" d="M862.26 2749.25l76.23 4.4c43.26,-78.84 64.27,-249.19 -1.47,-319.19 -37.07,49.63 -89.78,254.67 -74.76,314.79z"/>
   <path class="fil3" d="M763.98 2788.47c0.05,46.97 -14.24,16.59 11.06,47.18 80.25,7.86 11.87,10.86 56.23,-17.95 67.58,32.51 92.64,25.8 164.81,17.62l38.32 -16.43c-54.97,-54.97 -161.63,-64.99 -248.86,-77.86l-21.56 47.44z"/>
   <path class="fil4" d="M1334.06 239.31c642.15,-151.65 851.95,880.79 134.3,1009.32 -729.14,130.58 -806.29,-850.61 -134.3,-1009.32zm173.27 -150.11c-544.4,53.28 -964.94,266.74 -1275.43,720.94 -199.13,291.3 -236.94,290.43 220.51,468.37 162.54,63.23 615.32,279.08 760.83,163.8 92.77,-73.5 220.05,-131.84 333.97,-165.29 204.69,-60.11 249.02,-35.47 444.39,-14.16 101.14,11.02 399.41,-417.36 475.07,-510.18 292.43,-358.74 213.12,-339.49 -130.47,-509.49 -277.19,-137.15 -520.1,-184.2 -828.87,-153.99z"/>
   <path class="fil4" d="M1223.31 3083.71c-48.52,71.67 -52.57,156.77 -115.18,233.82 -62.23,76.57 -159.34,104.72 -147.98,199.61 9.17,76.63 46.68,207.73 68.97,284.17 44.58,152.92 25.2,113.03 120.91,228.08 -72.16,66.21 -281.49,99.16 -380.46,143.02 6.44,25.25 750.63,668.31 807.04,696.46 -19.58,-309.41 -46.71,-618.96 -74.81,-927.75 -27.9,-306.51 -38.28,-592.4 -87.83,-902.73l-190.66 45.32z"/>
   <path class="fil4" d="M2215.65 4155.41c48.27,-66.08 149.33,-122.05 219.94,-171.8 131.53,-92.68 147.43,-60.13 148.04,-227.33 -88.41,-40.59 -121.08,19.74 -193.9,-117.37 -51.46,-96.88 -83.86,-105 -206.9,-111.62 -109.69,171.82 -215.18,401.76 -302.26,587.13 -47.02,100.11 -88.37,197.9 -136.44,297.95 -77.48,161.21 -86.37,155.86 -70.44,354.03l733.63 -349.52c-35.32,-89.44 -164.98,-156.22 -191.67,-261.47z"/>
   <path class="fil4" d="M1976.29 3216.32c-129.55,-5.76 -248.68,60.37 -370.22,87.08l48.07 1070.29c76.02,-107.34 432.52,-842.56 465.49,-965.58 1.03,-101.17 -47.58,-107.96 76.81,-155.42l24.48 -41.48c-2.45,-107.95 -123.78,19.43 -244.63,5.11z"/>
   <path class="fil4" d="M1626.13 831c113.59,-305.77 -323.24,-449.07 -444.87,-168.09 -151.37,349.71 344.45,438.4 444.87,168.09z"/>
   <path class="fil4" d="M3234.9 3365.47c-146,-87.73 -509.9,-216.52 -681.61,-246.96 18.64,133.3 123.05,321.26 233.57,409.75 81.97,65.62 48.57,36.46 75.9,145l372.14 -307.79z"/>
   <path class="fil4" d="M2841.75 1740.52c-0.69,-46.97 0.09,-73.83 27.49,-109.73l69.93 -8.74c-13.51,44.98 -54.05,100.07 -97.42,118.47zm-258.9 294.95l131.48 -334.73c16.44,-6.14 53.5,5.79 72.12,12.73l-41.98 242.74c101.42,-63.95 31.07,-107.47 99.69,-147.48 29.67,40.56 -22.55,352.34 145.18,200.33 -150.63,-46.65 -51.11,-75.82 -76.94,-244.68 39.94,-47.78 140.05,-105.41 25.64,-181.41 -120.61,-24.38 -141.86,51.21 -217.69,81.72 -12.66,-75.61 15.01,-175.31 -83.6,-154.59 -30.6,56.88 -94.14,474.16 -53.9,525.37z"/>
   <path class="fil4" d="M2203.24 2354.25c190.61,-50.6 193.74,127.04 88.39,167.7 -158.58,61.21 -234.48,-128.92 -88.39,-167.7zm159.42 190.57c56.72,-23.69 124.98,-46.09 165.18,-95.19 -36.87,-55.07 -127.55,-105.86 -194.1,-119.42 -106.52,-4.22 -357.86,59.44 -411.47,156.77 133.79,106.67 286.04,77.29 440.39,57.84z"/>
   <path class="fil4" d="M3022.43 2594.04c102.11,25.82 135.64,-24.54 192.1,-97.92 31.61,-41.08 100.12,-137.44 114.47,-184.91 -75.55,49.97 -188.49,247.73 -254.96,257.15 -38.23,-108.91 48.73,-369.1 154.11,-415.58 -4.09,57.59 -50.99,87.63 -22.29,131.91 47.89,-11.38 29.45,-22.04 47.34,-75.39 10.74,-32.02 40.44,-66.98 28.44,-87.33 -68.89,-116.82 -366.32,263.27 -259.21,472.07z"/>
   <path class="fil4" d="M3106.15 1750.25c-26.89,40.27 -7.14,147.98 74.24,151.22 62.67,2.49 137.09,-43.18 159.51,-99.29 -34.52,-148.42 -152.48,-41.96 -155.7,-161.68 36.77,-42.21 90.19,-34.59 124.28,-49.98 -45.94,-62.31 -75.91,-70.67 -135.3,-7.51 -173.81,184.85 201.71,173 63.02,262.76 -90.18,58.36 -93.36,-67.51 -130.05,-95.52z"/>
   <path class="fil4" d="M1399.94 2668.57c83.14,-46.58 132.71,-61.01 204.12,-132.38 -19.02,-21.64 -44.71,-27.72 -76.46,-39.9 -51.18,-19.63 -65.19,-34.28 -81.31,3.08 60.89,64.69 -21.98,146.15 -97.53,154.78 -131.77,15.07 -125.55,-71.5 -116.5,-161.11 -49.29,15.36 -147.95,82.54 -166.63,128.85 105.99,42.44 219.1,50.84 334.31,46.68z"/>
   <path class="fil4" d="M1332.84 2327.58l18.44 16.39c69.14,44.3 -23.37,-7.63 19.29,10.68 82.13,35.25 178.8,49.55 252.41,0.42 -29.42,-33.98 -80.34,-68.06 -127.45,-76.24 -87.07,-15.11 -96.08,17.42 -162.69,48.75z"/>
   <path class="fil4" d="M1872.67 2271.63l3.89 33.27c58.58,-15.54 124.82,-9.22 157.44,-21.35 41.81,-15.54 37.48,-51.98 89.35,-86.85l-13.94 -23.45c-107.47,-6.67 -175.33,12.67 -236.74,98.38z"/>
   <path class="fil4" d="M587.31 3569.15l29.81 -14.05c23.54,-56.2 23.64,-93.22 -6.42,-142.91 -44.86,-11.01 -123.03,13.8 -167.1,33.51 18.54,32.61 107.61,103.74 143.71,123.45z"/>
   <path class="fil4" d="M1594.19 3277.68c45.71,8.31 110.92,-33.61 153.74,-56.09 -21.25,-39.5 -126.55,-119.65 -174.96,-124.82l21.22 180.91z"/>
   <path class="fil4" d="M2993.97 1925.65c53.6,-29.64 56.14,-59.87 60.42,-123.5 4.18,-61.96 20.66,-121.97 11.72,-184.05 -89.9,0.93 -87.66,281.93 -72.14,307.55z"/>
   <path class="fil5" d="M2215.65 4155.41c26.69,105.25 156.35,172.03 191.67,261.47l-733.63 349.52c-15.93,-198.17 -7.04,-192.82 70.44,-354.03 48.07,-100.05 89.42,-197.84 136.44,-297.95 87.08,-185.37 192.57,-415.31 302.26,-587.13 123.04,6.62 155.44,14.74 206.9,111.62 72.82,137.11 105.49,76.78 193.9,117.37 -0.61,167.2 -16.51,134.65 -148.04,227.33 -70.61,49.75 -171.67,105.72 -219.94,171.8zm-992.34 -1071.7l190.66 -45.32c49.55,310.33 59.93,596.22 87.83,902.73 28.1,308.79 55.23,618.34 74.81,927.75 -56.41,-28.15 -800.6,-671.21 -807.04,-696.46 98.97,-43.86 308.3,-76.81 380.46,-143.02 -95.71,-115.05 -76.33,-75.16 -120.91,-228.08 -22.29,-76.44 -59.8,-207.54 -68.97,-284.17 -11.36,-94.89 85.75,-123.04 147.98,-199.61 62.61,-77.05 66.66,-162.15 115.18,-233.82zm1329.98 34.8c171.71,30.44 535.61,159.23 681.61,246.96l-372.14 307.79c-27.33,-108.54 6.07,-79.38 -75.9,-145 -110.52,-88.49 -214.93,-276.45 -233.57,-409.75zm-980.32 -21.74c48.41,5.17 153.71,85.32 174.96,124.82 -42.82,22.48 -108.03,64.4 -153.74,56.09l-21.22 -180.91zm-224.46 -570.59c46.32,30.34 23.87,7.27 27.26,51.34l-45.27 1.69c-15.38,-46.81 -17.51,-27.86 18.01,-53.03zm-486.25 223.07c-15.02,-60.12 37.69,-265.16 74.76,-314.79 65.74,70 44.73,240.35 1.47,319.19l-76.23 -4.4zm639.57 -535.88c41.87,-1.01 32.11,-5.72 60.69,24.44 -31.64,32.97 -12.87,25.53 -61.18,19.83l0.49 -44.27zm-114.75 -12.76c34.2,-17.68 29.57,-12.54 70.59,-7.64 -1.67,68.92 -40.87,39.06 -70.59,7.64zm1635.35 393.43c-107.11,-208.8 190.32,-588.89 259.21,-472.07 12,20.35 -17.7,55.31 -28.44,87.33 -17.89,53.35 0.55,64.01 -47.34,75.39 -28.7,-44.28 18.2,-74.32 22.29,-131.91 -105.38,46.48 -192.34,306.67 -154.11,415.58 66.47,-9.42 179.41,-207.18 254.96,-257.15 -14.35,47.47 -82.86,143.83 -114.47,184.91 -56.46,73.38 -89.99,123.74 -192.1,97.92zm-177.32 -233.33c85.26,-25.61 80.15,-334.12 187.92,-300.02 27.91,60.55 -40.05,103.43 -65.35,163.82 -19.36,46.2 -7.28,42.56 -34.85,89.76 -133.41,228.4 4.4,274.1 18.3,428.16 -22.06,-53.32 -70,-187.62 -106.97,-221.64 -69.14,66.64 -102.17,243.22 -187.38,325.65 20.3,-104.95 96.82,-241.68 144.31,-339.04 61.72,-126.55 -45.01,-221.54 -53.57,-370.73l72.03 -0.98c39.93,85.72 -22.45,145.74 25.56,225.02zm-900.69 -234.8c4.63,-33.9 -21.13,-21.12 32.98,-45.61 20.52,-9.29 38.23,-10.63 57.21,-13.81 -7.6,58.22 -28.4,82.58 -90.19,59.42zm-115.8 48.95l-1.94 15.31 -26.4 94.4c38.94,-60.29 0.22,-51.72 69.43,-63.56l-32.45 99.3 35.41 -48.68c61.41,-85.71 129.27,-105.05 236.74,-98.38 131.39,8.12 158.13,-72.43 216.78,-66.82l2.49 110.23c30.1,38.59 26.96,69 5.06,113.55 66.55,13.56 157.23,64.35 194.1,119.42 -40.2,49.1 -108.46,71.5 -165.18,95.19 16.7,42.41 22.84,56.23 -8.58,90.16l-63 206.06c-156.07,-51.84 -297.47,-226.68 -440.14,-276.93 44.97,58.69 145.61,121.73 195.03,186.24 31.87,41.6 18.24,76.8 66.31,119.23 44.86,39.59 94.08,32.21 137.51,65.39l-81.45 130.65 187.53 8.42c-32.46,-212.32 -249.21,-124.61 -277.84,-296.54 114.47,17.65 267.35,79.9 337.93,175.13 26.5,35.75 95.54,111.02 110.52,139.11 49.59,92.98 10.52,135.1 161.94,348.59 58.24,82.1 266.28,175.34 82.96,306.51 -51.53,36.86 -109.53,91.01 -169.19,102.81l-0.48 -121.75c-234.63,7.01 -179.81,-102.02 -274.58,-257.5l36.47 -40.44 -148.7 52.41c93.7,1.77 103.08,-50.93 124.02,39.75 -19.1,12.58 4.69,5.76 -31.33,10.2l-100.9 -19.75c-42.13,-22.12 -44.05,-57.88 -54.71,-106.03 -24.56,-11.64 -1.45,-13.78 -32.35,1.57 -32.97,123.02 -389.47,858.24 -465.49,965.58l-48.07 -1070.29c121.54,-26.71 240.67,-92.84 370.22,-87.08l-23.25 -26.79c46.4,-36.36 70.36,-25.71 94.78,-78.65 -197.7,14.08 -184.61,184.45 -391.01,14.99 -65.87,-54.08 -130.25,-58.82 -174.76,-99.53 -53.73,-49.13 -68.92,-111.82 -108.31,-168.66 -142.51,68.52 -200.56,388.04 -309.81,489.73 -123.94,115.35 -138.16,74.27 -100.44,249.59 20.98,97.54 72.11,243.79 81.34,326.37l-457.52 -354.22c-36.1,-19.71 -125.17,-90.84 -143.71,-123.45 44.07,-19.71 122.24,-44.52 167.1,-33.51 30.06,49.69 29.96,86.71 6.42,142.91 4.54,53.11 57.74,-35.56 -2.46,-160.74 -76.48,-159.04 -207.77,-509.24 -212.03,-669.14l155.57 325.76c80.13,-90.16 5.58,-220.64 183.67,-222.08 7.28,-62.07 4.02,-18.8 22.11,-40.43l21.56 -47.44c87.23,12.87 193.89,22.89 248.86,77.86l-38.32 16.43 -39.3 25.95 13.69 55.3c12.7,236.04 241.22,11.07 350.11,-71.54 88.03,-66.79 -21.02,-43.58 122.55,-77.91 -99.63,-13.89 -94.08,27.16 -121.83,-67.63l77.65 -15.82 0.99 -15.1c-115.21,4.16 -228.32,-4.24 -334.31,-46.68 18.68,-46.31 117.34,-113.49 166.63,-128.85 -9.05,89.61 -15.27,176.18 116.5,161.11 75.55,-8.63 158.42,-90.09 97.53,-154.78 -73.25,-62.58 11.36,-45.88 -128.88,-50.17 -68.54,0.87 -58.31,30.91 -98.83,-31.08 -16.87,-25.81 -26.64,-60.49 -29.39,-90.94 56.81,4.55 79.74,24.43 143.65,0.4 66.61,-31.33 75.62,-63.86 162.69,-48.75 47.11,8.18 98.03,42.26 127.45,76.24 39.14,-4.7 -19.83,-43.89 -45.6,-70 23.88,-54.53 9.21,-9.67 44.96,-21.01 -30.53,-38.67 -31.72,-36.28 -0.83,-71.45 61.89,53.39 49.31,118.02 81.36,189.2 11.64,-41.61 -25.2,-116.26 -45.3,-168.06 -51.08,-131.59 4.31,-27.83 -93.27,-115.94 -47.83,-43.2 -78.28,-87 -148.82,-77.5 -51.61,6.94 -124.61,39.88 -138.95,90.35 117.07,-89.97 330.24,11.3 321.38,87.17 -47.45,29.5 -92.31,-14.72 -103.53,-67.69 -30.75,47.92 -27.64,36.72 -104.08,40.9 -71.63,3.92 -41.74,1.32 -99.55,-39.96l14.13 62.56 -69.11 6.69 76.46 78.99 -125.95 12.83c-50.52,-89.74 -64.03,-418.23 16.95,-523.28 71.5,-92.77 113.59,-87.57 220.54,-78.95 428.27,34.51 488.95,-268.98 717.88,-94.8 111.18,84.58 170.53,325.24 176.3,464.61l-154.19 70 69.41 -166.11 -123.77 95.59 -11.89 -122.4c-30.33,62.39 -3.23,87.67 -73.78,115.92 -58.35,23.37 -93.63,50.36 -124.52,12.87 -2.45,53.68 -13.05,89.41 -70.59,109.26zm1165.35 -249.21c-15.52,-25.62 -17.76,-306.62 72.14,-307.55 8.94,62.08 -7.54,122.09 -11.72,184.05 -4.28,63.63 -6.82,93.86 -60.42,123.5zm-411.12 109.82c-40.24,-51.21 23.3,-468.49 53.9,-525.37 98.61,-20.72 70.94,78.98 83.6,154.59 75.83,-30.51 97.08,-106.1 217.69,-81.72 114.41,76 14.3,133.63 -25.64,181.41 25.83,168.86 -73.69,198.03 76.94,244.68 -167.73,152.01 -115.51,-159.77 -145.18,-200.33 -68.62,40.01 1.73,83.53 -99.69,147.48l41.98 -242.74c-18.62,-6.94 -55.68,-18.87 -72.12,-12.73l-131.48 334.73zm523.3 -285.22c36.69,28.01 39.87,153.88 130.05,95.52 138.69,-89.76 -236.83,-77.91 -63.02,-262.76 59.39,-63.16 89.36,-54.8 135.3,7.51 -34.09,15.39 -87.51,7.77 -124.28,49.98 3.22,119.72 121.18,13.26 155.7,161.68 -22.42,56.11 -96.84,101.78 -159.51,99.29 -81.38,-3.24 -101.13,-110.95 -74.24,-151.22zm-76.29 -164.16c-21.65,-38.82 -23.58,-15.55 1.54,-60.25 58.77,15.12 38.41,38.59 -1.54,60.25zm-1522.53 -1496.89c308.77,-30.21 551.68,16.84 828.87,153.99 343.59,170 422.9,150.75 130.47,509.49 -75.66,92.82 -373.93,521.2 -475.07,510.18 -195.37,-21.31 -239.7,-45.95 -444.39,14.16 -113.92,33.45 -241.2,91.79 -333.97,165.29 -145.51,115.28 -598.29,-100.57 -760.83,-163.8 -457.45,-177.94 -419.64,-177.07 -220.51,-468.37 310.49,-454.2 731.03,-667.66 1275.43,-720.94zm1768.53 2912.59l27.43 -29.73c41.55,-43.83 20.68,-33.69 70,-50.84 159.57,-65 57.43,-128.09 172.4,-281.28 64.71,-86.21 123.02,-196.46 163.88,-296.64 49.1,-120.37 19.25,-272.97 -34.31,-387.95 -51.46,-110.48 -196.98,-131.45 -239.81,-221.19 -28.23,-59.16 -4.42,-138.04 -25.7,-210.93 -20.97,-71.87 -59.27,-71.06 -106.39,-117.81 -55.85,-55.41 -74.64,-171.87 -179.59,-281.09 -50.21,-52.25 -182.15,-198.39 -225.92,-234.49 -94.44,-77.91 -246.62,-78 -345.57,-114.16 10.96,-73.92 191.87,-253.27 178,-393.73 -168.73,-173.81 -499.03,-272.12 -727.99,-340.64 -256.28,-76.71 -672.53,-37.38 -927.69,42.47 -257.3,80.52 -467.75,214.08 -667.66,390.84 -121.03,107.01 -411.12,497.73 -406.88,658.74l426.31 245.49c-100.18,118.91 -123.56,101.12 -176.49,271.35 -37.6,120.91 -71.73,202.93 -137.57,310.59 -184.92,302.31 132.46,391.05 -46.77,702.88 128.58,138.1 70,241.75 156.49,327.23 52.93,52.32 94.86,40.4 138.12,110.74 50.46,82.06 62.12,69.21 156.05,82.64l38.84 126.67 -312.37 99.37c44.55,120.92 535.08,471.94 665.37,583.51 -73.47,80.19 -247.23,74.44 -338.54,136.68 111.08,132.89 414.59,331.02 561.44,467.04 75.73,70.14 486.28,444.53 556.38,464.26l-4.15 -189.74 923.44 -392.94c-14.84,-75.98 -189.47,-201.91 -214.34,-311.27 163.86,-186.06 974.51,-730.15 1029.61,-850.38l-274.76 -124.15c136.52,-100.32 88.16,-25.6 128.74,-191.54z"/>
   <path class="fil5" d="M1626.13 831c-100.42,270.31 -596.24,181.62 -444.87,-168.09 121.63,-280.98 558.46,-137.68 444.87,168.09zm-292.07 -591.69c-671.99,158.71 -594.84,1139.9 134.3,1009.32 717.65,-128.53 507.85,-1160.97 -134.3,-1009.32z"/>
   <path class="fil5" d="M1750.84 3022.05c24.09,-28.83 83.06,-28.67 119.07,-21.66 -32.92,34.27 -74.82,44.45 -119.07,21.66zm211.75 -184.07c-25.48,172.01 -322.38,181.64 -308.09,-22.36l29.84 41.53 22.65 -113.3c-0.53,-5.77 -3.41,-7.04 -4.88,-10.67 43.62,-10.97 132.45,-38.28 170.22,-45.54l48.96 62.69c22.95,25.28 26.7,29.38 54,46.85l-12.7 40.8zm-374.17 -15.43l47.9 19.71c-3.92,57.9 -0.47,169.66 31.28,210.31 45.2,57.86 118.85,16.23 179.82,5.7 197.65,-34.11 129.64,-173.19 161.49,-321.28 -80.45,-38.88 -44.42,-48.54 -89.36,-98.73 -54.73,-61.15 -87.79,-3.18 -137.92,2.22 -62.74,6.76 -76.38,-43.98 -124.72,54.12 -26.72,54.21 -24.31,81.65 -68.49,127.95z"/>
   <path class="fil5" d="M2203.24 2354.25c-146.09,38.78 -70.19,228.91 88.39,167.7 105.35,-40.66 102.22,-218.3 -88.39,-167.7z"/>
   <path class="fil5" d="M2220.92 3211.21l-24.48 41.48c11.74,25.98 -14.15,42.44 76.54,-16.94 36.93,-24.18 42.44,-23.48 62.37,-64l-78.54 -9.34 -35.89 48.8z"/>
   <path class="fil5" d="M2841.75 1740.52c43.37,-18.4 83.91,-73.49 97.42,-118.47l-69.93 8.74c-27.4,35.9 -28.18,62.76 -27.49,109.73z"/>
   <path class="fil6" d="M1317.41 2449.2c140.24,4.29 55.63,-12.41 128.88,50.17 16.12,-37.36 30.13,-22.71 81.31,-3.08 31.75,12.18 57.44,18.26 76.46,39.9 -71.41,71.37 -120.98,85.8 -204.12,132.38l-0.99 15.1c226.55,-40.24 224.88,-199.69 334.84,-220.7 52.95,-10.13 99.21,-7.66 148.41,11.79 -21.88,28.45 -50.84,58.37 -89.96,70.71 -65.39,20.63 -71.84,-0.57 -142.27,20.25 -2.74,0.81 -7.25,2.29 -10.59,4.07 39.57,45.7 13.58,24.32 71.33,22.45 84.5,-2.73 144.24,-21.36 182.51,-93.88 160.81,126.93 289.76,92.53 467.24,74.05l-6.38 62.57c31.42,-33.93 25.28,-47.75 8.58,-90.16 -154.35,19.45 -306.6,48.83 -440.39,-57.84 53.61,-97.33 304.95,-160.99 411.47,-156.77 21.9,-44.55 25.04,-74.96 -5.06,-113.55l6.1 85.34c-142.46,-3.41 -317.82,55.54 -424.29,151.12l-122.63 -30.03c-1.71,-59.62 -27.85,-218.53 38.82,-232.92l1.94 -15.31c-16.19,-90.45 183.99,-325.23 348.58,-255.85 -49.9,-121.81 -270.62,20.72 -321.7,91.06 -99.32,136.74 -97.85,248.32 -86.25,411.39 -63.32,24.06 -107.27,48.04 -158.36,79.52 -81.54,-37.98 -209.27,-89.98 -293.48,-51.78z"/>
   <path class="fil7" d="M1684.34 2857.15c66.08,110.03 176.76,46.41 248.62,-12.99 27.72,-22.92 4.54,-26.83 29.63,-6.18l12.7 -40.8c-27.3,-17.47 -31.05,-21.57 -54,-46.85l-48.96 -62.69c-37.77,7.26 -126.6,34.57 -170.22,45.54 1.47,3.63 4.35,4.9 4.88,10.67l-22.65 113.3z"/>
  </g>
 </g>
</svg>
