<?xml version="1.0" encoding="UTF-8"?>
<!DOCTYPE svg PUBLIC "-//W3C//DTD SVG 1.1//EN" "http://www.w3.org/Graphics/SVG/1.1/DTD/svg11.dtd">
<!-- Creator: CorelDRAW 2017 -->
<svg xmlns="http://www.w3.org/2000/svg" xml:space="preserve" width="178.83mm" height="279.4mm" version="1.1" style="shape-rendering:geometricPrecision; text-rendering:geometricPrecision; image-rendering:optimizeQuality; fill-rule:evenodd; clip-rule:evenodd"
viewBox="0 0 17883 27940"
 xmlns:xlink="http://www.w3.org/1999/xlink">
 <defs>
  <style type="text/css">
   <![CDATA[
    .fil14 {fill:#FEFEFE}
    .fil0 {fill:#F4C6DA}
    .fil11 {fill:#E9427B}
    .fil20 {fill:#E99CC3}
    .fil3 {fill:#E4749B}
    .fil17 {fill:#EFE02D}
    .fil5 {fill:#E2DE5A}
    .fil18 {fill:#D8D0A4}
    .fil9 {fill:#B7529D}
    .fil4 {fill:#B08DAF}
    .fil13 {fill:#AAD5B5}
    .fil7 {fill:#98CC71}
    .fil6 {fill:#90AFCD}
    .fil10 {fill:#8D72B2}
    .fil2 {fill:#7C7B7D}
    .fil15 {fill:#69C6B9}
    .fil12 {fill:#44C3D6}
    .fil1 {fill:#5A5B5C}
    .fil8 {fill:#5788C6}
    .fil19 {fill:#15B2DF}
    .fil16 {fill:#2A2A2B}
   ]]>
  </style>
 </defs>
 <g id="Capa_x0020_1">
  <metadata id="CorelCorpID_0Corel-Layer"/>
  <g id="_2666178427632">
   <path class="fil0" d="M6951.34 20297.27c51.98,43.29 -15.66,50.84 86.48,52.69 128.38,2.32 87.48,-37.91 104.31,-52.69 -16.84,-38.73 39.54,-67.62 -75.36,-85.78 -191.48,-30.28 -86.08,46.85 -115.43,85.78z"/>
   <path class="fil0" d="M4173.27 20211.15c-155.81,14.43 -49,11.18 -81.69,86.12 59.96,53.66 -90.16,60.84 110.76,52.88 115.89,-4.59 55.42,-34.07 76.65,-52.88 -13.39,-29.27 23.72,-98.12 -105.72,-86.12z"/>
   <path class="fil0" d="M3534.1 20422.89c-114.56,-20.2 -47.86,18.81 -73.98,38.31 36.31,48.54 -85.9,49.66 70.19,76.51 122.98,21.16 54.22,-24.15 79.47,-43.73 -43.61,-83.74 40.34,-50.64 -75.68,-71.09z"/>
   <path class="fil0" d="M6808.98 16412.83l19.78 -116.67c-35.6,-46.61 25.24,-15.45 -57.79,-20.26 -21.07,23.55 2.48,-16.75 -43.25,48.9 -40.25,57.77 -4.76,-2.46 -33.85,67.96l95.23 25.32c2.8,-6.24 13.22,-3.61 19.88,-5.25z"/>
   <path class="fil0" d="M3466.72 20327.77l121.19 -3.94c-3.16,-157.09 -140.49,-174.35 -121.19,3.94z"/>
   <path class="fil1" d="M5554.38 18150.46c-148.73,96.99 164.39,24.33 -105.16,146.89l47.38 20.55c5.87,2.54 17.04,5.68 23.32,8.65l76.32 50.21c6.35,5.32 11.49,13.9 17.99,19.3l108.7 65.06c35.97,-62.86 40.32,25.5 38.17,-96.25 -1.58,-90.48 -88.77,-45.74 -162.74,-33.83 57.05,-129.48 50.6,-56.69 51.24,-149.9l-95.22 -30.68z"/>
   <path class="fil1" d="M14592.42 17805.41c85.56,-4.46 148.85,-40.63 232.18,-65.57 -66.9,-183.6 12.27,-53.8 -134.67,-161.54l-45.77 51.09c-67.45,77.52 -82.27,77.56 -51.74,176.02z"/>
   <path class="fil2" d="M5722.93 14380.2c-48.83,100.93 65.01,77.59 -138.27,70.47 41.12,184.23 -74.07,32.33 -4.61,183.49 46.03,100.2 131.6,92.17 248.39,57.98 -2.31,-188.26 -84.18,-24.69 31.1,-274.66 -93.28,-1.92 -68.48,-2.27 -136.61,-37.28z"/>
   <path class="fil2" d="M8256.29 18559.63c-188.47,64.8 -70.02,182 37.1,114.06 126.74,-80.38 -29.87,-23.65 89.74,-110.2 126.81,-91.75 58.41,48.61 154.61,-102.21 -149.05,-190.25 -148.06,-57.87 -219.1,70.03 -167.56,-186.87 -25.98,-84.49 -33.71,-148.34 -50.79,20.65 -33.38,-63.32 -69.32,54.57 -48.48,159.02 -21.73,62.61 40.68,122.09z"/>
   <path class="fil2" d="M13570.7 18559.63c-10.48,3.91 -60.92,24.07 -65.67,29.85 -3.33,4.06 -10.47,14.47 -13.34,18.96l-12.03 49.39c258.28,66.53 77.27,-6.44 274.37,-119.43 109.45,-62.74 20.88,64.51 103.61,-77.12l-71.27 -79.47c-140.1,51.96 -38.46,37 -141.47,146.11 -88.04,-51.63 -65.78,-69.94 -101.13,-120.16 -37.96,99.78 -32.06,78.59 26.93,151.87z"/>
   <path class="fil2" d="M6770.97 16275.9c83.03,4.81 22.19,-26.35 57.79,20.26l-19.78 116.67 84.37 -19.44c-48.29,-93.46 -29.03,-17.43 -21.66,-162.06 54.2,93.64 -2.47,86.49 99.55,33.32 47.57,-217.09 -226.81,-284.46 -265.06,-122.09 108.15,91.64 92.14,-18.32 149.22,72.09l-84.43 61.25z"/>
   <path class="fil2" d="M9094.8 14363.09l134.78 79.29c-184.06,64.65 -120.36,-10.93 -173.49,117.42 33.38,54.41 5.65,33.32 71.6,67.44 44.75,-59.23 1.57,26.58 22.62,-49.35l212.53 -15.13 -131.27 -200.44c-54.34,-78.45 48.98,23.37 -52.89,-63.06l-65.66 51.19c-3.06,2.24 -12.14,8.43 -18.22,12.64z"/>
   <path class="fil2" d="M14414.9 14363.09l136.58 78.8c-85.65,42.32 -85.06,4.97 -167,69.02 12.69,117.86 -31.64,39.2 37.81,106.07 91.94,-18.72 84.61,69.8 28.92,-89.96l238.4 33.41 -168.24 -257.45 -106.47 60.11z"/>
   <path class="fil2" d="M3731.95 18690.78c168.79,67.89 288.49,150.45 298.71,-129.78 -102.03,3.52 -100.56,-1.44 -228.08,71.97 -82.48,47.48 -16.69,-5.41 -70.63,57.81z"/>
   <path class="fil2" d="M11225.62 18592.42l-119.69 65.57 153.87 73.16 96.2 -105.94c-7.34,-10.5 -36.81,-59.82 -47.73,-81.96l-39.62 -82.13c-4.39,-8.52 -10.97,-20.59 -17.2,-30.47 -5.01,9.87 -14.42,11.81 -15.57,29.34l-10.26 132.43z"/>
   <path class="fil2" d="M7172.48 18844.65c40.53,-60.36 65.39,-273.02 -101.14,-231.16 6.72,8.75 -1.82,27.04 1.11,31.63 1.49,2.34 8.07,11.35 10,13.59l-66.48 89.38c201.25,49.88 -15.2,30.48 156.51,96.56z"/>
   <path class="fil2" d="M2888.74 14602.97l68.21 -141.52 -161.28 -38.26c0.74,11.72 32.44,68.9 34.77,75.22 33.07,90 -49.78,10.73 58.3,104.56z"/>
   <path class="fil3" d="M5163.3 13288.71c117.22,-18.16 108.43,13.96 135.23,-103.47 2.48,-10.87 -4.76,-148.33 -8.76,-163.95 -19.56,-76.43 -87.78,-143.99 -138.01,-196.75l-130.25 -47.22c-7.98,237.17 22.4,370.29 141.79,511.39z"/>
   <path class="fil3" d="M8801.59 20123.16c-132.32,-7.81 -102.46,63.66 -102.65,205.5 -0.19,134.37 -31.15,232.56 57.94,310.2 114.82,-78.88 85.88,-379.34 44.71,-515.7z"/>
   <path class="fil3" d="M4711.61 20114.16c-93.77,82.77 -98.89,443.41 0,525.05 82.55,-56.48 44.55,44.81 69.01,-110.19 3.37,-21.4 -0.6,-135.26 -0.42,-166.41 1.53,-283.24 -3.63,-202.53 -68.59,-248.45z"/>
   <path class="fil4" d="M5163.3 13288.71l79.09 132.02c116.38,-27.28 228.26,-103.48 298.23,-150.52l13.39 -322.39 -402.25 -123.28c50.23,52.76 118.45,120.32 138.01,196.75 4,15.62 11.24,153.08 8.76,163.95 -26.8,117.43 -18.01,85.31 -135.23,103.47z"/>
   <path class="fil4" d="M8998.33 11704.33l165.09 -37.65c3.16,-16.35 10.05,-39.78 12.53,-34.39 2.44,5.26 10.59,-20.12 13.91,-26.28l92.29 -147.97c-192.11,13.43 -201.83,92.78 -283.82,246.29z"/>
   <path class="fil5" d="M5615.14 11466.48c58.1,170.67 166.54,242.49 232.39,380.85 79.99,168.06 162.62,236.3 275.27,344.92l6.73 -228.89c-51.27,-143.85 -311.47,-509.19 -406.6,-593.51l-107.79 96.63z"/>
   <path class="fil5" d="M10596.35 13532.17c104.9,-52.27 97.41,-67.63 153.48,-149.38 23.45,-107.73 47.36,-126.14 100.09,-198.57 37.79,-51.88 70.03,-108.46 101.45,-168.36 92.51,-176.42 121.4,-166.55 179.59,-365.1 -23.23,-66.47 -1.66,-137.44 -81.77,-210.57 -153.14,147.31 -185.55,587.75 -349.06,830.16 -107.49,159.36 -121.28,74.85 -103.78,261.82z"/>
   <path class="fil5" d="M6757.99 12599.36c66.99,292.98 282.69,407.65 334.33,677.59 70.37,80.59 140,144.64 218.19,202.74 -29,-284.89 -67.39,-13.61 -249.57,-550.86 -29.37,-86.64 -70.48,-177.93 -109.62,-284.12 -104.81,-284.42 -48.25,-211.17 -145.41,-246.84l-47.92 201.49z"/>
   <path class="fil6" d="M13637.64 11271.72l-73.93 137.72c38.87,21.52 19.81,22.25 82.33,35.58 23.76,5.06 67.58,6.56 93.07,8.29 8.06,295.25 97.67,71.42 15.45,225.45 150.1,-64.26 403.34,-193.53 468.09,-296.65 64.35,-202.95 -36.42,-32.32 12.31,-220.15 18.71,-72.09 53.4,-59.32 98.74,-166.15 -146.77,122.16 -460.76,297.81 -655.09,392.73 -54.43,-57.32 -61.31,99.6 -40.97,-116.82z"/>
   <path class="fil6" d="M5540.62 13270.21l192.51 -95.27c-14.62,161.64 -65.16,308.76 -38.53,460.11l136.47 63.21 99.68 -3.42c-21.25,-70.85 -70.31,-91.72 -69.6,-249 0.58,-129.1 31.28,-168.86 35.94,-290.76l166.33 -12.53 -509.41 -194.73 -13.39 322.39z"/>
   <path class="fil7" d="M5259.06 11434.63l54.31 88.76c100,64.49 131.86,134.09 232.61,225.27 73.97,66.93 133.96,137.44 196.45,203.97 197.27,210.01 305.01,340.61 484.89,358.6l-71.58 -347.87 -26.21 0 -6.73 228.89c-112.65,-108.62 -195.28,-176.86 -275.27,-344.92 -65.85,-138.36 -174.29,-210.18 -232.39,-380.85 -81.44,-115.07 -412.51,-483.8 -494.79,-538.58 2.72,200.83 159.67,412.45 138.71,506.73z"/>
   <path class="fil7" d="M12168.66 11425.5c223.35,525.06 -412,897.58 -474.14,904.51l5.01 -147.32c-68.03,0 -46.95,-14.9 -50.34,57.37l-5.61 161.74c237.21,3.01 180.65,-41.14 312.28,-173.12 84.52,-84.73 144.84,-183.62 248.26,-232.08 62.56,-117.05 75.4,-162.25 164.69,-249.67 41.72,-40.85 52.62,-54.05 97.63,-103.05 66.53,-72.43 52.77,-66.86 138.54,-116.25l1 -25.66c38.97,-160.06 122.31,-283.13 138.84,-463.94 -163,65.1 -326.4,293.79 -408.56,413.26 -193.35,0.8 -97.7,-89.15 -167.6,-25.79z"/>
   <path class="fil8" d="M4279.37 10970.76c304.96,159.85 800.29,580.17 1082.95,747.54 -23.87,-104.98 -36.46,-37.5 -48.95,-194.91l-54.31 -88.76c-202.67,-186.17 -333.24,-308.08 -494.81,-467.07 -121.14,-119.21 -375.97,-393.28 -495.19,-458.8 -123.2,-9.95 -102.16,-15.15 -192.74,-42.17 16.79,135.32 33.19,53.11 117.03,175.34 4.62,6.74 8.86,15.68 13.11,22.65l166.31 256.03c-59.85,70.01 90.64,82.96 -93.4,50.15z"/>
   <path class="fil8" d="M12605.98 11501.97l-1 25.66c-20.78,116.21 -50.86,135.16 -79.69,252.19 5.51,-10.16 -25.46,9.59 60.7,-51.9l317.55 -209.14 519.01 -403.01c18.23,-199.47 52.19,-82.78 281.23,-432.67 4.2,-6.41 9.89,-14.01 14,-20.48 65.14,-102.41 113.55,-165.26 -10.02,-191.87 -144.06,81.58 -398.74,368.15 -544.54,505.72 -201.11,189.76 -340.99,357.85 -557.24,525.5z"/>
   <path class="fil8" d="M2560.99 10513.57c57.4,92.35 289.57,240.21 390.14,316.01 153.98,116.06 257.51,221.29 428,293.18 -127.57,-342.52 -21.75,-12.02 -22.13,-267.72 -165.7,-123.5 -585.05,-616.23 -801.09,-657.16l77.29 295.85c-49.08,39.08 12.22,19.14 -72.21,19.84z"/>
   <path class="fil9" d="M1339.76 10939.67c6.54,6.05 17.77,5.01 21.48,15.99 3.65,10.8 16.45,12.28 21.6,15.13l476.97 192.31c218.36,53.6 47.68,18.33 115.59,-73.82 -130.98,-57.16 -106.05,-95.07 -195.08,-203.56l-234.44 -219.76c-145.22,-90.92 -341.76,-192.09 -519.05,-296.78 -161.39,-95.3 -384.27,-241.68 -566.36,-297.75 99.34,172.17 880.94,826.8 879.29,868.24z"/>
   <path class="fil9" d="M16386.85 10685.93c-65.17,59.26 -65.84,30.01 -112.7,105.22 -57.16,74.88 -211.34,210.16 -277.44,260.55 -71.36,54.41 -69.9,43.34 -117.8,104.06 -12.45,15.78 -76.21,103.69 -90.4,147.49l909.37 -396.4c-144.2,32.5 -36.92,11.66 -78.75,-11.13 83.51,-50.48 712.7,-612.34 771.56,-742.6 -259.3,55.89 -746.73,432.13 -1003.84,532.81z"/>
   <path class="fil9" d="M10159.5 8887.91c50.81,67.33 150.26,104.52 215.67,163.93 -45.56,220.05 -247.54,440 -263.06,644.99 149.21,-115.54 610.89,-565.58 659.65,-710.56l-222.2 -125.85 289.42 -650.33c-107.06,21.79 -612.13,559.66 -679.48,677.82z"/>
   <path class="fil9" d="M7408.45 9160.05c133.7,-11.64 127.04,-32.63 235.98,-90.64 171.13,162.92 152.41,412.39 362.31,534.43l-142.36 -884.37 -281.47 108.94c-82.07,-190.28 -209.93,-471.85 -346.99,-597.4 0.52,212.05 85.53,769.33 172.53,929.04z"/>
   <path class="fil9" d="M9328.13 20228.38c83.63,-37.35 34.35,27.69 70.57,-62.25 -125.85,-86.92 -314.53,-72.67 -307.68,97.34 6.29,156.01 121.89,102.36 210.58,230.51l-181.07 53.82c-3.7,-6.81 -14.91,6.72 -21.18,11.75 77.7,122 175.36,92.35 314.15,45.61l14.1 -180.82c-114.49,-115.11 -108.54,-57.6 -206.45,-159.86l106.98 -36.1z"/>
   <path class="fil9" d="M14108.83 20264.48c109.08,-70.12 131.63,23.46 181.45,-98.35 -113.66,-72.75 -314.96,-73.76 -308.88,96.68 4.9,137.24 119.78,116.34 210.06,231.17 -43.54,29.01 -0.02,16.58 -76.67,29.73 -86.33,14.81 -30.97,-30.31 -120.37,3.06 39.07,275.7 478.63,50.8 276.38,-147.35 -50.53,-49.51 -84.93,-25.04 -161.97,-114.94z"/>
   <path class="fil9" d="M15464.15 20228.68c89.22,-25.28 -23.28,50.19 90.42,-29.77 -65.39,-150.09 -229.68,-94.32 -313.88,0 -12.71,268.51 140.09,138.68 213.02,320.67 -52.18,9.07 -110.16,7.76 -122.81,10.05 -79.6,14.4 -32.47,-0.47 -84.5,29.92 100.03,145.45 202.74,94.73 324.71,13.78 11.68,-277.02 -85.1,-173.78 -208.98,-308.85l102.02 -35.8z"/>
   <path class="fil10" d="M13707.76 10470.75c123.57,26.61 75.16,89.46 10.02,191.87 -4.11,6.47 -9.8,14.07 -14,20.48 -229.04,349.89 -263,233.2 -281.23,432.67 102.2,-34.91 665.23,-361.48 774.74,-524.34l-129.45 16.81c32.32,-140.31 46.39,-135.17 133.01,-228.73 59.56,-64.33 98.96,-100.2 142.02,-150.44 -20.32,-54.41 18.82,-143.14 41.08,-196.1 50.27,-119.6 64.51,-144.59 95.01,-287.54 -192.85,81.14 -278.87,219.87 -407.44,344.27 -105.75,102.32 -289.63,258.48 -363.76,381.05z"/>
   <path class="fil10" d="M3498.05 10138.92c52.24,61.1 108.36,100.48 178.62,182.02 77.98,90.5 104.39,98.36 136.53,218.8l-146.45 -9.92 295.37 238.73c93.2,72.96 214.16,145.95 317.25,202.21 184.04,32.81 33.55,19.86 93.4,-50.15l-166.31 -256.03c-4.25,-6.97 -8.49,-15.91 -13.11,-22.65 -83.84,-122.23 -100.24,-40.02 -117.03,-175.34 90.58,27.02 69.54,32.22 192.74,42.17 -65.65,-110.58 -797,-826.3 -902.02,-872.23l142 360.76c15.93,55.82 15.51,2.23 11.53,72.66 -5.48,97.02 29,11.66 -22.52,68.97z"/>
   <path class="fil10" d="M14333.7 10995.81c-45.34,106.83 -80.03,94.06 -98.74,166.15 -48.73,187.83 52.04,17.2 -12.31,220.15 211.4,-92.21 353.51,-237.89 532.63,-365.49 148.96,-106.11 394.87,-275.72 517.35,-389.53l34.12 -307.68c-166.55,14.61 -596.16,385.81 -751.45,508.61 -71.34,56.42 -148.04,120.15 -221.6,167.79z"/>
   <path class="fil10" d="M1859.81 11163.1l640.27 278.69 -159.04 -398.63 5.78 105.5 -789.72 -468.18 -11.22 -14.52 234.44 219.76c89.03,108.49 64.1,146.4 195.08,203.56 -67.91,92.15 102.77,127.42 -115.59,73.82z"/>
   <path class="fil10" d="M15623.1 11091.4l-134.3 322.27 299.71 -110.42c14.19,-43.8 77.95,-131.71 90.4,-147.49 47.9,-60.72 46.44,-49.65 117.8,-104.06 66.1,-50.39 220.28,-185.67 277.44,-260.55 -126.83,52.15 -223.4,106.37 -328.97,172.73 -125.14,78.66 -153.16,126.58 -322.08,127.52z"/>
   <path class="fil11" d="M9093.98 13038.29c-35.06,-49.41 -28.37,16.24 -48.66,-116.17l48.66 -743.66c90.08,36.96 61.11,50.57 65.85,182.13l18.25 496.95c1.63,214.57 18.14,132.77 -84.1,180.75zm-437.87 642.67l390.65 7.71 -45.17 -351.16 204.32 -14.5 -24.58 370.13 383.37 -10.2c-35.64,-160.43 -82.16,-154.29 -104.79,-390.4 -35.58,-371.37 -88.93,-1112.03 -29.78,-1424.09l-636.86 -1.26c63.36,377.61 4.78,965.61 -29.96,1392.61 -23.01,282.98 -64.93,238.78 -107.2,421.16z"/>
   <path class="fil11" d="M7737.19 13554.39l320.46 -2.38c-46.12,-271.55 -61.31,-429.33 -48.9,-735.4l25.93 48.66c13.94,34.68 16.38,36.37 27.77,77.26 44.21,158.62 16.76,298.2 121.34,399.33 80.3,-71.7 65.13,-96.85 87.74,-241.07 6.07,-38.73 13.69,-103.39 23.19,-141.69l65.83 -145.31c5,297.19 -3.85,463.31 -52.55,741.06l319.33 -3.52c-94.9,-369.74 -78.39,-1133.72 -14.98,-1537.66l-294.32 16.13 -124.54 574c-165.91,-311.79 71.33,-685.21 -460.76,-581.9 91.11,394.5 87.96,1158.29 4.46,1532.49z"/>
   <path class="fil11" d="M8663.11 8582.66l385.14 15.15 7.31 958.45 243.43 -597.6c49.56,-151.45 181.45,-512.69 187.04,-647.43l-386.94 -14.6 -10.15 -1011.76c-78.8,84.13 -425.11,1139.77 -425.83,1297.79z"/>
   <path class="fil11" d="M9914.67 13294.11c-169.95,13.85 -124.34,-64.13 -282.87,-116.83 -2.5,100.34 -29.88,301.94 51.98,349.3 74.96,43.36 293.3,19.16 356.57,-3.81 170.89,-74.72 199.77,-561.91 -8.57,-792.32 -142.48,-157.58 -183.26,-155.72 -155.51,-458 154.38,11.53 67.68,41.98 229.01,63.36l22.51 -310.65c-284.93,9.35 -594.37,-152.76 -490.56,565.7 45.17,312.66 365.66,182.26 277.44,703.25z"/>
   <path class="fil11" d="M2040.26 10745.87c106.87,73.11 118.79,121.94 216.01,100.83 -53.09,-178.93 -277.03,-613.76 -257.23,-721.96 -83.92,-96.83 -142.43,-234.01 -202.05,-349.71 -292.87,-152.65 -594.51,-429.33 -870.03,-531.46 63.42,163.27 395.74,562.63 547.37,758.92 201.04,260.23 390.12,507.56 565.93,743.38z"/>
   <path class="fil11" d="M16081.12 9836.03c-54.24,95.39 -105.1,171.17 -138.89,288.61 67.61,48.79 21.36,-21.05 23.72,74.23 3.48,140.29 -186.21,389.21 -229.68,655.7l105.88 -47.41c193.05,-309.14 1019.15,-1263.97 1125.37,-1510.31 -128.6,25.77 -740.96,454.4 -886.4,539.18z"/>
   <path class="fil11" d="M8003.8 20478.44c1.8,-12.88 6.87,-16.49 11.44,-24.16l101.13 161.71c113.59,-25.37 62.06,-69.61 168.56,-137.34 71.4,137.74 -13.43,88.72 101.13,148.74 64.33,-95.08 3.85,-427.66 -80.53,-501.25l-166.1 292.6 -146.16 -290.95c-54.61,48.6 -26.79,-47.25 -72.2,110.68 -7,24.34 -17.07,114.19 -24,149.68 -55.37,283.38 -11.44,205.25 17.04,239.76l89.69 -149.47z"/>
   <path class="fil11" d="M11285.17 20627.32c128.19,-71.78 28.76,-82.13 101.12,-215.09l121.5 220.5c124.59,-100.13 71.56,-98.2 148.19,-199.02 60.76,106.26 -5.3,115.85 101.13,192.81 54.52,-69.85 27.73,91.21 39.38,-100.32 1.6,-26.33 -15.59,-122.16 -21.3,-153.15l-41.9 -187.28c-28.96,-60.75 -17.11,-28.34 -43.6,-54.58l-157.12 288.77 -165.92 -292.94c-36.71,35.52 -28.53,-9.87 -63.53,94.86l-51.19 275.3c-4.4,113.03 5.28,90.75 33.24,130.14z"/>
   <path class="fil11" d="M13583.93 20256.25c176.95,391.36 -439.42,358.21 -203.09,-27.22l203.09 27.22zm-374.53 172.16c50.73,327.32 567.76,256.27 524.13,-89.85 -41.65,-330.24 -582.12,-284.34 -524.13,89.85z"/>
   <path class="fil11" d="M14342.87 10229.07c-43.06,50.24 -82.46,86.11 -142.02,150.44 -86.62,93.56 -100.69,88.42 -133.01,228.73l129.45 -16.81 24.25 -2.26 78.14 -66.9c114.78,-142.11 535.54,-615.35 597.49,-759.44 -177.63,79.83 -398.14,338.59 -554.3,466.24z"/>
   <path class="fil11" d="M12532.45 20626.54c87.72,-40.21 54.35,91.64 74.75,-264.47 167.15,88.92 158.54,233.89 318.42,256.82 11.98,-229.87 48.75,-428 -56.07,-489.38 -70.14,102.94 -32.11,34.01 -47.38,256.84 -157.24,-79.31 -146.59,-206.87 -322.99,-257.39 -6.45,140.73 -38.16,389.49 33.27,497.58z"/>
   <path class="fil11" d="M7037.82 20349.96c-102.14,-1.85 -34.5,-9.4 -86.48,-52.69 29.35,-38.93 -76.05,-116.06 115.43,-85.78 114.9,18.16 58.52,47.05 75.36,85.78 -16.83,14.78 24.07,55.01 -104.31,52.69zm174.93 277.85c-14.15,-96.13 -52.07,-127 -25.71,-216.7 25.83,-87.93 74.2,-46.42 48.24,-171.54 -29.21,-140.9 -226.52,-140.28 -383.13,-91.4 -7.05,130.73 -51.72,406.69 50.65,478.86 91.52,-51.21 40.76,-83.55 101.12,-172.93 177.24,117.61 -17.63,134.44 208.83,173.71z"/>
   <path class="fil11" d="M3460.12 20461.2c26.12,-19.5 -40.58,-58.51 73.98,-38.31 116.02,20.45 32.07,-12.65 75.68,71.09 -25.25,19.58 43.51,64.89 -79.47,43.73 -156.09,-26.85 -33.88,-27.97 -70.19,-76.51zm6.6 -133.43c-19.3,-178.29 118.03,-161.03 121.19,-3.94l-121.19 3.94zm-102.48 296.07c152.94,11.7 335.63,50.7 344.06,-128.92 6.16,-131.19 -25.02,-26.66 -20.88,-179.7 2.79,-103.46 18.03,-57.57 -9.2,-172.11l-321.3 -10.54 7.32 491.27z"/>
   <path class="fil11" d="M4091.58 20297.27c32.69,-74.94 -74.12,-71.69 81.69,-86.12 129.44,-12 92.33,56.85 105.72,86.12 -21.23,18.81 39.24,48.29 -76.65,52.88 -200.92,7.96 -50.8,0.78 -110.76,-52.88zm-54.18 329.75c141.52,-74.09 3.61,-48.39 101.13,-184.54 165.69,122.64 -12.81,135.53 215.3,188.09 -10.08,-96.81 -42.22,-135.74 -32.82,-194.05 11.4,-70.78 267.6,-350.72 -317.2,-304.52 -18.79,256.91 -33.14,402.16 33.59,495.02z"/>
   <path class="fil11" d="M3526.54 10404.35l140.21 125.47 146.45 9.92c-32.14,-120.44 -58.55,-128.3 -136.53,-218.8 -70.26,-81.54 -126.38,-120.92 -178.62,-182.02 -106.7,-96.91 -328.14,-320.71 -455.85,-378.25 65.57,193.98 368.76,466.76 484.34,643.68z"/>
   <path class="fil11" d="M14547.96 20627.56c207.83,-36.95 33.22,-102.09 240.86,-90.29 192.1,10.92 -8.45,43.72 211.25,91.05 -17.2,-164.63 -139.22,-372.22 -199.34,-499.61 -117.31,67.68 -237.79,349.92 -252.77,498.85z"/>
   <path class="fil11" d="M2281.36 20627.39c200.52,-24.15 25.86,-94.38 238.78,-83.06 242.9,12.93 -13.44,78.15 235.97,67.97l-235.68 -478.36c-96.18,55.43 -224.81,379.09 -239.07,493.45z"/>
   <path class="fil11" d="M10657.64 20611.38c149.65,36.11 226.87,44.82 325.51,-19.04 -61.74,-93.79 -101.57,-21.47 -214.69,-98.36 70.6,-130.62 107.01,-1.23 180.46,-131.14 -75,-48.15 -123.81,-11.9 -180.06,-98.36 64.39,-72.98 -7.26,-14.79 83.69,-45.82 8.45,-2.88 18.97,-3.03 27.92,-6.08l104.74 -46.45c-97.33,-69.39 -205.99,-51.33 -325.07,-20.52l-2.5 465.77z"/>
   <path class="fil11" d="M6411.59 20381.5c34.26,63.84 9.08,24.67 14.48,81.42 -170.83,-6.64 -137.02,-46.96 -62.64,-133.04 27.25,23.94 22.91,4.59 48.16,51.62zm-278.02 239.82c202.5,3.98 7.66,-72.15 230.07,-75.27 214.74,-3.01 31.12,55.57 232.43,76.64 -14.72,-108.2 -55.08,-177.23 -95.01,-263.04 -53.64,-115.29 -55.38,-160.06 -137.63,-225.55 -89.14,93.02 -206.83,347.59 -229.86,487.22z"/>
   <path class="fil11" d="M10105.29 20614.6l67.43 -147.11 188.33 -104.58c-113.33,-58.67 -137.57,22.17 -189.02,-98.43 61.55,-80.23 47.42,-26.76 132.69,-55.84 70.86,-24.17 40.88,-11.16 82.78,-42.51 -8.27,-5.35 -19.66,-23.85 -24.91,-15.9 -5.22,7.93 -18.69,-11.7 -26.19,-13.66l-266.03 -5.4 -8.34 364.64c20.54,147.24 18.68,76.34 43.26,118.79z"/>
   <path class="fil11" d="M5116.14 20126.69c-80.94,105.08 -50.25,364.89 -38.35,501.39 120.2,4.81 211.1,27.22 294.87,-35.74 -41.72,-85.6 -52.12,-49.48 -186.35,-65.56 -19.39,-357.01 48.96,-331.51 -70.17,-400.09z"/>
   <path class="fil11" d="M5910.18 20592.34c-9.17,-6.6 -20.55,-14.38 -28.56,-18.35 -7.66,-3.79 -19.21,-11.94 -28.3,-16.01 -125.19,-56.02 53.84,17.78 -54.61,-19.19 -51.65,-17.61 -11.53,4.79 -58.73,-12.02 -18.26,-189.46 27.31,-288.19 -50.76,-399.02 -82.03,43.68 -45.53,-56.29 -68.77,101.12l9.93 390.27c309.82,44.76 252.06,-11.21 279.8,-26.8z"/>
   <path class="fil11" d="M12082.45 20262.19c-2.48,28.16 0.66,100.8 0.69,133.74 0.01,26.89 -2.07,111.02 1.04,132.24 24.51,167.78 2.68,44.23 43.74,100.19 75.14,-38.97 65.1,79.58 68.42,-265.89 2.65,-276.52 -4.03,-200.85 -68.42,-233.4l-45.47 133.12z"/>
   <path class="fil12" d="M1796.99 9775.03c59.62,115.7 118.13,252.88 202.05,349.71 191.69,95.66 391.39,322.53 561.95,388.83 84.43,-0.7 23.13,19.24 72.21,-19.84l-77.29 -295.85c216.04,40.93 635.39,533.66 801.09,657.16 0.38,255.7 -105.44,-74.8 22.13,267.72l355.04 251.56c147.59,38.06 117.3,50.8 289.98,57.95 -15.09,-235.9 -122.42,-243.69 -273.53,-366.35 -125.73,-102.06 -181.29,-177.78 -306.58,-289.95 -159.66,-142.95 -457.07,-457.57 -605.22,-543.86 24.66,-119.77 28.35,-14.61 64.62,-175.27 -83.76,-62.36 -101.1,-59.72 -134.91,-174.6 -144.15,-116.09 -1287.25,-953.16 -1423.86,-990.24 46.09,178.2 345.43,703.31 452.32,883.03z"/>
   <path class="fil12" d="M14521.2 10389.44c-47.49,357.6 11.22,274.87 -135.98,464.3 -77.47,99.7 -45.76,-3.84 -51.52,142.07 73.56,-47.64 150.26,-111.37 221.6,-167.79 155.29,-122.8 584.9,-494 751.45,-508.61l-34.12 307.68 77.26 -62.01c-20.95,-75.4 28.27,-94.2 29.61,-201.11 1.73,-138.73 -62.69,-104.86 -76.59,-171.96 -2.83,-13.66 -12.75,-14.95 -16.22,-23.87 10.8,0.17 24.04,1.94 32.19,3.65 7.89,1.66 21.69,2.62 30.98,4.96l102.33 41.92c3.96,-6.69 14.11,10.3 21.87,14.3 64.86,-62.18 369.1,-243.97 471.28,-276.95 -31.77,115.06 -62,100.89 -65.83,209.44l62.72 -40.82c33.79,-117.44 84.65,-193.22 138.89,-288.61l470.07 -871.63c-129.06,12.79 -2012.53,1357.95 -2029.99,1425.04z"/>
   <path class="fil12" d="M1557.1 10680.48l789.72 468.18 -5.78 -105.5 -84.77 -196.46c-97.22,21.11 -109.14,-27.72 -216.01,-100.83 -103.63,-127.99 -1949.83,-1583.16 -2040.24,-1621.87 62.17,118.78 957.66,975.93 1170.19,1175.3 132.42,124.22 271.04,284.78 386.89,381.18z"/>
   <path class="fil12" d="M15842.15 10807.16l-105.88 47.41 -113.17 236.83c168.92,-0.94 196.94,-48.86 322.08,-127.52 105.57,-66.36 202.14,-120.58 328.97,-172.73 46.86,-75.21 47.53,-45.96 112.7,-105.22 49.5,-72.69 264.26,-262.18 356.97,-357.8 371.83,-383.43 770.85,-720.08 1139.16,-1140.87 -96.34,33.82 -1941.85,1485.92 -2040.83,1619.9z"/>
   <path class="fil12" d="M5831.07 13698.26c619.3,27.03 563.11,-41.23 673.2,-313.56 34.78,-86.03 -19.98,-5.97 39.04,-74.93 -77.39,-45.8 -156.15,-63.6 -243.31,-95.65 -86.69,-31.89 -135.97,-52.62 -236.58,-71.57l-166.33 12.53c-4.66,121.9 -35.36,161.66 -35.94,290.76 -0.71,157.28 48.35,178.15 69.6,249l-99.68 3.42z"/>
   <path class="fil12" d="M11405.75 13303.07c148.28,-2.61 55.85,51.55 126.08,200.72 36.66,77.85 83.24,122.64 183.76,138.12l147.46 2.52c73.1,-112.9 120.77,-39.69 153.98,-396.05l-160.66 -95.43 -450.62 150.12z"/>
   <path class="fil12" d="M11171.69 12639.38c-3.3,168.88 -13.81,49.12 53.67,93.3l276.81 -356.7c180.99,-197.2 129.51,-203.93 187.73,-439.02 -47.81,-49.12 18.22,-18.49 -76.85,-15.95l-441.36 718.37z"/>
   <path class="fil13" d="M13422.55 11115.77l-519.01 403.01c-73.71,133.62 -375.8,387 -509.62,512.59 -70.48,66.14 -74.53,94.24 -199.47,106.24l9.67 -141.01c-103.42,48.46 -163.74,147.35 -248.26,232.08 -131.63,131.98 -75.07,176.13 -312.28,173.12l5.61 -161.74c-41.44,57.56 -78.52,136.46 -87.59,197.1 -28.23,188.5 20.29,118.49 58.12,253.87 -13.88,219.57 -159.58,111.12 -100.91,217.22 115.19,-18.93 2184.12,-1166.57 2235.75,-1229.49 82.22,-154.03 -7.39,69.8 -15.45,-225.45 -25.49,-1.73 -69.31,-3.23 -93.07,-8.29 -62.52,-13.33 -43.46,-14.06 -82.33,-35.58l73.93 -137.72c104.07,-119.05 162.02,-250.74 262.98,-365.51 56.79,-64.56 108.78,-115.22 164.37,-165.84 84.28,-76.77 93.27,-42.8 156.55,-151.2l-24.25 2.26c-109.51,162.86 -672.54,489.43 -774.74,524.34z"/>
   <path class="fil13" d="M12143.81 13047.49l94 30.46c-6.91,34.68 -19.73,70.3 -13.77,105.94 11.83,70.68 15.83,53.44 38.19,88.39 3.53,-162.97 -6.27,-55.11 34.25,-91.59l107.58 45.36 122.74 17.17c6.45,-203.73 -25.58,-251.7 2.03,-323.45l-385.02 127.72z"/>
   <path class="fil14" d="M3235.85 18386.25c146.44,14.66 312.06,13.9 430.26,-21.58 49.76,-178.82 55.39,-3241.55 16.39,-3561.08 -131.7,-93.7 -218.89,-84.51 -437.09,-61.88 -62.82,156.54 -69.66,3417.75 -9.56,3644.54z"/>
   <path class="fil14" d="M8788 17302.6l137.14 16.55 272.46 -6.43c32.03,-218.32 -47.63,-2287.62 -103.62,-2423.65l-197.31 -8.61 -108.67 2422.14z"/>
   <polygon class="fil14" points="14107.58,17304.21 14285.24,17318.8 14352.82,17316.63 14520,17310.38 14436.72,14878.73 14220.1,14880.15 "/>
   <path class="fil14" d="M6403.37 16430.12c1.64,-28.39 48.08,-66.37 48.44,-198.26 1.84,-1493.09 124.9,-1533.82 -421.06,-1466.46 -32.21,423.26 -38.51,1327.05 15.74,1685.33l356.88 -20.61z"/>
   <path class="fil14" d="M9093.98 13038.29c102.24,-47.98 85.73,33.82 84.1,-180.75l-18.25 -496.95c-4.74,-131.56 24.23,-145.17 -65.85,-182.13l-48.66 743.66c20.29,132.41 13.6,66.76 48.66,116.17z"/>
   <path class="fil14" d="M13583.93 20256.25l-203.09 -27.22c-236.33,385.43 380.04,418.58 203.09,27.22z"/>
   <path class="fil14" d="M9363.66 10267.19c-80.13,54.74 -50.69,138.78 -57.14,260.02 -7.36,138.4 -53.57,209.65 57.14,248.75 65.66,-96.66 36.35,-390.83 0,-508.77z"/>
   <path class="fil15" d="M3734.17 11374.32c194.62,216.99 1255.2,758.71 1635.9,972.05 278.29,155.94 554.05,306.16 839.28,462.53 232.69,127.58 662.14,398.68 882.97,468.05 -51.64,-269.94 -267.34,-384.61 -334.33,-677.59 -76.63,-62.26 -226.53,-336.55 -300.06,-455.17 -108.6,-175.2 -177.17,-290.59 -296.76,-462.72 -4.33,6.4 -8.26,10.18 -9.07,21.2l-17.62 96.35c-0.22,40.19 15.69,118.03 21.26,164.34l71.58 347.87c-179.88,-17.99 -287.62,-148.59 -484.89,-358.6 -62.49,-66.53 -122.48,-137.04 -196.45,-203.97 -100.75,-91.18 -132.61,-160.78 -232.61,-225.27 12.49,157.41 25.08,89.93 48.95,194.91 -282.66,-167.37 -777.99,-587.69 -1082.95,-747.54 -103.09,-56.26 -224.05,-129.25 -317.25,-202.21l-295.37 -238.73 -140.21 -125.47 -758.01 -522.11c33.81,114.88 51.15,112.24 134.91,174.6 -36.27,160.66 -39.96,55.5 -64.62,175.27 148.15,86.29 445.56,400.91 605.22,543.86 125.29,112.17 180.85,187.89 306.58,289.95 151.11,122.66 258.44,130.45 273.53,366.35 -172.68,-7.15 -142.39,-19.89 -289.98,-57.95z"/>
   <path class="fil15" d="M11613.05 11921.01c95.07,-2.54 29.04,-33.17 76.85,15.95 -58.22,235.09 -6.74,241.82 -187.73,439.02l-276.81 356.7c-67.48,-44.18 -56.97,75.58 -53.67,-93.3l-40.73 11.38c-58.19,198.55 -87.08,188.68 -179.59,365.1 -31.42,59.9 -63.66,116.48 -101.45,168.36 -52.73,72.43 -76.64,90.84 -100.09,198.57 162.48,-104.53 699.54,-395.58 768.98,-474.54 -58.67,-106.1 87.03,2.35 100.91,-217.22 -37.83,-135.38 -86.35,-65.37 -58.12,-253.87 9.07,-60.64 46.15,-139.54 87.59,-197.1 3.39,-72.27 -17.69,-57.37 50.34,-57.37l34.88 -173.63c5.17,-140.3 41.41,-172.42 -11.01,-264.2l-110.35 176.15z"/>
   <path class="fil15" d="M14299.68 10522.27l-78.14 66.9c-63.28,108.4 -72.27,74.43 -156.55,151.2 -55.59,50.62 -107.58,101.28 -164.37,165.84 -100.96,114.77 -158.91,246.46 -262.98,365.51 -20.34,216.42 -13.46,59.5 40.97,116.82 194.33,-94.92 508.32,-270.57 655.09,-392.73 5.76,-145.91 -25.95,-42.37 51.52,-142.07 147.2,-189.43 88.49,-106.7 135.98,-464.3 -123.25,50.42 -121.18,54.26 -221.52,132.83z"/>
   <path class="fil15" d="M11856.37 13152.95l160.66 95.43c-33.21,356.36 -80.88,283.15 -153.98,396.05l-147.46 -2.52c168.18,139.33 422.77,46.87 576.53,-36.04l-29.89 -333.59c-22.36,-34.95 -26.36,-17.71 -38.19,-88.39 -5.96,-35.64 6.86,-71.26 13.77,-105.94l-94 -30.46c-122.45,21.99 -199.75,41.11 -287.44,105.46z"/>
   <path class="fil15" d="M12204.12 11996.6l-9.67 141.01c124.94,-12 128.99,-40.1 199.47,-106.24 133.82,-125.59 435.91,-378.97 509.62,-512.59l-317.55 209.14c-86.16,61.49 -55.19,41.74 -60.7,51.9 28.83,-117.03 58.91,-135.98 79.69,-252.19 -85.77,49.39 -72.01,43.82 -138.54,116.25 -45.01,49 -55.91,62.2 -97.63,103.05 -89.29,87.42 -102.13,132.62 -164.69,249.67z"/>
   <path class="fil16" d="M7071.34 18613.49c166.53,-41.86 141.67,170.8 101.14,231.16 -171.71,-66.08 44.74,-46.68 -156.51,-96.56l66.48 -89.38c-1.93,-2.24 -8.51,-11.25 -10,-13.59 -2.93,-4.59 5.61,-22.88 -1.11,-31.63zm-1516.96 -463.03l95.22 30.68c-0.64,93.21 5.81,20.42 -51.24,149.9 73.97,-11.91 161.16,-56.65 162.74,33.83 2.15,121.75 -2.2,33.39 -38.17,96.25l-108.7 -65.06c-6.5,-5.4 -11.64,-13.98 -17.99,-19.3l-76.32 -50.21c-6.28,-2.97 -17.45,-6.11 -23.32,-8.65l-47.38 -20.55c269.55,-122.56 -43.57,-49.9 105.16,-146.89zm848.99 -1720.34l-356.88 20.61c-54.25,-358.28 -47.95,-1262.07 -15.74,-1685.33 545.96,-67.36 422.9,-26.63 421.06,1466.46 -0.36,131.89 -46.8,169.87 -48.44,198.26zm405.61 -17.29c-6.66,1.64 -17.08,-0.99 -19.88,5.25l-95.23 -25.32c29.09,-70.42 -6.4,-10.19 33.85,-67.96 45.73,-65.65 22.18,-25.35 43.25,-48.9l84.43 -61.25c-57.08,-90.41 -41.07,19.55 -149.22,-72.09 38.25,-162.37 312.63,-95 265.06,122.09 -102.02,53.17 -45.35,60.32 -99.55,-33.32 -7.37,144.63 -26.63,68.6 21.66,162.06l-84.37 19.44zm-1086.05 -2032.63c68.13,35.01 43.33,35.36 136.61,37.28 -115.28,249.97 -33.41,86.4 -31.1,274.66 -116.79,34.19 -202.36,42.22 -248.39,-57.98 -69.46,-151.16 45.73,0.74 4.61,-183.49 203.28,7.12 89.44,30.46 138.27,-70.47zm-3466.66 -3533.5l84.77 196.46 159.04 398.63 -640.27 -278.69 -476.97 -192.31c-5.15,-2.85 -17.95,-4.33 -21.6,-15.13 -3.71,-10.98 -14.94,-9.94 -21.48,-15.99 -281.25,-32.11 -584.54,-234.2 -943.67,-248.81 110.13,137.89 1004.34,707.47 1236.83,863.07l1283.84 827.51c4.42,3.85 13.12,11.77 19.02,18.27l-1745.04 -56.8c129.8,232.79 2453.22,808.03 2608.9,875.61l773.86 623.71c680.57,481.43 703.31,261.14 703.32,1340.5l-5.02 3403.79c-30.49,198.8 -190.83,278.88 -190.43,499.74 208.91,25.8 337.29,-31.01 540.52,-38.25 218.16,-7.75 366.16,62.19 577.47,42.57 6.13,-347.98 -164.32,-64.01 -163.58,-858.78 0.28,-303.63 -26.42,-745.13 9.45,-1031.74 742.15,-184.34 112.04,1472.13 630.86,1809.68 141.5,92.06 492.38,137.36 693.9,74.47 119.17,-116.74 173,-577.92 127.55,-773.76 -172.67,-13.85 -100.65,64.59 -328.28,57.15 -68.86,-381.29 -37.43,-1165.18 -128.54,-1349.39 -92.93,-187.91 -184.53,-123.94 -261.04,-261.77 404.05,-369.27 429.11,-101.43 428.9,-1180.29 -0.06,-295.95 24.78,-866.1 -44.21,-1138.61 -37.65,-148.74 -99.91,-186.33 -135.34,-303.95 175.06,-99.81 441.49,-207.47 461.91,-374.73 -245.35,-36.71 -1368.55,600.1 -2349.09,87.06 -279.22,-146.1 -1363.07,-1117.58 -1426.08,-1368.82 315.72,-35.22 997.8,231.03 1305.74,300.22l130.25 47.22 402.25 123.28 509.41 194.73c100.61,18.95 149.89,39.68 236.58,71.57 87.16,32.05 165.92,49.85 243.31,95.65l870.89 332 -103.69 -162.08c-78.19,-58.1 -147.82,-122.15 -218.19,-202.74 -220.83,-69.37 -650.28,-340.47 -882.97,-468.05 -285.23,-156.37 -560.99,-306.59 -839.28,-462.53 -380.7,-213.34 -1441.28,-755.06 -1635.9,-972.05l-355.04 -251.56c-170.49,-71.89 -274.02,-177.12 -428,-293.18 -100.57,-75.8 -332.74,-223.66 -390.14,-316.01 -170.56,-66.3 -370.26,-293.17 -561.95,-388.83 -19.8,108.2 204.14,543.03 257.23,721.96z"/>
   <path class="fil16" d="M11235.88 18459.99c1.15,-17.53 10.56,-19.47 15.57,-29.34 6.23,9.88 12.81,21.95 17.2,30.47l39.62 82.13c10.92,22.14 40.39,71.46 47.73,81.96l-96.2 105.94 -153.87 -73.16 119.69 -65.57 10.26 -132.43zm4643.63 -8294.53l-529.62 399.62 -77.26 62.01c-122.48,113.81 -368.39,283.42 -517.35,389.53 -179.12,127.6 -321.23,273.28 -532.63,365.49 -64.75,103.12 -317.99,232.39 -468.09,296.65 -51.63,62.92 -2120.56,1210.56 -2235.75,1229.49 -69.44,78.96 -606.5,370.01 -768.98,474.54 -56.07,81.75 -48.58,97.11 -153.48,149.38 -37.66,113.61 -4.76,52.47 14.6,77.44l794.8 -306.54 450.62 -150.12c87.69,-64.35 164.99,-83.47 287.44,-105.46l385.02 -127.72 443.57 -149.25c373.99,-91.53 911.49,-328.71 1311.68,-316.18 -105.17,288.18 -1136.72,1213.72 -1429.53,1368.97 -537.24,284.86 -1167.26,240.86 -1766.24,72.39 -189.87,-53.4 -374.9,-158.97 -590.58,-169.71 62.4,241.76 286.8,268.62 511.99,407.6 -136.4,174.17 -248.6,194.04 -318.69,599.78 -74.75,432.75 -44.4,2204.62 -44.42,2711.56 -0.03,1136.22 -15.14,1783.4 1121.27,1620.48 339.56,-48.68 634.9,64.7 892.97,17.51 12.97,-236.29 -38.44,-529.13 -40.27,-785.57 -5.81,-807.85 61.7,-1753.82 43.65,-2490.72l-969.21 -73.94c-22.74,241.77 162.43,304.34 194.3,502.06 26.6,165.04 5.27,532.35 5.27,718.39 0,249.16 47.68,1265.51 -36.35,1411.38 -119.06,39.95 -293.19,48.2 -404.53,3.26 -92.91,-74.68 -48.56,-2289.48 -48.44,-2693.27 0.08,-253.48 -70.97,-702.56 38.83,-896.71 112.26,-74.22 413.35,-58.2 572,-9.9 200.54,61.05 269.66,193.44 482.64,214.16 88.36,-142.49 88.18,-547.14 110.8,-741.79 545.8,-179.79 1000.55,-523.72 1377.99,-888.14 188.86,-182.35 207.51,-159.77 525.96,-244.35 465.06,-123.52 2063.46,-553.62 2301.14,-775.13l-1798.99 58.21c217.6,-86.68 2454.03,-1574.22 2598.28,-1724.26 -339.47,17.55 -620.74,179.05 -916.04,240.25l-909.37 396.4 -299.71 110.42 134.3 -322.27 113.17 -236.83c43.47,-266.49 233.16,-515.41 229.68,-655.7 -2.36,-95.28 43.89,-25.44 -23.72,-74.23l-62.72 40.82z"/>
   <path class="fil16" d="M3731.95 18690.78c53.94,-63.22 -11.85,-10.33 70.63,-57.81 127.52,-73.41 126.05,-68.45 228.08,-71.97 -10.22,280.23 -129.92,197.67 -298.71,129.78zm-496.1 -304.53c-60.1,-226.79 -53.26,-3488 9.56,-3644.54 218.2,-22.63 305.39,-31.82 437.09,61.88 39,319.53 33.37,3382.26 -16.39,3561.08 -118.2,35.48 -283.82,36.24 -430.26,21.58zm-347.11 -3783.28c-108.08,-93.83 -25.23,-14.56 -58.3,-104.56 -2.33,-6.32 -34.03,-63.5 -34.77,-75.22l161.28 38.26 -68.21 141.52zm-576.33 4486.53c374.69,33.83 687.62,-71.89 1127.7,-16.4 444,56 731.34,25.69 880.27,-305.88 171.72,-382.32 108.42,-1687.39 108.3,-2207.5 -0.12,-514.34 60.81,-1822.93 -111.01,-2205.05 -248.55,-552.76 -881.3,-221.21 -1427.56,-278.47 -208.47,-21.86 -346.95,-59.34 -572.1,-38.29 -21.94,221.06 144,278.56 184.12,470.04l5.08 4076.8c-31.97,219.1 -198.87,258.39 -194.8,504.75z"/>
   <path class="fil16" d="M13505.03 18589.48c4.75,-5.78 55.19,-25.94 65.67,-29.85 -58.99,-73.28 -64.89,-52.09 -26.93,-151.87 35.35,50.22 13.09,68.53 101.13,120.16 103.01,-109.11 1.37,-94.15 141.47,-146.11l71.27 79.47c-82.73,141.63 5.84,14.38 -103.61,77.12 -197.1,112.99 -16.09,185.96 -274.37,119.43l12.03 -49.39c2.87,-4.49 10.01,-14.9 13.34,-18.96zm1087.39 -784.07c-30.53,-98.46 -15.71,-98.5 51.74,-176.02l45.77 -51.09c146.94,107.74 67.77,-22.06 134.67,161.54 -83.33,24.94 -146.62,61.11 -232.18,65.57zm-372.32 -2925.26l216.62 -1.42 83.28 2431.65 -167.18 6.25 -67.58 2.17 -177.66 -14.59 112.52 -2424.06zm164.38 -369.24c81.94,-64.05 81.35,-26.7 167,-69.02l-136.58 -78.8 106.47 -60.11 168.24 257.45 -238.4 -33.41c55.69,159.76 63.02,71.24 -28.92,89.96 -69.45,-66.87 -25.12,11.79 -37.81,-106.07zm-1324.65 4584.8c223.94,10.73 342.26,-51.03 551.36,-48.36 221.46,2.84 306.42,65.61 547.34,44.92 15.63,-255.41 -96.26,-289.41 -129.91,-474.52 -31.19,-171.64 -80,-535.38 124.6,-574.05l301.84 -3.83c96.44,10.48 -24.96,-10.83 57.96,9.3 171.89,41.74 131.85,414.87 101.88,570.39 -36.08,187.28 -144.07,213.92 -131.36,471.12 233.2,25.64 335.4,-38.75 543.34,-43.03 213.16,-4.39 370.11,86.49 560.92,28.39 2.84,-223.06 -157.2,-295.67 -224.41,-447.63 -73.79,-166.82 -291.72,-3529.1 -304.58,-4004.59 -9.01,-333.22 160.11,-311.81 144.32,-591.36 -318.53,-23.33 -589.11,51.84 -883.24,51.34 -304.85,-0.52 -570.28,-79.29 -879.95,-49.28 -10.28,259.6 144.39,274.62 144.33,556.14l-282.53 3992.51c-57,181.61 -243.32,236.76 -241.91,512.54z"/>
   <path class="fil16" d="M8256.29 18559.63c-62.41,-59.48 -89.16,36.93 -40.68,-122.09 35.94,-117.89 18.53,-33.92 69.32,-54.57 7.73,63.85 -133.85,-38.53 33.71,148.34 71.04,-127.9 70.05,-260.28 219.1,-70.03 -96.2,150.82 -27.8,10.46 -154.61,102.21 -119.61,86.55 37,29.82 -89.74,110.2 -107.12,67.94 -225.57,-49.26 -37.1,-114.06zm640.38 -3679.17l197.31 8.61c55.99,136.03 135.65,2205.33 103.62,2423.65l-272.46 6.43 -137.14 -16.55 108.67 -2422.14zm159.42 -320.66c53.13,-128.35 -10.57,-52.77 173.49,-117.42l-134.78 -79.29c6.08,-4.21 15.16,-10.4 18.22,-12.64l65.66 -51.19c101.87,86.43 -1.45,-15.39 52.89,63.06l131.27 200.44 -212.53 15.13c-21.05,75.93 22.13,-9.88 -22.62,49.35 -65.95,-34.12 -38.22,-13.03 -71.6,-67.44zm-1317.82 4532.72c225.03,18.42 331.94,-47.14 546.94,-45.25 211.26,1.87 315.63,63.04 549.54,46.8 18.33,-288.15 -272.07,-635.97 -85.38,-1035.06 79.99,-24.54 139.47,-20.16 243.31,-20.78 77.43,-0.46 225.62,-6.35 266.42,36.81 59.7,104.46 65.69,404.46 36.51,546.01 -39.66,192.37 -144.18,200.5 -129.51,463.36 222.77,43.17 320.48,-31.53 534.25,-36.7 221.38,-5.35 360.55,83.08 565.68,31.15 2.76,-216.13 -161.77,-308.42 -227.69,-455.82 -63.99,-143.07 -153.39,-1754.48 -173.48,-1991.9l-128.96 -2039.22c-2.15,-286.71 163.37,-314.82 152.24,-541.99 -249.4,-73.1 -593.45,30.25 -861.62,33.49 -305.42,3.68 -600.77,-91.74 -906.82,-43.87 -10.92,246.43 146.03,268.02 148.38,551.34l-128.83 2014.89c-11.18,195.97 -117.44,1842.42 -161.27,1978.32 -57.16,177.23 -245.16,250.03 -239.71,508.42z"/>
   <path class="fil16" d="M13095.34 9207.39c-62.78,-107.2 6.24,-68.05 -90.94,-157.91 -207.93,10.38 -378.33,385.78 -571.84,693.05 -84.08,133.51 -148.95,247.43 -240.11,387.37 -46.28,71.04 -81.04,121.76 -117.96,181.5 -63.99,103.54 -71.97,134.03 -149.88,192.5 10.29,-180.19 97.83,-433.29 1.05,-576.23 -141.44,34.61 -81.28,35.21 -223.53,316.8l-519.74 1073.21c-3.67,-7.32 -6.99,-27.72 -7.6,-23.31l-4.44 -425.51c-273.85,3.75 -473.75,1065.04 -472.74,1085.84 63.76,-134.5 118.07,-368.05 166.76,-519.73 46.41,-144.6 134.01,-398.56 261.32,-490.1 2.77,318.25 -123.09,583.63 -158.24,879.65 117.96,-88.85 339.85,-591 418.14,-738.55l358.02 -674.21c36.52,-45.39 17.4,-25.36 56.98,-58.01l-121.21 767.93c109.74,-90.97 205.95,-268.63 287.6,-391.24l808.37 -1190.42 -53.92 279.79c130.91,-61.21 189.74,-159.3 306.03,-286.39l887.12 -881.25 57.68 111.23c1.97,4.01 5.77,13.73 9.74,20.02 366.98,-277.54 715.3,-645.68 1112.45,-911.43l18.9 67.26c1.31,4.14 5.88,16.55 7.06,20.16 1.26,3.86 4.37,14.7 7.75,21.57 394.57,24.66 638.12,47.26 936.96,225.04 259.39,154.31 488.62,379.04 719.61,487.13 -135.64,-186.77 -668.89,-622.42 -969.64,-732.09 -138.12,-50.36 -326.79,-63.46 -455.39,-122.29 31.37,-87.19 236.08,-338.09 -50.26,-293.29 -171.46,26.83 -868.71,607.56 -1000.13,712.11 -322.66,256.67 -47.71,-259.24 -649.73,349.24 -169.56,171.38 -469.78,438.21 -564.24,600.56z"/>
   <path class="fil16" d="M2679.42 7762.72c-414.6,50.54 -601.84,128.74 -873.78,331.32 -85.75,63.89 -590.97,492.47 -612.51,543.41 490.06,-221.03 547.33,-669.08 1698.11,-754.46 3.94,-6.82 7.21,-27.05 7.94,-22.17l11.99 -41.56c4.17,-23.66 -9.41,-13.73 3.12,-66.1 183.75,165.57 393.06,297.16 569.51,460.1 163.06,150.57 423.2,329.44 545.78,480.45 58.47,-71.15 28.51,-84.25 71.7,-159.05l1212.84 1206.49 -93.63 -355.71 809.36 1203.3c52.9,82.29 90.9,131.56 133.76,197.64 60.84,93.8 77.32,148.19 174.77,214.6l-128.43 -752.28c59.84,14.63 120.69,141.95 144.23,189.04l736.46 1391 -189.17 -847.83c5.26,-158.25 -18.81,-60.28 47.66,-138.76 157.77,353.7 254.27,621.74 372.45,1015.42 5.34,-44.76 -182.55,-1035.8 -455.72,-1097.91 -55.99,153.24 -1.9,275.58 3.01,455.51 -245.48,-294.22 -573.26,-1344.63 -775.12,-1381.64 -87.24,147.4 -2.05,392.7 3.11,567.65 -225.46,-202.29 -821.55,-1367.7 -970.97,-1431.22 -139.57,-59.32 -141.38,41.08 -214.66,116.2 -149.2,-194.75 -290.25,-307.55 -488.98,-506.72 -557.51,-558.73 -365.51,-316.46 -582.4,-341.91 -134.67,-15.8 -889.95,-837.11 -1243.18,-780.78 -64.51,205.89 42.84,135.79 82.75,305.97z"/>
   <path class="fil16" d="M9363.66 10267.19c36.35,117.94 65.66,412.11 0,508.77 -110.71,-39.1 -64.5,-110.35 -57.14,-248.75 6.45,-121.24 -22.99,-205.28 57.14,-260.02zm-380 1021.72l321.41 -1.27c-21.65,-118.7 -75.62,-177.08 -8.83,-288.67l101.14 -2.87c58.41,113.8 10.72,175.33 -6.98,292.14l315.49 -1.92c-88.97,-382.34 -58.96,-71.03 -107.12,-627.22 -21.9,-252.88 -15.09,-418.86 -11.18,-644.46l-484.16 -1.98c17.76,249.3 12.58,380.92 -10.77,646.22 -41.81,474.91 -1.92,225.45 -109,630.03z"/>
   <path class="fil16" d="M8412.16 11287.57l504.49 -4.36 13.45 -305.28c-183.17,46.74 -58.79,79.44 -236.74,99.73l-12.8 -945.4c5.44,-141.77 39.39,-178.76 38.01,-283.55l-292.56 5.07 35.72 706.19c-0.14,288.45 18.28,466.86 -49.57,727.6z"/>
   <path class="fil17" d="M11734.41 12009.06l-34.88 173.63 -5.01 147.32c62.14,-6.93 697.49,-379.45 474.14,-904.51l-434.25 583.56z"/>
   <path class="fil18" d="M12528.83 12919.77c-27.61,71.75 4.42,119.72 -2.03,323.45l-122.74 -17.17 324.2 186.09c159.88,-144.62 249.59,-372.91 244.14,-641.62l-443.57 149.25z"/>
   <path class="fil19" d="M15349.89 10565.08l529.62 -399.62c3.83,-108.55 34.06,-94.38 65.83,-209.44 -102.18,32.98 -406.42,214.77 -471.28,276.95 -7.76,-4 -17.91,-20.99 -21.87,-14.3l-102.33 -41.92c-9.29,-2.34 -23.09,-3.3 -30.98,-4.96 -8.15,-1.71 -21.39,-3.48 -32.19,-3.65 3.47,8.92 13.39,10.21 16.22,23.87 13.9,67.1 78.32,33.23 76.59,171.96 -1.34,106.91 -50.56,125.71 -29.61,201.11z"/>
   <path class="fil20" d="M6426.07 20462.92c-5.4,-56.75 19.78,-17.58 -14.48,-81.42 -25.25,-47.03 -20.91,-27.68 -48.16,-51.62 -74.38,86.08 -108.19,126.4 62.64,133.04z"/>
  </g>
 </g>
</svg>
