<?xml version="1.0" encoding="UTF-8"?>
<!DOCTYPE svg PUBLIC "-//W3C//DTD SVG 1.1//EN" "http://www.w3.org/Graphics/SVG/1.1/DTD/svg11.dtd">
<!-- Creator: CorelDRAW 2017 -->
<svg xmlns="http://www.w3.org/2000/svg" xml:space="preserve" width="215.9mm" height="279.4mm" version="1.1" style="shape-rendering:geometricPrecision; text-rendering:geometricPrecision; image-rendering:optimizeQuality; fill-rule:evenodd; clip-rule:evenodd"
viewBox="0 0 21590 27940"
 xmlns:xlink="http://www.w3.org/1999/xlink">
 <defs>
  <style type="text/css">
   <![CDATA[
    .fil2 {fill:#FEFEFE}
    .fil0 {fill:#EC268F}
    .fil3 {fill:#FEFEFE;fill-rule:nonzero}
    .fil1 {fill:#FEFEFE;fill-rule:nonzero}
   ]]>
  </style>
 </defs>
 <g id="Capa_x0020_1">
  <metadata id="CorelCorpID_0Corel-Layer"/>
  <rect class="fil0" x="9982.19" y="13157.18" width="1625.61" height="1625.6"/>
  <g id="_2207773031552">
   <g>
    <path class="fil1" d="M10419.89 13941.65l-127.57 73.99 -5.02 -8.66 127.57 -73.99 7.22 2.66 -2.2 6zm-5.02 -8.66c2.39,-1.38 5.46,-0.57 6.84,1.82 1.38,2.39 0.57,5.46 -1.82,6.84l-5.02 -8.66zm91.53 341.83l-3.74 -9.28 0 0 7.86 -3.91 6.4 -4.75 5.11 -5.53 3.95 -6.33 2.89 -7.15 1.87 -7.99 0.87 -8.78 -0.08 -9.52 -1 -10.19 -1.84 -10.77 -2.65 -11.29 -3.37 -11.74 -4.03 -12.1 -4.63 -12.41 -5.14 -12.65 -5.58 -12.81 -5.96 -12.94 -6.26 -12.98 -6.48 -12.96 -6.64 -12.89 -6.71 -12.74 -6.72 -12.55 -6.66 -12.28 -6.52 -11.98 -6.31 -11.57 -6.04 -11.15 -5.68 -10.66 -5.26 -10.09 -4.76 -9.49 -4.2 -8.83 -3.56 -8.13 -2.86 -7.39 9.42 -3.34 2.68 6.91 3.42 7.79 4.08 8.59 4.68 9.33 5.2 9.99 5.64 10.58 6.02 11.11 6.31 11.57 6.52 11.98 6.68 12.32 6.76 12.59 6.75 12.82 6.68 12.99 6.54 13.08 6.32 13.12 6.04 13.1 5.68 13.03 5.24 12.91 4.73 12.71 4.15 12.46 3.51 12.16 2.77 11.83 1.96 11.43 1.06 10.99 0.1 10.5 -1.01 9.96 -2.19 9.37 -3.51 8.69 -4.93 7.87 -6.39 6.91 -7.86 5.83 -9.32 4.65 0 0zm0 0c-2.56,1.03 -5.48,-0.21 -6.51,-2.77 -1.03,-2.56 0.21,-5.48 2.77,-6.51l3.74 9.28zm-135.4 -105.48l8.56 -5.18 0 0 2.71 4.58 2.7 4.76 2.7 4.9 2.72 5.04 2.75 5.15 2.78 5.2 2.82 5.26 2.87 5.28 2.93 5.26 3 5.22 3.05 5.16 3.15 5.05 3.23 4.94 3.31 4.79 3.41 4.59 3.52 4.4 3.61 4.15 3.73 3.88 3.84 3.6 3.95 3.28 4.07 2.94 4.21 2.58 4.33 2.21 4.47 1.8 4.64 1.39 4.81 0.95 5.02 0.51 5.23 0.01 5.48 -0.51 5.74 -1.06 6.01 -1.65 6.31 -2.28 3.74 9.28 -7.01 2.52 -6.81 1.87 -6.6 1.22 -6.4 0.59 -6.19 -0.01 -5.98 -0.59 -5.75 -1.15 -5.54 -1.65 -5.31 -2.14 -5.09 -2.59 -4.85 -2.98 -4.65 -3.36 -4.45 -3.68 -4.26 -3.98 -4.07 -4.26 -3.91 -4.49 -3.76 -4.7 -3.61 -4.87 -3.49 -5.03 -3.37 -5.14 -3.25 -5.25 -3.15 -5.3 -3.06 -5.34 -2.99 -5.36 -2.91 -5.34 -2.84 -5.3 -2.78 -5.22 -2.73 -5.11 -2.7 -4.98 -2.66 -4.82 -2.62 -4.64 -2.61 -4.4 0 0zm0 0c-1.43,-2.36 -0.67,-5.44 1.69,-6.87 2.36,-1.43 5.44,-0.67 6.87,1.69l-8.56 5.18zm-83.7 -162.36l5.02 8.66 2.04 -6.41 2.07 4.5 2.14 4.55 2.2 4.61 2.27 4.66 2.33 4.71 2.38 4.76 2.43 4.8 2.49 4.82 2.54 4.87 2.57 4.91 2.62 4.92 2.66 4.94 2.69 4.97 2.73 4.98 2.75 5 2.78 4.99 2.81 5 2.82 5.01 2.84 5 2.85 4.98 2.86 4.98 2.87 4.97 2.89 4.95 2.88 4.92 2.87 4.9 2.87 4.86 2.87 4.84 2.85 4.8 2.85 4.75 2.83 4.71 2.8 4.66 2.79 4.61 -8.56 5.18 -2.79 -4.63 -2.82 -4.66 -2.83 -4.73 -2.85 -4.77 -2.87 -4.82 -2.87 -4.84 -2.89 -4.88 -2.89 -4.92 -2.88 -4.94 -2.89 -4.97 -2.89 -4.99 -2.88 -5 -2.87 -5.02 -2.84 -5.02 -2.84 -5.03 -2.81 -5.02 -2.8 -5.03 -2.77 -5.02 -2.75 -5.02 -2.71 -4.99 -2.68 -4.98 -2.64 -4.98 -2.59 -4.93 -2.56 -4.91 -2.51 -4.88 -2.45 -4.84 -2.42 -4.8 -2.35 -4.77 -2.29 -4.72 -2.24 -4.67 -2.16 -4.61 -2.11 -4.56 2.04 -6.41zm-2.04 6.41c-1.14,-2.51 -0.04,-5.49 2.47,-6.63 2.51,-1.14 5.49,-0.04 6.63,2.47l-9.1 4.16zm278.1 -153.69l-119.62 73.85 -5.26 -8.5 119.62 -73.85 6.2 0.75 -0.94 7.75zm-5.26 -8.5c2.34,-1.45 5.43,-0.72 6.88,1.62 1.45,2.34 0.72,5.43 -1.62,6.88l-5.26 -8.5zm94.56 162.23l-8.92 4.52 0 0 -2.46 -4.92 -2.44 -5.01 -2.41 -5.08 -2.4 -5.15 -2.37 -5.21 -2.37 -5.24 -2.37 -5.3 -2.36 -5.33 -2.36 -5.35 -2.38 -5.38 -2.39 -5.39 -2.39 -5.39 -2.43 -5.37 -2.45 -5.38 -2.48 -5.35 -2.51 -5.33 -2.54 -5.28 -2.6 -5.24 -2.63 -5.19 -2.69 -5.13 -2.74 -5.06 -2.8 -4.99 -2.87 -4.9 -2.92 -4.81 -2.99 -4.7 -3.08 -4.61 -3.14 -4.48 -3.23 -4.36 -3.3 -4.23 -3.41 -4.1 -3.49 -3.95 -3.58 -3.79 7.14 -7 3.82 4.05 3.71 4.19 3.59 4.32 3.48 4.45 3.39 4.58 3.28 4.68 3.2 4.79 3.11 4.88 3.02 4.97 2.95 5.06 2.88 5.13 2.8 5.18 2.75 5.25 2.69 5.29 2.64 5.34 2.58 5.36 2.55 5.39 2.5 5.41 2.47 5.42 2.45 5.43 2.41 5.41 2.39 5.41 2.38 5.38 2.36 5.35 2.36 5.31 2.35 5.26 2.35 5.22 2.35 5.15 2.36 5.07 2.39 5 2.38 4.93 2.42 4.82 0 0zm0 0c1.24,2.46 0.26,5.48 -2.2,6.72 -2.46,1.24 -5.48,0.26 -6.72,-2.2l8.92 -4.52zm9.74 171.93l-4.86 -8.74 0 0 5.59 -3.4 4.92 -3.58 4.26 -3.73 3.65 -3.86 3.09 -4.01 2.56 -4.14 2.07 -4.28 1.6 -4.41 1.18 -4.57 0.77 -4.7 0.36 -4.84 -0.01 -5 -0.35 -5.11 -0.7 -5.23 -1.03 -5.33 -1.3 -5.42 -1.59 -5.48 -1.82 -5.54 -2.06 -5.59 -2.24 -5.61 -2.42 -5.63 -2.56 -5.63 -2.69 -5.61 -2.77 -5.59 -2.83 -5.56 -2.87 -5.5 -2.89 -5.44 -2.88 -5.37 -2.84 -5.28 -2.77 -5.19 -2.67 -5.07 -2.56 -4.97 8.92 -4.52 2.5 4.87 2.65 5.01 2.75 5.15 2.84 5.28 2.88 5.39 2.91 5.48 2.91 5.58 2.89 5.64 2.83 5.71 2.75 5.77 2.64 5.81 2.52 5.83 2.34 5.87 2.16 5.87 1.94 5.88 1.69 5.88 1.42 5.86 1.11 5.85 0.78 5.81 0.41 5.77 0.01 5.72 -0.44 5.66 -0.91 5.58 -1.4 5.47 -1.96 5.35 -2.51 5.2 -3.1 5.02 -3.71 4.81 -4.33 4.58 -4.96 4.33 -5.6 4.08 -6.27 3.82 0 0zm0 0c-2.41,1.34 -5.46,0.47 -6.8,-1.94 -1.34,-2.41 -0.47,-5.46 1.94,-6.8l4.86 8.74zm-135.82 -90.33l8.76 -4.84 0 0 2.45 4.48 2.49 4.64 2.54 4.76 2.61 4.87 2.66 4.95 2.73 4.99 2.8 5.01 2.88 5.01 2.94 4.97 3.04 4.89 3.13 4.81 3.22 4.69 3.31 4.54 3.41 4.36 3.5 4.15 3.6 3.91 3.7 3.66 3.81 3.36 3.9 3.05 4 2.72 4.11 2.37 4.22 1.98 4.33 1.59 4.46 1.18 4.6 0.75 4.77 0.29 4.94 -0.18 5.15 -0.71 5.37 -1.24 5.6 -1.84 5.84 -2.46 6.09 -3.12 4.86 8.74 -6.71 3.44 -6.56 2.76 -6.42 2.1 -6.25 1.46 -6.09 0.83 -5.94 0.22 -5.75 -0.35 -5.58 -0.91 -5.38 -1.42 -5.19 -1.91 -4.98 -2.34 -4.79 -2.75 -4.6 -3.12 -4.4 -3.45 -4.23 -3.74 -4.08 -4.02 -3.9 -4.25 -3.76 -4.45 -3.63 -4.64 -3.49 -4.78 -3.38 -4.91 -3.25 -5.01 -3.14 -5.07 -3.04 -5.11 -2.94 -5.11 -2.86 -5.11 -2.77 -5.07 -2.68 -4.99 -2.61 -4.87 -2.54 -4.76 -2.47 -4.6 -2.41 -4.4 0 0zm0 0c-1.33,-2.41 -0.45,-5.47 1.96,-6.8 2.41,-1.33 5.47,-0.45 6.8,1.96l-8.76 4.84zm-88.1 -169.98l5.26 8.5 2 -6.14 1.97 4.73 2.09 4.78 2.2 4.86 2.3 4.9 2.39 4.97 2.49 5.01 2.57 5.06 2.64 5.09 2.72 5.13 2.78 5.16 2.84 5.19 2.89 5.21 2.95 5.23 2.98 5.24 3.02 5.25 3.05 5.27 3.07 5.25 3.09 5.26 3.1 5.26 3.09 5.24 3.11 5.23 3.09 5.21 3.08 5.19 3.05 5.17 3.04 5.13 3 5.1 2.96 5.06 2.92 5.01 2.87 4.98 2.81 4.92 2.75 4.87 2.69 4.82 -8.76 4.84 -2.65 -4.76 -2.73 -4.83 -2.79 -4.88 -2.85 -4.94 -2.9 -4.99 -2.94 -5.04 -3 -5.08 -3.02 -5.13 -3.05 -5.15 -3.08 -5.19 -3.09 -5.21 -3.11 -5.23 -3.11 -5.26 -3.1 -5.26 -3.11 -5.28 -3.07 -5.29 -3.07 -5.29 -3.04 -5.29 -3 -5.28 -2.97 -5.27 -2.93 -5.27 -2.86 -5.23 -2.82 -5.22 -2.76 -5.21 -2.68 -5.17 -2.61 -5.14 -2.53 -5.09 -2.45 -5.07 -2.34 -5.02 -2.26 -4.98 -2.15 -4.92 -2.03 -4.87 2 -6.14zm-2 6.14c-1.04,-2.55 0.19,-5.48 2.74,-6.52 2.55,-1.04 5.48,0.19 6.52,2.74l-9.26 3.78zm311.3 -83.58l-154.67 -0.39 0.02 -10 154.67 0.39 4.99 5.04 -5.01 4.96zm0.02 -10c2.76,0 4.99,2.25 4.99,5.01 0,2.76 -2.25,4.99 -5.01,4.99l0.02 -10zm-5.85 99.39l0.84 -94.43 10 0.08 -0.84 94.43 -9.92 0.86 -0.08 -0.94zm10 0.08c-0.02,2.76 -2.28,4.98 -5.04,4.96 -2.76,-0.02 -4.98,-2.28 -4.96,-5.04l10 0.08zm2.04 6.96l-9.7 2.4 0 0.02 -0.05 -0.19 -0.06 -0.25 -0.04 -0.15 -0.04 -0.13 -0.11 -0.39 -0.04 -0.16 -0.05 -0.15 -0.1 -0.36 -0.05 -0.16 -0.09 -0.28 -0.07 -0.28 -0.08 -0.24 -0.07 -0.25 -0.06 -0.2 -0.11 -0.37 -0.07 -0.27 -0.07 -0.23 -0.08 -0.29 -0.08 -0.27 -0.07 -0.26 -0.08 -0.27 -0.09 -0.34 -0.08 -0.3 -0.06 -0.24 -0.1 -0.35 -0.08 -0.36 -0.06 -0.26 -0.06 -0.27 -0.06 -0.26 -0.08 -0.35 -0.06 -0.34 -0.06 -0.3 9.84 -1.8 0.04 0.22 0.04 0.18 0.04 0.19 0.06 0.26 0.06 0.27 0.06 0.26 0.04 0.18 0.04 0.17 0.08 0.3 0.06 0.24 0.05 0.18 0.08 0.27 0.07 0.26 0.08 0.27 0.06 0.23 0.09 0.29 0.07 0.27 0.05 0.15 0.1 0.32 0.07 0.25 0.08 0.28 0.07 0.24 0.07 0.22 0.09 0.34 0.04 0.14 0.11 0.33 0.08 0.34 0.03 0.09 0.1 0.33 0.08 0.33 0.06 0.21 0.07 0.27 0 0.02zm0 -0.02c0.67,2.67 -0.96,5.4 -3.63,6.07 -2.67,0.67 -5.4,-0.96 -6.07,-3.63l9.7 -2.44zm2.81 7.48l-9.58 2.9 0 0 -0.03 -0.09 -0.03 -0.11 -0.06 -0.16 -0.06 -0.18 -0.06 -0.15 -0.05 -0.16 -0.07 -0.16 -0.09 -0.22 -0.08 -0.19 -0.11 -0.27 -0.11 -0.28 -0.08 -0.21 -0.13 -0.29 -0.1 -0.26 -0.07 -0.18 -0.11 -0.26 -0.16 -0.37 -0.1 -0.27 -0.11 -0.26 -0.1 -0.27 -0.1 -0.23 -0.13 -0.34 -0.1 -0.26 -0.13 -0.33 -0.11 -0.32 -0.1 -0.3 -0.11 -0.34 -0.07 -0.22 -0.1 -0.3 -0.12 -0.4 -0.07 -0.27 -0.08 -0.31 9.7 -2.4 0.04 0.13 0.05 0.19 0.02 0.08 0.06 0.18 0.09 0.28 0.05 0.16 0.08 0.2 0.07 0.2 0.07 0.19 0.1 0.26 0.07 0.18 0.12 0.29 0.1 0.27 0.11 0.26 0.1 0.27 0.06 0.15 0.11 0.26 0.15 0.34 0.1 0.26 0.09 0.23 0.12 0.29 0.09 0.22 0.09 0.21 0.12 0.29 0.09 0.24 0.11 0.28 0.11 0.28 0.1 0.27 0.08 0.24 0.08 0.22 0.09 0.27 0.09 0.27 0 0zm0 0c0.8,2.64 -0.7,5.44 -3.34,6.24 -2.64,0.8 -5.44,-0.7 -6.24,-3.34l9.58 -2.9zm-5.65 6.04l8.2 5.72 -8.26 -0.09 -0.17 -0.25 -0.24 -0.38 -0.15 -0.27 -0.17 -0.27 -0.19 -0.35 -0.13 -0.24 -0.18 -0.35 -0.18 -0.36 -0.08 -0.17 -0.17 -0.33 -0.16 -0.35 -0.12 -0.26 -0.14 -0.33 -0.11 -0.26 -0.11 -0.25 -0.14 -0.34 -0.12 -0.29 -0.13 -0.33 -0.09 -0.25 -0.09 -0.22 -0.11 -0.29 -0.11 -0.3 -0.1 -0.29 -0.08 -0.23 -0.07 -0.19 -0.09 -0.25 -0.13 -0.38 -0.05 -0.18 -0.04 -0.13 -0.08 -0.23 -0.08 -0.26 -0.06 -0.19 9.58 -2.9 0.04 0.17 0.04 0.1 0.04 0.15 0.1 0.27 0.07 0.24 0.01 0.04 0.07 0.19 0.09 0.27 0.08 0.23 0.06 0.17 0.07 0.18 0.07 0.19 0.11 0.28 0.09 0.25 0.07 0.17 0.08 0.21 0.08 0.18 0.11 0.25 0.11 0.26 0.08 0.17 0.12 0.26 0.06 0.15 0.09 0.17 0.16 0.33 0.06 0.14 0.08 0.13 0.13 0.24 0.07 0.13 0.11 0.19 0.11 0.19 0.04 0.06 0.11 0.17 -8.26 -0.09zm8.26 0.09c1.52,2.29 0.9,5.41 -1.39,6.93 -2.29,1.52 -5.41,0.9 -6.93,-1.39l8.32 -5.54zm-5.49 -5.05l9.96 0.8 -9.76 1.08 0.36 0.84 0.96 1.2 2.88 1.25 2.73 -0.56 0.97 -0.69 0.55 -0.63 0.15 -0.22 0.03 -0.05 0.02 -0.02 -0.03 0.05 -0.07 0.18 -0.09 0.2 -0.05 0.13 -0.11 0.29 -0.13 0.33 -0.12 0.33 -0.11 0.27 -0.13 0.38 -0.15 0.38 -0.13 0.34 -0.14 0.35 -0.13 0.36 -0.2 0.51 -0.16 0.36 -0.15 0.37 -0.17 0.38 -0.18 0.4 -0.22 0.45 -0.17 0.32 -0.21 0.41 -0.31 0.5 -0.26 0.39 -8.2 -5.72 0.04 -0.05 -0.01 0 0.07 -0.13 0.13 -0.26 0.08 -0.15 0.1 -0.24 0.13 -0.28 0.13 -0.31 0.14 -0.32 0.08 -0.19 0.13 -0.36 0.14 -0.35 0.13 -0.38 0.13 -0.3 0.11 -0.32 0.15 -0.39 0.12 -0.31 0.11 -0.29 0.11 -0.31 0.17 -0.43 0.13 -0.3 0.13 -0.3 0.17 -0.37 0.2 -0.38 0.21 -0.35 0.31 -0.48 0.71 -0.81 1.11 -0.79 2.85 -0.6 3 1.31 1.06 1.34 0.46 1.06 -9.76 1.08zm9.76 -1.08c0.81,2.63 -0.67,5.45 -3.3,6.26 -2.63,0.81 -5.45,-0.67 -6.26,-3.3l9.56 -2.96zm32.47 -401.83l-32.27 403.71 -9.96 -0.8 32.27 -403.71 9.97 0.7 -0.01 0.1zm-9.96 -0.8c0.22,-2.75 2.63,-4.8 5.38,-4.58 2.75,0.22 4.8,2.63 4.58,5.38l-9.96 -0.8zm12.9 -214.05l9.96 0.84 0 0 -0.54 6.55 -0.53 6.59 -0.5 6.6 -0.49 6.61 -0.48 6.64 -0.47 6.64 -0.45 6.66 -0.43 6.67 -0.43 6.69 -0.41 6.69 -0.41 6.72 -0.4 6.71 -0.38 6.71 -0.38 6.73 -0.38 6.73 -0.36 6.74 -0.37 6.74 -0.36 6.73 -0.35 6.74 -0.36 6.73 -0.35 6.73 -0.35 6.73 -0.36 6.73 -0.35 6.71 -0.36 6.72 -0.36 6.7 -0.36 6.69 -0.37 6.69 -0.38 6.67 -0.38 6.65 -0.39 6.65 -0.4 6.62 -9.98 -0.6 0.4 -6.62 0.39 -6.63 0.38 -6.65 0.38 -6.65 0.37 -6.67 0.36 -6.69 0.36 -6.7 0.36 -6.7 0.35 -6.71 0.36 -6.73 0.35 -6.73 0.35 -6.73 0.36 -6.73 0.35 -6.74 0.36 -6.75 0.37 -6.74 0.36 -6.74 0.38 -6.75 0.38 -6.73 0.38 -6.73 0.4 -6.73 0.41 -6.72 0.41 -6.71 0.43 -6.71 0.43 -6.69 0.45 -6.68 0.47 -6.68 0.48 -6.64 0.49 -6.65 0.52 -6.62 0.53 -6.61 0.54 -6.59 0 0zm0 0c0.23,-2.75 2.65,-4.79 5.4,-4.56 2.75,0.23 4.79,2.65 4.56,5.4l-9.96 -0.84zm118.99 -45.05l-9.44 3.32 0 0 -1.56 -3.86 -1.9 -3.68 -2.21 -3.45 -2.52 -3.26 -2.77 -3.03 -3.01 -2.79 -3.24 -2.51 -3.44 -2.25 -3.61 -1.95 -3.74 -1.64 -3.87 -1.34 -3.95 -0.99 -4.02 -0.64 -4.05 -0.3 -4.08 0.08 -4.07 0.46 -4.04 0.85 -4 1.26 -3.94 1.68 -3.85 2.12 -3.77 2.6 -3.64 3.05 -3.5 3.58 -3.33 4.09 -3.15 4.67 -2.94 5.23 -2.69 5.83 -2.41 6.45 -2.11 7.08 -1.77 7.73 -1.41 8.41 -1 9.09 -9.96 -0.84 1.06 -9.61 1.49 -8.97 1.91 -8.35 2.31 -7.72 2.65 -7.11 3.01 -6.53 3.34 -5.93 3.63 -5.37 3.91 -4.81 4.16 -4.24 4.38 -3.69 4.57 -3.14 4.73 -2.6 4.84 -2.08 4.94 -1.56 4.98 -1.05 5.01 -0.56 5 -0.1 4.95 0.36 4.88 0.78 4.79 1.21 4.65 1.6 4.5 1.98 4.33 2.35 4.12 2.69 3.9 3.03 3.63 3.35 3.35 3.65 3.04 3.94 2.69 4.23 2.32 4.48 1.92 4.72 0 0zm0 0c0.91,2.6 -0.46,5.47 -3.06,6.38 -2.6,0.91 -5.47,-0.46 -6.38,-3.06l9.44 -3.32zm53.39 857.6l-5.6 -8.28 -2.19 3.82 0.19 -7.27 -0.08 -11.3 -0.37 -14.97 -0.62 -18.32 -0.86 -21.42 -1.08 -24.24 -1.3 -26.78 -1.49 -29.07 -1.67 -31.1 -1.82 -32.85 -1.96 -34.35 -2.09 -35.57 -2.2 -36.56 -2.29 -37.24 -2.36 -37.68 -2.42 -37.87 -2.47 -37.77 -2.48 -37.43 -2.49 -36.8 -2.49 -35.93 -2.45 -34.77 -2.42 -33.38 -2.35 -31.7 -2.27 -29.77 -2.19 -27.57 -2.07 -25.1 -1.95 -22.36 -1.8 -19.37 -1.64 -16.1 -1.45 -12.54 -1.25 -8.65 -0.85 -3.99 9.44 -3.32 1.27 5.63 1.31 9.07 1.47 12.72 1.66 16.22 1.8 19.43 1.95 22.42 2.07 25.14 2.19 27.59 2.29 29.79 2.35 31.72 2.42 33.4 2.45 34.79 2.49 35.95 2.49 36.82 2.48 37.43 2.47 37.79 2.42 37.87 2.36 37.7 2.29 37.26 2.2 36.56 2.09 35.59 1.96 34.37 1.82 32.87 1.67 31.12 1.49 29.09 1.3 26.82 1.1 24.28 0.86 21.46 0.62 18.4 0.37 15.09 0.08 11.54 -0.21 7.85 -2.19 3.82zm2.19 -3.82c-0.17,2.75 -2.56,4.84 -5.31,4.67 -2.75,-0.17 -4.84,-2.56 -4.67,-5.31l9.98 0.64zm-310.32 200.5l-9.7 -2.4 0 0 3.53 -12.33 4.31 -11.55 5.05 -10.81 5.75 -10.1 6.42 -9.42 7.04 -8.75 7.62 -8.16 8.16 -7.59 8.66 -7.06 9.12 -6.57 9.53 -6.13 9.92 -5.74 10.27 -5.39 10.58 -5.08 10.87 -4.82 11.1 -4.61 11.33 -4.43 11.5 -4.3 11.67 -4.22 11.77 -4.16 11.84 -4.17 11.9 -4.19 11.92 -4.28 11.9 -4.4 11.84 -4.55 11.76 -4.75 11.63 -5.01 11.49 -5.27 11.3 -5.6 11.07 -5.96 10.83 -6.36 10.55 -6.8 5.6 8.28 -10.91 7.04 -11.17 6.56 -11.39 6.12 -11.58 5.74 -11.73 5.39 -11.85 5.09 -11.94 4.83 -11.98 4.61 -12 4.44 -11.98 4.3 -11.94 4.21 -11.84 4.17 -11.73 4.14 -11.57 4.18 -11.38 4.26 -11.17 4.37 -10.9 4.51 -10.61 4.72 -10.3 4.94 -9.93 5.21 -9.54 5.52 -9.11 5.85 -8.66 6.25 -8.18 6.66 -7.66 7.13 -7.12 7.62 -6.56 8.17 -5.98 8.76 -5.35 9.38 -4.71 10.09 -4.03 10.81 -3.33 11.61 0 0zm0 0c-0.66,2.67 -3.38,4.31 -6.05,3.65 -2.67,-0.66 -4.31,-3.38 -3.65,-6.05l9.7 2.4zm-11.41 28.77l5.28 8.48 -7.63 -3.87 -0.07 -1.19 -0.06 -1.16 -0.05 -1.19 -0.02 -1.17 -0.01 -1.15 0 -1.19 0.03 -1.16 0.03 -1.13 0.06 -1.18 0.07 -1.14 0.07 -1.13 0.1 -1.17 0.12 -1.13 0.11 -1.12 0.14 -1.13 0.13 -1.12 0.16 -1.11 0.16 -1.12 0.18 -1.13 0.18 -1.09 0.18 -1.08 0.2 -1.11 0.21 -1.1 0.22 -1.07 0.21 -1.08 0.23 -1.09 0.24 -1.06 0.23 -1.07 0.25 -1.05 0.25 -1.07 0.25 -1.04 0.26 -1.05 9.7 2.4 -0.24 1.01 -0.25 1 -0.23 1.01 -0.23 1.01 -0.23 1.01 -0.22 1.02 -0.21 0.99 -0.21 1.02 -0.2 1.03 -0.19 1 -0.18 1.01 -0.18 1.04 -0.18 1.03 -0.16 0.99 -0.14 1.02 -0.14 1.03 -0.13 1.02 -0.12 1.03 -0.11 1.04 -0.1 1.03 -0.08 0.99 -0.07 1.03 -0.07 1.04 -0.04 1 -0.03 1.05 -0.03 1.02 0 1.01 0.01 1.05 0.02 1.03 0.03 1.01 0.06 1.04 0.07 1.03 -7.63 -3.87zm7.63 3.87c0.2,2.75 -1.87,5.16 -4.62,5.36 -2.75,0.2 -5.16,-1.87 -5.36,-4.62l9.98 -0.74zm22.52 -10.88l-24.87 15.49 -5.28 -8.48 24.87 -15.49 7.51 5.38 -2.23 3.1zm-5.28 -8.48c2.34,-1.45 5.43,-0.74 6.88,1.6 1.45,2.34 0.74,5.43 -1.6,6.88l-5.28 -8.48zm101.43 -112.24l3.98 9.18 0 0 -6.72 2.95 -6.36 2.87 -6.01 2.8 -5.68 2.74 -5.35 2.7 -5.03 2.67 -4.73 2.63 -4.44 2.62 -4.17 2.61 -3.9 2.61 -3.64 2.62 -3.4 2.63 -3.17 2.67 -2.97 2.72 -2.77 2.76 -2.58 2.83 -2.41 2.89 -2.26 3.01 -2.12 3.1 -1.99 3.21 -1.88 3.37 -1.78 3.51 -1.69 3.67 -1.61 3.84 -1.53 4.03 -1.48 4.23 -1.43 4.44 -1.4 4.67 -1.36 4.89 -1.36 5.13 -1.33 5.38 -1.35 5.64 -9.74 -2.28 1.37 -5.72 1.37 -5.5 1.38 -5.27 1.42 -5.05 1.44 -4.85 1.51 -4.66 1.56 -4.47 1.65 -4.31 1.73 -4.16 1.85 -4.01 1.96 -3.85 2.08 -3.73 2.23 -3.61 2.38 -3.48 2.54 -3.37 2.71 -3.27 2.9 -3.17 3.09 -3.08 3.27 -3 3.49 -2.93 3.7 -2.87 3.92 -2.82 4.16 -2.79 4.41 -2.75 4.66 -2.76 4.95 -2.75 5.21 -2.75 5.51 -2.78 5.82 -2.82 6.13 -2.86 6.46 -2.91 6.8 -2.99 0 0zm0 0c2.53,-1.09 5.49,0.07 6.58,2.6 1.09,2.53 -0.07,5.49 -2.6,6.58l-3.98 -9.18zm194.47 -80.52l3.84 9.22 0 0 -6.19 2.59 -6.18 2.56 -6.16 2.55 -6.16 2.53 -6.14 2.53 -6.12 2.52 -6.12 2.51 -6.12 2.5 -6.1 2.49 -6.09 2.48 -6.09 2.49 -6.07 2.47 -6.07 2.48 -6.07 2.47 -6.06 2.47 -6.05 2.47 -6.05 2.48 -6.04 2.47 -6.04 2.48 -6.04 2.47 -6.02 2.49 -6.04 2.49 -6.02 2.51 -6.04 2.51 -6.02 2.51 -6.03 2.53 -6.03 2.54 -6.03 2.54 -6.03 2.57 -6.03 2.58 -6.04 2.59 -6.04 2.61 -3.98 -9.18 6.06 -2.61 6.06 -2.61 6.05 -2.58 6.05 -2.57 6.05 -2.56 6.03 -2.54 6.05 -2.53 6.04 -2.53 6.04 -2.51 6.04 -2.51 6.04 -2.49 6.04 -2.49 6.04 -2.49 6.06 -2.48 6.04 -2.47 6.05 -2.48 6.05 -2.47 6.06 -2.47 6.07 -2.47 6.07 -2.48 6.07 -2.47 6.09 -2.49 6.09 -2.48 6.1 -2.49 6.1 -2.5 6.12 -2.51 6.12 -2.5 6.14 -2.53 6.14 -2.53 6.16 -2.55 6.16 -2.56 6.19 -2.57 0 0zm0 0c2.54,-1.06 5.47,0.15 6.53,2.69 1.06,2.54 -0.15,5.47 -2.69,6.53l-3.84 -9.22zm395.09 -18.48l-8.2 -5.72 -0.61 4.54 -5.35 -12.73 -6.31 -11.1 -7.21 -9.58 -8.05 -8.13 -8.85 -6.81 -9.63 -5.56 -10.37 -4.39 -11.08 -3.28 -11.74 -2.22 -12.34 -1.23 -12.88 -0.27 -13.36 0.61 -13.75 1.43 -14.09 2.18 -14.36 2.88 -14.58 3.51 -14.7 4.05 -14.78 4.54 -14.79 4.95 -14.73 5.3 -14.61 5.58 -14.42 5.77 -14.18 5.9 -13.87 5.97 -13.5 5.96 -13.06 5.87 -12.56 5.74 -12.01 5.51 -11.4 5.21 -10.7 4.86 -9.99 4.43 -9.19 3.93 -3.84 -9.22 9.03 -3.87 9.89 -4.39 10.66 -4.84 11.38 -5.21 12.01 -5.51 12.6 -5.74 13.12 -5.91 13.56 -5.98 13.97 -6.01 14.3 -5.96 14.56 -5.83 14.77 -5.64 14.93 -5.36 15.01 -5.03 15.04 -4.62 15 -4.13 14.92 -3.59 14.76 -2.96 14.57 -2.26 14.29 -1.49 13.98 -0.63 13.6 0.29 13.16 1.31 12.66 2.4 12.1 3.58 11.47 4.85 10.73 6.22 9.91 7.61 9.01 9.11 7.99 10.62 6.93 12.18 5.79 13.77 -0.61 4.54zm0.61 -4.54c0.92,2.6 -0.43,5.47 -3.03,6.39 -2.6,0.92 -5.47,-0.43 -6.39,-3.03l9.42 -3.36zm-410.7 320.98l-10 -0.14 1.82 -3.79 6.41 -5.18 7.86 -6.23 9.25 -7.2 10.51 -8.1 11.68 -8.94 12.73 -9.68 13.68 -10.37 14.53 -10.97 15.27 -11.51 15.9 -11.98 16.43 -12.36 16.84 -12.67 17.16 -12.91 17.36 -13.06 17.46 -13.15 17.45 -13.17 17.33 -13.12 17.11 -12.96 16.77 -12.77 16.34 -12.47 15.79 -12.12 15.14 -11.68 14.37 -11.17 13.51 -10.6 12.53 -9.92 11.44 -9.19 10.24 -8.38 8.95 -7.49 7.51 -6.5 5.96 -5.44 4.26 -4.23 2.3 -2.71 8.2 5.72 -3.2 3.83 -4.68 4.65 -6.2 5.66 -7.67 6.64 -9.05 7.57 -10.32 8.44 -11.5 9.25 -12.59 9.96 -13.53 10.62 -14.41 11.19 -15.16 11.7 -15.81 12.14 -16.36 12.49 -16.79 12.77 -17.11 12.98 -17.35 13.12 -17.45 13.17 -17.46 13.15 -17.36 13.08 -17.16 12.91 -16.84 12.67 -16.43 12.36 -15.9 11.96 -15.27 11.51 -14.51 10.97 -13.68 10.35 -12.71 9.68 -11.66 8.92 -10.47 8.06 -9.19 7.16 -7.8 6.17 -6.29 5.1 1.82 -3.79zm-1.82 3.79c-2.13,1.75 -5.29,1.45 -7.04,-0.68 -1.75,-2.13 -1.45,-5.29 0.68,-7.04l6.36 7.72zm-11.35 215.07l3.17 -219 10 0.14 -3.17 219 -5.01 4.93 -4.99 -5.07zm10 0.14c-0.03,2.76 -2.31,4.96 -5.07,4.93 -2.76,-0.03 -4.96,-2.31 -4.93,-5.07l10 0.14zm-489.64 -5.65l484.65 0.58 -0.02 10 -484.65 -0.58 -4.99 -4.99 5.01 -5.01zm-0.02 10c-2.76,0 -4.99,-2.25 -4.99,-5.01 0,-2.76 2.25,-4.99 5.01,-4.99l-0.02 10zm4.41 -379.67l0.6 374.66 -10 0.02 -0.6 -374.66 2.65 -4.43 7.35 4.41zm-10 0.02c0,-2.76 2.23,-5.01 4.99,-5.01 2.76,0 5.01,2.23 5.01,4.99l-10 0.02zm111.67 -120.36l-6.64 7.48 8.31 -3.37 -0.86 10.23 -0.98 9.44 -1.13 8.69 -1.27 8 -1.41 7.33 -1.57 6.73 -1.72 6.13 -1.9 5.61 -2.07 5.09 -2.24 4.63 -2.46 4.2 -2.65 3.78 -2.84 3.4 -3.04 3.02 -3.2 2.68 -3.37 2.38 -3.51 2.09 -3.64 1.86 -3.78 1.68 -3.89 1.53 -4.04 1.42 -4.15 1.37 -4.29 1.36 -4.45 1.38 -4.58 1.44 -4.76 1.56 -4.91 1.69 -5.08 1.87 -5.27 2.1 -5.45 2.34 -5.64 2.65 -5.84 2.98 -4.7 -8.84 6.14 -3.12 5.94 -2.79 5.73 -2.46 5.51 -2.2 5.3 -1.95 5.09 -1.75 4.88 -1.6 4.66 -1.46 4.43 -1.38 4.21 -1.34 4.01 -1.31 3.76 -1.34 3.55 -1.39 3.32 -1.46 3.1 -1.6 2.91 -1.73 2.71 -1.9 2.56 -2.14 2.4 -2.4 2.28 -2.72 2.17 -3.08 2.04 -3.52 1.94 -3.99 1.83 -4.51 1.72 -5.07 1.6 -5.67 1.47 -6.31 1.33 -6.99 1.23 -7.7 1.09 -8.43 0.96 -9.22 0.84 -10.03 8.31 -3.37zm-8.31 3.37c0.2,-2.75 2.61,-4.82 5.36,-4.62 2.75,0.2 4.82,2.61 4.62,5.36l-9.98 -0.74zm135.91 -114.07l9.24 -3.82 0 0 4.28 11.39 3.31 11.02 2.38 10.63 1.48 10.26 0.62 9.85 -0.2 9.44 -0.99 9.02 -1.74 8.57 -2.45 8.11 -3.11 7.64 -3.74 7.15 -4.32 6.65 -4.85 6.12 -5.33 5.59 -5.78 5.05 -6.17 4.51 -6.51 3.94 -6.83 3.39 -7.08 2.8 -7.29 2.23 -7.48 1.64 -7.61 1.05 -7.7 0.45 -7.75 -0.17 -7.75 -0.78 -7.73 -1.41 -7.64 -2.05 -7.52 -2.7 -7.36 -3.34 -7.14 -4.02 -6.9 -4.68 -6.58 -5.35 6.64 -7.48 5.92 4.81 6.18 4.2 6.4 3.6 6.6 3 6.74 2.42 6.86 1.83 6.93 1.27 6.97 0.7 6.95 0.15 6.9 -0.41 6.83 -0.93 6.7 -1.48 6.53 -1.99 6.32 -2.5 6.07 -3.01 5.79 -3.5 5.47 -3.99 5.1 -4.47 4.71 -4.93 4.27 -5.4 3.8 -5.85 3.3 -6.31 2.77 -6.76 2.17 -7.23 1.56 -7.67 0.89 -8.12 0.18 -8.58 -0.56 -9.03 -1.38 -9.48 -2.22 -9.91 -3.11 -10.36 -4.04 -10.77 0 0zm0 0c-1.05,-2.55 0.16,-5.48 2.71,-6.53 2.55,-1.05 5.48,0.16 6.53,2.71l-9.24 3.82zm-105.42 -237.95l-0.02 10 4.97 -5.64 0.75 4.49 1.16 5 1.55 5.44 1.92 5.85 2.25 6.22 2.57 6.56 2.87 6.86 3.14 7.13 3.38 7.39 3.6 7.59 3.81 7.78 3.97 7.95 4.12 8.07 4.26 8.18 4.35 8.27 4.42 8.32 4.47 8.34 4.51 8.34 4.5 8.3 4.49 8.26 4.45 8.19 4.37 8.06 4.28 7.94 4.17 7.78 4.02 7.59 3.87 7.37 3.69 7.16 3.46 6.88 3.23 6.6 2.99 6.3 2.7 5.95 2.39 5.61 -9.24 3.82 -2.31 -5.39 -2.62 -5.79 -2.91 -6.16 -3.19 -6.48 -3.42 -6.8 -3.65 -7.08 -3.83 -7.33 -4 -7.55 -4.15 -7.74 -4.28 -7.92 -4.37 -8.06 -4.43 -8.17 -4.49 -8.26 -4.52 -8.32 -4.51 -8.36 -4.49 -8.38 -4.44 -8.34 -4.37 -8.31 -4.28 -8.24 -4.16 -8.15 -4.01 -8.01 -3.85 -7.88 -3.66 -7.71 -3.44 -7.51 -3.2 -7.29 -2.95 -7.04 -2.67 -6.78 -2.35 -6.5 -2.02 -6.17 -1.67 -5.88 -1.28 -5.52 -0.87 -5.19 4.97 -5.64zm-4.97 5.64c-0.35,-2.73 1.59,-5.25 4.32,-5.6 2.73,-0.35 5.25,1.59 5.6,4.32l-9.92 1.28zm173.33 -115.9l-9.6 -2.76 0 0 0.57 -2.45 0.64 -3.66 0.67 -4.7 0.68 -5.63 0.7 -6.49 0.69 -7.27 0.69 -7.96 0.68 -8.62 0.69 -9.17 0.68 -9.67 0.67 -10.11 0.65 -10.47 0.64 -10.79 0.63 -11.01 0.6 -11.17 0.58 -11.28 0.56 -11.32 0.53 -11.28 0.5 -11.18 0.47 -11.03 0.44 -10.79 0.4 -10.49 0.37 -10.13 0.33 -9.7 0.29 -9.21 0.24 -8.64 0.2 -8.01 0.14 -7.32 0.1 -6.55 0.04 -5.71 -0.01 -4.8 -0.07 -3.81 10 -0.3 0.07 4.01 0.01 4.92 -0.04 5.81 -0.1 6.61 -0.14 7.36 -0.2 8.05 -0.24 8.68 -0.29 9.23 -0.33 9.74 -0.37 10.15 -0.4 10.51 -0.44 10.81 -0.47 11.05 -0.52 11.2 -0.53 11.3 -0.56 11.34 -0.58 11.3 -0.6 11.21 -0.63 11.03 -0.64 10.81 -0.65 10.51 -0.67 10.15 -0.68 9.71 -0.69 9.23 -0.7 8.66 -0.69 8.04 -0.71 7.37 -0.7 6.61 -0.7 5.81 -0.71 4.96 -0.72 4.08 -0.77 3.23 0 0zm0 0c-0.76,2.65 -3.53,4.18 -6.18,3.42 -2.65,-0.76 -4.18,-3.53 -3.42,-6.18l9.6 2.76zm-200.79 -22.09l8.34 -5.52 0 0 3 4.15 3.6 4.3 4.13 4.39 4.64 4.44 5.09 4.43 5.52 4.4 5.91 4.34 6.22 4.23 6.53 4.1 6.79 3.92 6.99 3.72 7.17 3.48 7.3 3.22 7.38 2.91 7.43 2.58 7.43 2.22 7.41 1.82 7.31 1.39 7.19 0.95 7.02 0.47 6.81 -0.03 6.55 -0.55 6.26 -1.11 5.94 -1.65 5.58 -2.25 5.21 -2.85 4.81 -3.48 4.43 -4.17 3.99 -4.89 3.57 -5.68 3.08 -6.52 2.56 -7.43 9.6 2.76 -2.88 8.41 -3.58 7.56 -4.21 6.72 -4.81 5.89 -5.37 5.05 -5.85 4.24 -6.27 3.43 -6.64 2.67 -6.94 1.95 -7.2 1.27 -7.39 0.63 -7.57 0.03 -7.7 -0.51 -7.79 -1.03 -7.85 -1.51 -7.89 -1.94 -7.87 -2.34 -7.85 -2.72 -7.76 -3.07 -7.64 -3.36 -7.51 -3.64 -7.31 -3.9 -7.09 -4.1 -6.83 -4.28 -6.54 -4.45 -6.21 -4.56 -5.84 -4.66 -5.43 -4.73 -5 -4.78 -4.51 -4.79 -4 -4.78 -3.46 -4.79 0 0zm0 0c-1.52,-2.3 -0.89,-5.41 1.41,-6.93 2.3,-1.52 5.41,-0.89 6.93,1.41l-8.34 5.52zm216.18 -251.39l-10 0.3 2.41 4.13 -17.22 -9.63 -16.69 -7.7 -16.11 -5.87 -15.52 -4.12 -14.92 -2.48 -14.29 -0.92 -13.68 0.57 -13.03 1.96 -12.4 3.27 -11.74 4.51 -11.09 5.67 -10.41 6.77 -9.73 7.8 -9.02 8.76 -8.28 9.63 -7.53 10.44 -6.74 11.18 -5.94 11.84 -5.11 12.42 -4.26 12.9 -3.37 13.32 -2.48 13.66 -1.56 13.92 -0.61 14.08 0.35 14.19 1.34 14.21 2.34 14.13 3.36 13.98 4.41 13.76 5.47 13.47 6.56 13.08 7.65 12.64 -8.34 5.52 -8.07 -13.32 -6.9 -13.8 -5.77 -14.17 -4.63 -14.48 -3.54 -14.7 -2.46 -14.83 -1.4 -14.89 -0.37 -14.87 0.63 -14.78 1.64 -14.58 2.6 -14.34 3.55 -14 4.48 -13.58 5.39 -13.08 6.28 -12.52 7.16 -11.86 8.01 -11.12 8.86 -10.31 9.68 -9.4 10.49 -8.4 11.27 -7.33 12.01 -6.15 12.76 -4.89 13.44 -3.55 14.11 -2.12 14.74 -0.61 15.33 0.98 15.88 2.64 16.42 4.36 16.91 6.17 17.41 8.04 17.86 9.97 2.41 4.13zm-2.41 -4.13c2.36,1.43 3.12,4.51 1.69,6.87 -1.43,2.36 -4.51,3.12 -6.87,1.69l5.18 -8.56zm196.74 -87.11l-4.06 9.14 3.83 0.1 -3.05 1.02 -2.93 0.7 -2.74 0.4 -2.55 0.17 -2.36 -0.02 -2.14 -0.16 -1.88 -0.23 -1.65 -0.25 -1.36 -0.21 -1 -0.12 -0.6 -0.02 -0.09 -0.01 0.34 -0.14 0.45 -0.33 0.19 -0.24 -0.11 0.28 -0.23 0.91 -0.21 1.52 -0.14 2.13 -0.06 2.76 0.05 3.35 0.15 4.01 0.25 4.68 0.36 5.39 0.44 6.14 0.53 6.93 0.63 7.76 0.72 8.64 0.8 9.56 0.87 10.52 0.96 11.52 1.03 12.57 -9.96 0.82 -1.03 -12.57 -0.96 -11.52 -0.87 -10.52 -0.8 -9.54 -0.72 -8.66 -0.63 -7.78 -0.55 -6.99 -0.44 -6.2 -0.36 -5.47 -0.25 -4.82 -0.17 -4.19 -0.05 -3.65 0.06 -3.14 0.18 -2.73 0.35 -2.42 0.57 -2.19 0.91 -2.06 1.45 -1.9 1.97 -1.43 2.12 -0.76 1.93 -0.23 1.7 0.06 1.58 0.18 1.48 0.23 1.49 0.21 1.54 0.19 1.58 0.12 1.66 0.02 1.77 -0.11 1.9 -0.28 2.05 -0.48 2.23 -0.76 3.83 0.1zm-3.83 -0.1c2.57,-0.99 5.48,0.3 6.47,2.87 0.99,2.57 -0.3,5.48 -2.87,6.47l-3.6 -9.34zm29.58 56.48l-10 0.1 0 0.17 -0.22 -5.61 -0.16 -5.13 -0.11 -4.68 -0.06 -4.24 -0.03 -3.83 -0.01 -3.43 0.01 -3.06 0.01 -2.7 0.01 -2.35 -0.01 -2.04 -0.02 -1.71 -0.05 -1.39 -0.08 -1.07 -0.1 -0.74 -0.08 -0.37 -0.01 -0.02 0.13 0.21 0.29 0.32 0.25 0.19 0.01 0.01 -0.28 -0.09 -0.62 -0.15 -0.89 -0.18 -1.12 -0.22 -1.39 -0.26 -1.59 -0.34 -1.76 -0.42 -1.99 -0.54 -2.19 -0.67 -2.38 -0.83 -2.58 -0.99 -2.79 -1.18 4.06 -9.14 2.49 1.06 2.26 0.87 2.06 0.71 1.85 0.57 1.67 0.44 1.52 0.36 1.37 0.3 1.25 0.24 1.2 0.22 1.15 0.24 1.16 0.29 1.24 0.41 1.31 0.63 1.33 0.95 1.17 1.28 0.85 1.43 0.55 1.46 0.34 1.45 0.2 1.46 0.12 1.55 0.07 1.71 0.02 1.87 0.01 2.12 -0.01 2.39 -0.01 2.7 -0.01 3.02 0.01 3.37 0.03 3.77 0.06 4.16 0.11 4.6 0.16 5.05 0.22 5.53 0 0.17zm0 -0.17c0.12,2.76 -2.02,5.1 -4.78,5.22 -2.76,0.12 -5.1,-2.02 -5.22,-4.78l10 -0.44zm-8.93 99.99l-1.07 -99.72 10 -0.1 1.07 99.72 -5.04 5.05 -4.96 -4.95zm10 -0.1c0.02,2.76 -2.19,5.03 -4.95,5.05 -2.76,0.02 -5.03,-2.19 -5.05,-4.95l10 -0.1zm144.22 6.38l-149.26 -1.33 0.08 -10 149.26 1.33 4.96 5 -5.04 5zm0.08 -10c2.76,0.02 4.98,2.28 4.96,5.04 -0.02,2.76 -2.28,4.98 -5.04,4.96l0.08 -10zm-4.98 304.63l-0.06 -299.63 10 0 0.06 299.63 -5.15 5 -4.85 -5zm10 0c0,2.76 -2.24,5 -5,5 -2.76,0 -5,-2.24 -5,-5l10 0zm-174.08 -9.93l169.23 4.93 -0.3 10 -169.23 -4.93 -4.84 -4.67 5.14 -5.33zm-0.3 10c-2.76,-0.08 -4.93,-2.39 -4.85,-5.15 0.08,-2.76 2.39,-4.93 5.15,-4.85l-0.3 10zm-17.31 -348.63l22.45 343.3 -9.98 0.66 -22.45 -343.3 9.97 -0.74 0.01 0.08zm-9.98 0.66c-0.18,-2.75 1.91,-5.14 4.66,-5.32 2.75,-0.18 5.14,1.91 5.32,4.66l-9.98 0.66zm172.23 29.87l0.16 -10 -4.76 6.77 -1.21 -2.97 -1.47 -3.1 -1.72 -3.25 -1.94 -3.37 -2.15 -3.45 -2.37 -3.55 -2.55 -3.62 -2.74 -3.67 -2.89 -3.71 -3.06 -3.76 -3.19 -3.78 -3.32 -3.79 -3.43 -3.78 -3.54 -3.78 -3.62 -3.75 -3.71 -3.72 -3.75 -3.66 -3.82 -3.62 -3.85 -3.55 -3.88 -3.46 -3.88 -3.38 -3.89 -3.27 -3.88 -3.17 -3.84 -3.04 -3.8 -2.91 -3.75 -2.77 -3.68 -2.61 -3.6 -2.44 -3.51 -2.27 -3.39 -2.08 -3.26 -1.88 -3.13 -1.66 4.56 -8.9 3.41 1.82 3.52 2.02 3.63 2.22 3.69 2.39 3.78 2.56 3.84 2.73 3.89 2.87 3.94 3.01 3.98 3.14 3.98 3.27 4.01 3.37 4 3.48 3.98 3.56 3.95 3.65 3.92 3.7 3.87 3.78 3.81 3.82 3.72 3.87 3.64 3.88 3.55 3.9 3.44 3.93 3.31 3.92 3.18 3.9 3.03 3.89 2.88 3.87 2.69 3.82 2.53 3.79 2.33 3.73 2.12 3.67 1.9 3.61 1.67 3.54 1.43 3.47 -4.76 6.77zm4.76 -6.77c0.97,2.58 -0.33,5.48 -2.91,6.45 -2.58,0.97 -5.48,-0.33 -6.45,-2.91l9.36 -3.54zm-108.03 -4.95l103.43 1.72 -0.16 10 -103.43 -1.72 -4.92 -4.96 5.08 -5.04zm-0.16 10c-2.76,-0.04 -4.96,-2.32 -4.92,-5.08 0.04,-2.76 2.32,-4.96 5.08,-4.92l-0.16 10zm4.29 -108.82l0.79 103.78 -10 0.08 -0.79 -103.78 7.28 -4.49 2.72 4.41zm-10 0.08c-0.02,-2.76 2.2,-5.02 4.96,-5.04 2.76,-0.02 5.02,2.2 5.04,4.96l-10 0.08zm-229.53 -19.3l-560.42 0.65 -0.02 -10 560.42 -0.65 5 5.26 -4.98 4.74zm-0.02 -10c2.76,0 5.01,2.23 5.01,4.99 0,2.76 -2.23,5.01 -4.99,5.01l-0.02 -10zm-7.92 62.22l2.94 -57.48 9.98 0.52 -2.94 57.48 -6.92 4.35 -3.06 -4.87zm9.98 0.52c-0.14,2.75 -2.5,4.87 -5.25,4.73 -2.75,-0.14 -4.87,-2.5 -4.73,-5.25l9.98 0.52zm-265.75 159l-10 -0.34 0 0 0.84 -14.44 1.46 -13.92 2.1 -13.4 2.72 -12.87 3.31 -12.33 3.91 -11.78 4.47 -11.22 5.05 -10.67 5.6 -10.09 6.13 -9.5 6.65 -8.91 7.16 -8.3 7.66 -7.68 8.12 -7.06 8.58 -6.43 9.03 -5.78 9.44 -5.12 9.85 -4.46 10.23 -3.79 10.59 -3.11 10.96 -2.43 11.27 -1.74 11.59 -1.06 11.9 -0.35 12.17 0.35 12.45 1.05 12.69 1.78 12.94 2.49 13.15 3.21 13.36 3.94 13.56 4.67 13.75 5.42 -3.86 9.22 -13.35 -5.26 -13.14 -4.53 -12.92 -3.8 -12.69 -3.11 -12.44 -2.39 -12.17 -1.7 -11.89 -1.01 -11.61 -0.33 -11.3 0.33 -10.97 1 -10.65 1.64 -10.3 2.29 -9.95 2.93 -9.57 3.55 -9.21 4.16 -8.8 4.78 -8.41 5.38 -8 5.99 -7.58 6.58 -7.14 7.18 -6.7 7.76 -6.23 8.35 -5.77 8.94 -5.28 9.51 -4.77 10.09 -4.25 10.66 -3.73 11.24 -3.17 11.77 -2.6 12.35 -2.02 12.9 -1.42 13.42 -0.8 13.98 0 0zm0 0c-0.09,2.76 -2.41,4.92 -5.17,4.83 -2.76,-0.09 -4.92,-2.41 -4.83,-5.17l10 0.34zm243.48 192.19l-9.98 -0.66 6.17 5.19 -13.91 3.08 -13.62 2.45 -13.35 1.81 -13.05 1.17 -12.74 0.54 -12.43 -0.08 -12.1 -0.72 -11.77 -1.32 -11.41 -1.95 -11.05 -2.55 -10.68 -3.17 -10.28 -3.77 -9.88 -4.38 -9.46 -4.96 -9.04 -5.57 -8.58 -6.14 -8.12 -6.72 -7.65 -7.31 -7.15 -7.85 -6.66 -8.41 -6.14 -8.96 -5.61 -9.5 -5.08 -10.01 -4.53 -10.55 -3.97 -11.05 -3.4 -11.56 -2.84 -12.06 -2.23 -12.55 -1.65 -13.03 -1.04 -13.5 -0.44 -13.99 0.19 -14.45 10 0.34 -0.19 14.03 0.42 13.53 1 13.04 1.59 12.53 2.15 12.03 2.7 11.52 3.24 11.02 3.77 10.49 4.29 9.97 4.78 9.45 5.29 8.92 5.76 8.4 6.22 7.87 6.69 7.35 7.13 6.81 7.58 6.28 8.02 5.74 8.44 5.19 8.86 4.66 9.28 4.1 9.68 3.55 10.08 2.99 10.47 2.43 10.85 1.85 11.21 1.26 11.58 0.68 11.93 0.08 12.26 -0.52 12.59 -1.13 12.91 -1.75 13.22 -2.37 13.51 -3 6.17 5.19zm-6.17 -5.19c2.68,-0.65 5.39,1 6.04,3.68 0.65,2.68 -1,5.39 -3.68,6.04l-2.36 -9.72zm-37.05 54.91l0.12 -10 -0.59 0.03 4.38 -0.45 4.02 -0.36 3.68 -0.31 3.36 -0.27 3.05 -0.22 2.71 -0.2 2.43 -0.21 2.14 -0.2 1.82 -0.22 1.52 -0.23 1.2 -0.25 0.91 -0.27 0.59 -0.23 0.3 -0.17 0.12 -0.09 0.07 -0.09 0.1 -0.17 0.14 -0.39 0.18 -0.68 0.15 -0.98 0.11 -1.28 0.07 -1.58 0.04 -1.86 0 -2.13 -0.01 -2.4 -0.02 -2.69 0 -2.99 0.02 -3.26 0.06 -3.58 0.11 -3.89 0.2 -4.21 0.26 -4.55 9.98 0.66 -0.26 4.41 -0.18 4.07 -0.11 3.75 -0.06 3.46 -0.02 3.18 0 2.91 0.02 2.67 0.01 2.44 0 2.25 -0.04 2.08 -0.09 1.92 -0.17 1.82 -0.27 1.76 -0.44 1.72 -0.66 1.69 -0.96 1.63 -1.23 1.45 -1.48 1.21 -1.62 0.93 -1.67 0.67 -1.73 0.51 -1.84 0.39 -1.96 0.31 -2.12 0.24 -2.28 0.22 -2.53 0.21 -2.77 0.22 -3.03 0.22 -3.3 0.25 -3.62 0.31 -3.94 0.36 -4.28 0.43 -0.59 0.03zm0.59 -0.03c-2.74,0.29 -5.21,-1.7 -5.5,-4.44 -0.29,-2.74 1.7,-5.21 4.44,-5.5l1.06 9.94zm-497.11 -15.6l496.64 5.63 -0.12 10 -496.64 -5.63 -4.94 -5 5.06 -5zm-0.12 10c-2.76,-0.03 -4.97,-2.3 -4.94,-5.06 0.03,-2.76 2.3,-4.97 5.06,-4.94l-0.12 10zm4.66 -452.37l0.4 447.37 -10 0 -0.4 -447.37 4.99 -5 5.01 5zm-10 0c0,-2.76 2.24,-5 5,-5 2.76,0 5,2.24 5,5l-10 0zm534.19 -19.02l0.08 -10 -5.03 4.71 0.29 -10.88 -0.43 -10.03 -1.09 -9.19 -1.69 -8.36 -2.24 -7.56 -2.72 -6.75 -3.15 -5.98 -3.53 -5.22 -3.85 -4.49 -4.12 -3.79 -4.35 -3.1 -4.54 -2.45 -4.69 -1.8 -4.81 -1.18 -4.89 -0.57 -4.92 0.05 -4.94 0.64 -4.91 1.24 -4.81 1.82 -4.69 2.43 -4.51 3 -4.3 3.6 -4.02 4.17 -3.71 4.75 -3.34 5.32 -2.92 5.89 -2.45 6.48 -1.94 7.03 -1.36 7.6 -0.74 8.16 -0.05 8.72 0.69 9.27 -9.94 1.12 -0.75 -10.03 0.07 -9.54 0.8 -9.02 1.52 -8.48 2.18 -7.93 2.79 -7.36 3.36 -6.79 3.88 -6.18 4.35 -5.57 4.76 -4.93 5.12 -4.28 5.43 -3.62 5.69 -2.93 5.89 -2.24 6.03 -1.52 6.12 -0.8 6.16 -0.05 6.13 0.71 6.03 1.48 5.87 2.26 5.66 3.05 5.35 3.82 5.02 4.61 4.61 5.37 4.15 6.16 3.65 6.9 3.08 7.67 2.5 8.44 1.87 9.2 1.17 9.97 0.47 10.75 -0.31 11.52 -5.03 4.71zm5.03 -4.71c-0.16,2.75 -2.53,4.86 -5.28,4.7 -2.75,-0.16 -4.86,-2.53 -4.7,-5.28l9.98 0.58zm-113.64 -6.2l108.69 0.91 -0.08 10 -108.69 -0.91 -4.93 -4.44 5.01 -5.56zm-0.08 10c-2.76,-0.02 -4.98,-2.28 -4.96,-5.04 0.02,-2.76 2.28,-4.98 5.04,-4.96l-0.08 10zm-442.78 -7.92l411.68 -0.74 0.02 10 -411.68 0.74 -5.01 -5 4.99 -5zm0.02 10c-2.76,0 -5.01,-2.23 -5.01,-4.99 0,-2.76 2.23,-5.01 4.99,-5.01l0.02 10zm-4.85 489.33l-0.16 -494.33 10 0 0.16 494.33 -5.06 5 -4.94 -5zm10 0c0,2.76 -2.24,5 -5,5 -2.76,0 -5,-2.24 -5,-5l10 0zm326.2 8.65l-331.26 -3.65 0.12 -10 331.26 3.65 2.89 9.04 -3.01 0.96zm0.12 -10c2.76,0.03 4.97,2.3 4.94,5.06 -0.03,2.76 -2.3,4.97 -5.06,4.94l0.12 -10zm-264.67 162.98l-9.32 3.64 2.25 -6.2 7.71 -4.23 7.9 -4.33 8.07 -4.43 8.23 -4.5 8.36 -4.59 8.5 -4.67 8.61 -4.74 8.71 -4.81 8.79 -4.86 8.88 -4.94 8.93 -4.98 8.97 -5.03 9.01 -5.07 9.02 -5.12 9.01 -5.15 9.02 -5.18 8.99 -5.2 8.94 -5.22 8.89 -5.23 8.82 -5.25 8.74 -5.25 8.64 -5.26 8.54 -5.24 8.4 -5.24 8.28 -5.22 8.11 -5.2 7.94 -5.18 7.77 -5.14 7.56 -5.12 7.36 -5.07 7.14 -5.03 6.89 -4.98 5.9 8.08 -6.99 5.04 -7.22 5.09 -7.44 5.13 -7.64 5.16 -7.83 5.2 -8.02 5.22 -8.17 5.24 -8.32 5.26 -8.46 5.26 -8.58 5.28 -8.68 5.28 -8.78 5.27 -8.86 5.27 -8.93 5.25 -8.98 5.24 -9.01 5.22 -9.04 5.2 -9.05 5.17 -9.04 5.12 -9.03 5.09 -8.99 5.03 -8.95 5 -8.88 4.94 -8.81 4.88 -8.73 4.81 -8.61 4.74 -8.5 4.67 -8.38 4.59 -8.23 4.52 -8.07 4.41 -7.88 4.33 -7.71 4.23 2.25 -6.2zm-2.25 6.2c-2.41,1.33 -5.46,0.44 -6.79,-1.97 -1.33,-2.41 -0.44,-5.46 1.97,-6.79l4.82 8.76zm127.17 220.53l-8.82 4.7 0 0 -3.19 -5.94 -3.41 -6.2 -3.57 -6.44 -3.76 -6.64 -3.9 -6.86 -4.04 -7.02 -4.17 -7.2 -4.28 -7.33 -4.37 -7.48 -4.43 -7.57 -4.51 -7.66 -4.55 -7.75 -4.58 -7.79 -4.6 -7.84 -4.6 -7.86 -4.58 -7.87 -4.56 -7.85 -4.51 -7.81 -4.44 -7.78 -4.36 -7.7 -4.29 -7.62 -4.17 -7.53 -4.06 -7.41 -3.9 -7.27 -3.76 -7.12 -3.6 -6.95 -3.42 -6.78 -3.2 -6.56 -3.02 -6.35 -2.77 -6.13 -2.54 -5.87 -2.28 -5.61 9.32 -3.64 2.18 5.39 2.46 5.69 2.71 5.97 2.94 6.21 3.16 6.46 3.36 6.66 3.56 6.87 3.72 7.06 3.88 7.21 4.02 7.35 4.15 7.47 4.25 7.58 4.36 7.68 4.42 7.74 4.49 7.79 4.54 7.83 4.58 7.85 4.58 7.84 4.6 7.84 4.58 7.79 4.55 7.75 4.51 7.66 4.45 7.59 4.37 7.48 4.28 7.35 4.19 7.22 4.06 7.06 3.92 6.88 3.78 6.7 3.61 6.48 3.43 6.26 3.23 6.02 0 0zm0 0c1.29,2.43 0.37,5.47 -2.06,6.76 -2.43,1.29 -5.47,0.37 -6.76,-2.06l8.82 -4.7zm57.48 68.97l-10 0.02 1.39 3.45 -2.1 -2.17 -2.04 -2.06 -2 -1.98 -1.97 -1.92 -1.93 -1.84 -1.9 -1.8 -1.87 -1.74 -1.84 -1.71 -1.83 -1.68 -1.79 -1.66 -1.78 -1.65 -1.76 -1.66 -1.76 -1.65 -1.75 -1.69 -1.73 -1.69 -1.72 -1.74 -1.72 -1.78 -1.73 -1.83 -1.71 -1.9 -1.7 -1.95 -1.72 -2.03 -1.72 -2.13 -1.71 -2.2 -1.72 -2.31 -1.73 -2.41 -1.74 -2.53 -1.75 -2.64 -1.76 -2.79 -1.78 -2.92 -1.79 -3.07 -1.81 -3.23 -1.83 -3.38 8.82 -4.7 1.77 3.26 1.73 3.09 1.71 2.91 1.68 2.78 1.66 2.61 1.65 2.5 1.62 2.37 1.61 2.25 1.62 2.15 1.59 2.06 1.58 1.95 1.6 1.89 1.6 1.83 1.59 1.76 1.61 1.71 1.62 1.68 1.64 1.64 1.65 1.63 1.67 1.61 1.7 1.61 1.74 1.62 1.76 1.63 1.79 1.66 1.81 1.68 1.88 1.73 1.89 1.78 1.94 1.82 1.99 1.9 2.03 1.98 2.08 2.04 2.12 2.16 2.16 2.23 1.39 3.45zm-1.39 -3.45c1.91,1.99 1.84,5.16 -0.15,7.07 -1.99,1.91 -5.16,1.84 -7.07,-0.15l7.22 -6.92zm-7.61 409.01l-1 -405.54 10 -0.02 1 405.54 -5.02 5.01 -4.98 -4.99zm10 -0.02c0,2.76 -2.23,5.01 -4.99,5.01 -2.76,0 -5.01,-2.23 -5.01,-4.99l10 -0.02zm525.43 7.44l-530.45 -2.43 0.04 -10 530.45 2.43 4.98 5.03 -5.02 4.97zm0.04 -10c2.76,0.01 4.99,2.26 4.98,5.02 -0.01,2.76 -2.26,4.99 -5.02,4.98l0.04 -10zm98.1 -302.75l6.12 7.9 0.02 -0.01 -11.65 8.97 -10.77 8.04 -9.9 7.17 -9.07 6.42 -8.26 5.76 -7.5 5.19 -6.74 4.7 -6.02 4.33 -5.32 4.01 -4.66 3.81 -4.03 3.69 -3.44 3.63 -2.9 3.69 -2.45 3.86 -2.06 4.16 -1.72 4.6 -1.39 5.17 -1.11 5.87 -0.85 6.67 -0.58 7.54 -0.36 8.54 -0.17 9.58 -0.01 10.74 0.13 11.98 0.22 13.32 0.28 14.73 0.31 16.27 0.31 17.87 0.26 19.59 0.18 21.39 0.08 23.3 -0.07 25.3 -10 -0.06 0.07 -25.24 -0.08 -23.24 -0.18 -21.35 -0.26 -19.53 -0.31 -17.85 -0.31 -16.25 -0.28 -14.75 -0.22 -13.36 -0.13 -12.06 0.01 -10.88 0.17 -9.8 0.38 -8.82 0.62 -7.96 0.91 -7.21 1.23 -6.55 1.63 -5.99 2.06 -5.52 2.52 -5.1 3.01 -4.74 3.5 -4.45 4 -4.23 4.49 -4.11 5.02 -4.11 5.58 -4.21 6.16 -4.43 6.82 -4.76 7.5 -5.19 8.22 -5.72 8.99 -6.36 9.8 -7.11 10.65 -7.94 11.53 -8.89 0.02 -0.01zm-0.02 0.01c2.17,-1.7 5.32,-1.31 7.02,0.86 1.7,2.17 1.31,5.32 -0.86,7.02l-6.16 -7.88zm326.22 -239.97l-320.08 247.86 -6.12 -7.9 320.08 -247.86 7.77 2.29 -1.65 5.61zm-6.12 -7.9c2.18,-1.68 5.33,-1.29 7.01,0.89 1.68,2.18 1.29,5.33 -0.89,7.01l-6.12 -7.9zm-400.92 -18.36l9.98 -0.64 -5.48 -4.66 7.27 -1.13 8.36 -2.02 9.34 -2.84 10.23 -3.55 11 -4.15 11.74 -4.66 12.39 -5.06 12.96 -5.36 13.49 -5.55 13.93 -5.63 14.32 -5.63 14.63 -5.51 14.91 -5.29 15.11 -4.96 15.23 -4.55 15.33 -4 15.35 -3.37 15.3 -2.63 15.21 -1.78 15.06 -0.83 14.84 0.25 14.57 1.43 14.23 2.72 13.8 4.15 13.32 5.66 12.72 7.3 12.06 9.03 11.29 10.84 10.47 12.72 9.55 14.7 8.6 16.75 7.58 18.9 -9.42 3.32 -7.26 -18.08 -8.16 -15.89 -8.97 -13.8 -9.73 -11.84 -10.43 -10 -11.08 -8.29 -11.68 -6.7 -12.26 -5.22 -12.78 -3.83 -13.27 -2.54 -13.71 -1.35 -14.08 -0.23 -14.4 0.79 -14.63 1.72 -14.82 2.55 -14.93 3.27 -14.97 3.92 -14.95 4.45 -14.85 4.88 -14.71 5.23 -14.49 5.45 -14.2 5.57 -13.85 5.61 -13.45 5.53 -12.98 5.36 -12.45 5.1 -11.86 4.7 -11.22 4.23 -10.53 3.65 -9.8 2.98 -9.02 2.18 -8.27 1.29 -5.48 -4.66zm5.48 4.66c-2.75,0.27 -5.2,-1.74 -5.47,-4.49 -0.27,-2.75 1.74,-5.2 4.49,-5.47l0.98 9.96zm-13.87 -292.97l18.37 287.67 -9.98 0.64 -18.37 -287.67 4.98 -5.32 5 4.68zm-9.98 0.64c-0.17,-2.75 1.92,-5.14 4.67,-5.31 2.75,-0.17 5.14,1.92 5.31,4.67l-9.98 0.64zm194.25 4.39l-189.25 0.29 -0.02 -10 189.25 -0.29 5.01 5 -4.99 5zm-0.02 -10c2.76,0 5.01,2.23 5.01,4.99 0,2.76 -2.23,5.01 -4.99,5.01l-0.02 -10zm-17.34 -341.79l8.24 -5.66 0 0 2.91 5.11 2.5 6.03 2.17 6.94 1.9 7.81 1.67 8.65 1.44 9.43 1.25 10.15 1.06 10.82 0.89 11.43 0.72 11.96 0.58 12.44 0.44 12.84 0.32 13.19 0.19 13.47 0.1 13.66 -0.01 13.82 -0.08 13.88 -0.16 13.9 -0.22 13.82 -0.27 13.71 -0.31 13.49 -0.33 13.24 -0.36 12.9 -0.37 12.5 -0.36 12.03 -0.35 11.49 -0.32 10.87 -0.29 10.22 -0.25 9.46 -0.19 8.64 -0.12 7.75 -0.04 6.8 -10 0 0.04 -6.9 0.12 -7.83 0.19 -8.7 0.25 -9.5 0.29 -10.22 0.32 -10.89 0.35 -11.49 0.36 -12.03 0.37 -12.48 0.36 -12.88 0.33 -13.22 0.31 -13.47 0.27 -13.67 0.22 -13.78 0.16 -13.84 0.08 -13.84 0.01 -13.74 -0.1 -13.6 -0.19 -13.37 -0.32 -13.09 -0.44 -12.74 -0.56 -12.3 -0.72 -11.82 -0.87 -11.23 -1.04 -10.6 -1.21 -9.89 -1.4 -9.09 -1.59 -8.23 -1.76 -7.27 -1.95 -6.22 -2.08 -5.07 -2.15 -3.79 0 0zm0 0c-1.56,-2.27 -0.98,-5.39 1.29,-6.95 2.27,-1.56 5.39,-0.98 6.95,1.29l-8.24 5.66zm-86.82 -85.62l7.12 -7.02 0 0 1.79 1.79 2.02 2 2.22 2.17 2.42 2.34 2.6 2.49 2.78 2.64 2.9 2.77 3.04 2.88 3.15 2.98 3.24 3.06 3.32 3.14 3.38 3.18 3.42 3.24 3.46 3.26 3.46 3.29 3.45 3.28 3.44 3.28 3.39 3.25 3.33 3.21 3.27 3.17 3.17 3.1 3.07 3.01 2.96 2.95 2.8 2.82 2.67 2.71 2.5 2.6 2.31 2.44 2.11 2.31 1.9 2.14 1.68 1.97 1.47 1.82 1.22 1.69 -8.24 5.66 -0.92 -1.25 -1.23 -1.54 -1.52 -1.79 -1.78 -2 -2.01 -2.19 -2.23 -2.36 -2.42 -2.52 -2.61 -2.65 -2.78 -2.8 -2.9 -2.89 -3.05 -2.99 -3.15 -3.08 -3.23 -3.13 -3.33 -3.21 -3.37 -3.23 -3.42 -3.26 -3.45 -3.28 -3.44 -3.27 -3.44 -3.26 -3.42 -3.22 -3.38 -3.2 -3.32 -3.14 -3.24 -3.06 -3.15 -2.98 -3.06 -2.88 -2.92 -2.79 -2.78 -2.64 -2.64 -2.53 -2.46 -2.38 -2.26 -2.21 -2.06 -2.04 -1.85 -1.85 0 0zm0 0c-1.93,-1.96 -1.91,-5.14 0.05,-7.07 1.96,-1.93 5.14,-1.91 7.07,0.05l-7.12 7.02zm-120.69 -66.04l9.78 -2.12 -4.5 -3.92 7.78 0.65 7.26 0.7 6.77 0.73 6.31 0.81 5.87 0.84 5.48 0.92 5.08 0.98 4.75 1.06 4.43 1.14 4.14 1.24 3.86 1.33 3.61 1.42 3.4 1.54 3.2 1.65 3.02 1.76 2.87 1.88 2.72 1.99 2.6 2.1 2.51 2.21 2.43 2.32 2.4 2.43 2.39 2.54 2.4 2.66 2.45 2.77 2.54 2.91 2.63 3.04 2.76 3.17 2.94 3.34 3.11 3.48 3.35 3.64 3.59 3.81 3.88 4 -7.12 7.02 -3.98 -4.1 -3.69 -3.91 -3.43 -3.74 -3.19 -3.56 -2.98 -3.38 -2.8 -3.21 -2.63 -3.04 -2.5 -2.87 -2.39 -2.71 -2.3 -2.54 -2.23 -2.38 -2.2 -2.23 -2.19 -2.08 -2.21 -1.95 -2.24 -1.82 -2.32 -1.69 -2.43 -1.6 -2.56 -1.5 -2.74 -1.41 -2.94 -1.32 -3.19 -1.26 -3.46 -1.19 -3.76 -1.12 -4.07 -1.06 -4.45 -0.98 -4.84 -0.94 -5.24 -0.88 -5.67 -0.82 -6.13 -0.77 -6.63 -0.73 -7.14 -0.68 -7.66 -0.65 -4.5 -3.92zm4.5 3.92c-2.75,-0.21 -4.8,-2.62 -4.59,-5.37 0.21,-2.75 2.62,-4.8 5.37,-4.59l-0.78 9.96zm-14.56 -97.28l19.84 91.24 -9.78 2.12 -19.84 -91.24 6.49 -5.8 3.29 3.68zm-9.78 2.12c-0.58,-2.7 1.13,-5.37 3.83,-5.95 2.7,-0.58 5.37,1.13 5.95,3.83l-9.78 2.12zm-143.71 87.42l9.24 -3.8 -9.61 1.55 0.82 -9.77 1.04 -9.23 1.28 -8.73 1.49 -8.22 1.75 -7.75 1.98 -7.25 2.24 -6.79 2.49 -6.33 2.75 -5.87 3.02 -5.44 3.31 -4.99 3.58 -4.54 3.87 -4.11 4.16 -3.66 4.44 -3.21 4.7 -2.75 4.97 -2.31 5.2 -1.87 5.44 -1.46 5.67 -1.03 5.89 -0.65 6.13 -0.26 6.34 0.1 6.58 0.45 6.8 0.79 7.06 1.1 7.29 1.42 7.55 1.71 7.79 2.02 8.05 2.29 8.32 2.56 8.57 2.81 -3.2 9.48 -8.41 -2.77 -8.12 -2.5 -7.83 -2.23 -7.53 -1.94 -7.25 -1.65 -6.97 -1.36 -6.66 -1.04 -6.38 -0.73 -6.08 -0.41 -5.8 -0.1 -5.49 0.24 -5.21 0.57 -4.93 0.89 -4.64 1.24 -4.38 1.57 -4.13 1.93 -3.88 2.27 -3.66 2.65 -3.44 3.02 -3.25 3.45 -3.06 3.88 -2.87 4.31 -2.66 4.8 -2.47 5.27 -2.27 5.77 -2.06 6.29 -1.86 6.79 -1.65 7.31 -1.43 7.86 -1.22 8.39 -1 8.93 -0.8 9.49 -9.61 1.55zm9.61 -1.55c-0.19,2.75 -2.59,4.83 -5.34,4.64 -2.75,-0.19 -4.83,-2.59 -4.64,-5.34l9.98 0.7zm-92 -96.42l-0.16 -10 0 0 6.83 0.05 6.4 0.36 6.01 0.65 5.62 0.95 5.26 1.25 4.91 1.53 4.57 1.82 4.24 2.09 3.93 2.35 3.61 2.6 3.32 2.84 3.05 3.04 2.77 3.25 2.53 3.42 2.29 3.58 2.09 3.71 1.92 3.84 1.75 3.97 1.63 4.06 1.52 4.18 1.42 4.26 1.38 4.34 1.32 4.41 1.31 4.47 1.31 4.54 1.33 4.59 1.37 4.62 1.42 4.65 1.5 4.67 1.61 4.69 1.72 4.69 1.85 4.7 -9.24 3.8 -1.95 -4.94 -1.8 -4.91 -1.67 -4.87 -1.56 -4.83 -1.46 -4.77 -1.39 -4.7 -1.33 -4.61 -1.31 -4.52 -1.29 -4.43 -1.3 -4.31 -1.32 -4.18 -1.36 -4.06 -1.42 -3.9 -1.51 -3.76 -1.59 -3.59 -1.7 -3.42 -1.83 -3.25 -1.95 -3.06 -2.11 -2.86 -2.29 -2.67 -2.49 -2.5 -2.7 -2.3 -2.95 -2.12 -3.21 -1.93 -3.52 -1.73 -3.85 -1.54 -4.21 -1.31 -4.6 -1.09 -5 -0.85 -5.45 -0.59 -5.9 -0.32 -6.37 -0.05 0 0zm0 0c-2.76,0.04 -5.04,-2.16 -5.08,-4.92 -0.04,-2.76 2.16,-5.04 4.92,-5.08l0.16 10zm-86.32 107.11l-0.02 -10 -4.85 3.83 1.33 -5.61 1.28 -5.52 1.22 -5.44 1.21 -5.36 1.21 -5.25 1.2 -5.14 1.23 -5.05 1.25 -4.92 1.31 -4.82 1.37 -4.7 1.46 -4.59 1.56 -4.44 1.66 -4.31 1.81 -4.19 1.95 -4.04 2.13 -3.89 2.31 -3.72 2.51 -3.56 2.75 -3.39 2.96 -3.18 3.22 -2.99 3.47 -2.77 3.74 -2.53 4 -2.31 4.31 -2.06 4.57 -1.79 4.86 -1.55 5.18 -1.29 5.49 -1.03 5.82 -0.76 6.15 -0.5 6.51 -0.24 0.16 10 -6.09 0.22 -5.69 0.46 -5.3 0.7 -4.93 0.93 -4.58 1.13 -4.24 1.35 -3.93 1.55 -3.63 1.74 -3.36 1.93 -3.12 2.11 -2.87 2.29 -2.68 2.49 -2.48 2.66 -2.31 2.85 -2.15 3.06 -2.01 3.24 -1.87 3.43 -1.75 3.62 -1.65 3.81 -1.54 3.99 -1.46 4.16 -1.38 4.33 -1.31 4.48 -1.25 4.66 -1.23 4.8 -1.21 4.95 -1.18 5.08 -1.19 5.21 -1.21 5.34 -1.24 5.46 -1.28 5.58 -1.35 5.67 -4.85 3.83zm4.85 -3.83c-0.64,2.68 -3.35,4.33 -6.03,3.69 -2.68,-0.64 -4.33,-3.35 -3.69,-6.03l9.72 2.34z"/>
    <path id="1" class="fil2" d="M10289.81 14011.31l127.57 -73.99c25.4,71.66 186.8,292.71 87.15,332.86 -72.4,29.17 -100.95,-56.68 -129.25,-103.43 -29.61,-48.94 -63.59,-107.49 -85.47,-155.44zm151.3 -82.01l119.62 -73.85c40.08,40.98 61.31,108.74 87.47,160.24 26.24,51.69 78.71,127.99 11.77,165.3 -69.4,38.69 -103.37,-42.02 -129.01,-88.38 -28.06,-50.73 -69.09,-112.47 -89.85,-163.31zm152.01 -87.08l154.67 0.39 -0.84 94.43c0.51,2.78 1.58,5.78 2.19,8.2 0.58,2.35 2.31,5.86 2.87,7.71 0.55,1.82 1.74,5.2 3.24,7.45 1.58,-2.26 3.2,-8.87 3.65,-7.42l32.27 -403.71c4.3,-70.52 6.99,-144.01 12.9,-214.03 8.73,-103.35 92.79,-90.68 109.29,-43.81 10.15,28.83 59.11,792.75 55.31,851.8 -112.88,76.36 -277.66,67.63 -310.18,199.62 -2.69,10.92 -4.8,22.4 -3.92,34.21l24.87 -15.49c14.54,-61.99 26.76,-79.82 100.78,-111.89 64.56,-27.97 128.35,-52.95 194.4,-80.5 92.64,-38.64 335.44,-176.19 389.07,-25.95 -19.74,28.29 -351.63,270.3 -410.99,319.23l-3.17 219 -484.65 -0.58 -0.6 -374.66c64.99,-34.54 94.99,-4.19 103.35,-116.61 65.06,57.7 185.18,3.96 135.54,-116.35 -23.34,-56.56 -103.66,-181.7 -110.05,-231.04zm178.76 -388.59c1.06,36.34 -8.1,247.33 -15.19,271.95 -25.72,89.26 -160.54,23.68 -191.82,-23.47 -90.01,-135.69 17.25,-363.58 207.01,-248.48zm178.79 17.49c-11.37,-139.81 -10.57,-93.12 18.51,-104.31 29.36,13.07 20.08,-10.18 22.78,51.86l1.07 99.72 149.26 1.33 0.06 299.63 -169.23 -4.93 -22.45 -343.3zm63.1 -80.3c34.18,17.47 91.49,71.82 104.22,105.5l-103.43 -1.72 -0.79 -103.78zm-794.96 -23.61l560.42 -0.65 -2.94 57.48c-145.46,-60.87 -260.44,4.78 -265.76,159.09 -5.32,154.41 95.82,227.89 243.49,192.03 -3.31,49.57 9.86,39.95 -38.17,45.05l-496.64 -5.63 -0.4 -447.37zm420.54 -24.93c-11.92,-105.76 116.01,-123 108.69,0.91l-108.69 -0.91zm-31.13 1.34l-411.68 0.74 0.16 494.33 331.26 3.65c-72.73,53.19 -188.08,115.21 -269.27,159.8 22.39,57.14 91.99,164.85 125.17,227.26 19.33,36.36 33.91,42.62 56.89,66.63l1 405.54 530.45 2.43c1.64,-280.55 -27.33,-203.13 101.18,-303.8l320.08 -247.86c-73.84,-209.16 -321.35,-30.33 -398.99,-22.63l-18.37 -287.67 189.25 -0.29c0,-67.79 15.14,-308.25 -13.23,-349.62 -9.91,-14.44 -69.28,-67.94 -87.38,-86.3 -43.48,-44.12 -34.05,-56.85 -119.36,-63.59l-19.84 -91.24c-92.06,-31.16 -136.55,-18.99 -143.98,86.58 -21.16,-51.43 -14.23,-102.19 -87.09,-101.07 -69.25,1.07 -71.63,46.41 -86.25,107.11z"/>
   </g>
   <g>
    <path class="fil1" d="M10755.3 13516.92l-10 0 0 0 0 -0.34 -0.01 -0.33 -0.01 -0.33 -0.01 -0.32 -0.02 -0.31 -0.02 -0.31 -0.03 -0.3 -0.03 -0.3 -0.03 -0.28 -0.04 -0.29 -0.04 -0.28 -0.03 -0.19 -0.07 -0.33 -0.05 -0.27 -0.04 -0.19 -0.08 -0.31 -0.06 -0.24 -0.06 -0.22 -0.07 -0.24 -0.07 -0.23 -0.07 -0.2 -0.08 -0.24 -0.07 -0.18 -0.08 -0.2 -0.08 -0.19 -0.05 -0.12 -0.11 -0.21 -0.13 -0.25 -0.07 -0.14 -0.09 -0.16 -0.11 -0.2 -0.09 -0.14 8.44 -5.36 0.23 0.38 0.19 0.32 0.21 0.36 0.21 0.4 0.15 0.31 0.17 0.35 0.21 0.44 0.16 0.39 0.16 0.38 0.15 0.42 0.14 0.38 0.13 0.4 0.13 0.41 0.11 0.38 0.12 0.42 0.1 0.42 0.08 0.35 0.12 0.49 0.07 0.41 0.07 0.35 0.09 0.51 0.06 0.44 0.06 0.43 0.05 0.44 0.05 0.44 0.03 0.44 0.04 0.45 0.02 0.45 0.03 0.46 0.01 0.45 0.01 0.47 0 0.46 0 0zm-4.98 14.4l-7.78 -6.3 0 0.01 0.19 -0.24 0.15 -0.19 0.16 -0.23 0.14 -0.19 0.17 -0.28 0.18 -0.26 0.06 -0.11 0.14 -0.25 0.15 -0.28 0.12 -0.23 0.12 -0.24 0.12 -0.26 0.1 -0.23 0.08 -0.2 0.08 -0.21 0.1 -0.29 0.09 -0.27 0.07 -0.22 0.08 -0.3 0.07 -0.22 0.04 -0.23 0.07 -0.3 0.05 -0.3 0.05 -0.24 0.03 -0.25 0.05 -0.38 0.04 -0.25 0.01 -0.25 0.03 -0.26 0 -0.34 0.02 -0.33 0 -0.28 10 0 0 0.52 -0.02 0.47 -0.02 0.46 -0.03 0.52 -0.05 0.53 -0.06 0.51 -0.05 0.38 -0.07 0.51 -0.09 0.52 -0.09 0.44 -0.09 0.44 -0.12 0.51 -0.13 0.5 -0.12 0.42 -0.15 0.5 -0.15 0.43 -0.14 0.41 -0.18 0.49 -0.2 0.48 -0.2 0.45 -0.2 0.42 -0.2 0.42 -0.22 0.43 -0.21 0.38 -0.22 0.41 -0.32 0.53 -0.24 0.36 -0.23 0.36 -0.3 0.43 -0.28 0.39 -0.31 0.41 -0.29 0.36 0 0.01zm-15.15 6.65l0 -10 0 0 0.35 0 0.34 -0.01 0.32 -0.02 0.32 -0.03 0.36 -0.03 0.3 -0.04 0.3 -0.04 0.27 -0.05 0.27 -0.05 0.27 -0.06 0.24 -0.06 0.31 -0.09 0.25 -0.07 0.21 -0.08 0.21 -0.07 0.21 -0.1 0.22 -0.09 0.2 -0.1 0.21 -0.1 0.18 -0.11 0.21 -0.12 0.18 -0.12 0.19 -0.13 0.15 -0.11 0.17 -0.13 0.18 -0.15 0.14 -0.13 0.2 -0.19 0.17 -0.16 0.13 -0.15 0.16 -0.17 0.15 -0.19 7.78 6.3 -0.35 0.41 -0.34 0.39 -0.39 0.41 -0.37 0.36 -0.34 0.33 -0.42 0.37 -0.4 0.33 -0.41 0.33 -0.45 0.33 -0.43 0.29 -0.44 0.28 -0.43 0.26 -0.48 0.27 -0.47 0.24 -0.48 0.24 -0.48 0.21 -0.49 0.2 -0.51 0.19 -0.53 0.18 -0.51 0.15 -0.45 0.13 -0.54 0.14 -0.53 0.12 -0.53 0.11 -0.55 0.09 -0.54 0.08 -0.54 0.06 -0.5 0.05 -0.56 0.05 -0.56 0.02 -0.56 0.03 -0.57 0 0 0zm-2.22 -10l2.22 0 0 10 -2.22 0 -5 -5 5 -5zm0 10c-2.76,0 -5,-2.24 -5,-5 0,-2.76 2.24,-5 5,-5l0 10zm-11.93 -26.1l-9.34 -3.56 7.1 -2.59 1.11 0.63 1.07 0.64 1.07 0.67 1 0.66 0.99 0.68 0.96 0.7 0.92 0.71 0.9 0.72 0.87 0.73 0.86 0.78 0.78 0.76 0.77 0.78 0.75 0.81 0.7 0.8 0.68 0.84 0.65 0.87 0.6 0.86 0.56 0.88 0.53 0.88 0.51 0.92 0.46 0.95 0.41 0.92 0.39 0.98 0.34 0.96 0.3 0.97 0.27 1.03 0.22 0.99 0.18 1.01 0.13 1 0.11 1.04 0.06 1.05 0.02 1.03 -10 0 -0.02 -0.67 -0.02 -0.63 -0.07 -0.62 -0.09 -0.64 -0.12 -0.63 -0.12 -0.61 -0.15 -0.57 -0.2 -0.61 -0.2 -0.6 -0.23 -0.56 -0.27 -0.6 -0.28 -0.57 -0.31 -0.56 -0.35 -0.6 -0.38 -0.58 -0.4 -0.58 -0.41 -0.55 -0.46 -0.56 -0.5 -0.58 -0.51 -0.57 -0.57 -0.56 -0.6 -0.58 -0.6 -0.54 -0.67 -0.57 -0.68 -0.56 -0.74 -0.55 -0.76 -0.56 -0.79 -0.54 -0.84 -0.56 -0.85 -0.53 -0.91 -0.54 -0.93 -0.53 7.1 -2.59zm-7.1 2.59c-2.41,-1.34 -3.28,-4.39 -1.94,-6.8 1.34,-2.41 4.39,-3.28 6.8,-1.94l-4.86 8.74zm-22.91 48.1l20.67 -54.25 9.34 3.56 -20.67 54.25 -7.49 2.35 -1.85 -5.91zm9.34 3.56c-0.98,2.57 -3.88,3.87 -6.45,2.89 -2.57,-0.98 -3.87,-3.88 -2.89,-6.45l9.34 3.56zm-0.48 7.15l-7.01 -4.8 5.64 -8.26 7.01 4.8 0.03 0.02 -5.67 8.24zm39.19 42.37l-10 0 0 0 -0.03 -1.35 -0.07 -1.32 -0.14 -1.34 -0.19 -1.34 -0.24 -1.32 -0.29 -1.33 -0.35 -1.31 -0.4 -1.32 -0.46 -1.32 -0.51 -1.31 -0.58 -1.32 -0.63 -1.33 -0.69 -1.32 -0.74 -1.32 -0.8 -1.32 -0.86 -1.32 -0.93 -1.34 -0.98 -1.32 -1.05 -1.33 -1.11 -1.33 -1.17 -1.33 -1.22 -1.33 -1.3 -1.31 -1.36 -1.34 -1.41 -1.33 -1.49 -1.32 -1.55 -1.33 -1.6 -1.31 -1.68 -1.33 -1.73 -1.32 -1.8 -1.32 -1.86 -1.31 5.7 -8.22 2 1.41 1.94 1.42 1.89 1.44 1.8 1.43 1.78 1.45 1.69 1.47 1.65 1.46 1.59 1.49 1.52 1.48 1.46 1.51 1.4 1.51 1.35 1.53 1.27 1.53 1.23 1.55 1.16 1.58 1.09 1.56 1.04 1.58 0.98 1.62 0.9 1.6 0.85 1.64 0.77 1.63 0.72 1.64 0.65 1.67 0.58 1.68 0.52 1.68 0.45 1.71 0.37 1.69 0.32 1.72 0.23 1.72 0.18 1.72 0.11 1.76 0.03 1.73 0 0zm-25.52 49.17l-6.56 -7.56 0 0 1.39 -1.23 1.35 -1.24 1.3 -1.24 1.26 -1.25 1.2 -1.25 1.15 -1.24 1.11 -1.27 1.08 -1.28 1.02 -1.26 0.96 -1.26 0.93 -1.28 0.88 -1.28 0.84 -1.28 0.78 -1.27 0.75 -1.3 0.71 -1.3 0.65 -1.29 0.62 -1.3 0.55 -1.29 0.54 -1.33 0.48 -1.31 0.44 -1.32 0.4 -1.32 0.35 -1.32 0.31 -1.35 0.28 -1.34 0.23 -1.35 0.19 -1.35 0.14 -1.37 0.11 -1.38 0.06 -1.37 0.02 -1.39 10 0 -0.02 1.69 -0.08 1.69 -0.13 1.68 -0.18 1.67 -0.23 1.67 -0.29 1.65 -0.32 1.64 -0.39 1.63 -0.43 1.62 -0.48 1.62 -0.54 1.62 -0.6 1.59 -0.62 1.57 -0.69 1.57 -0.74 1.58 -0.79 1.55 -0.83 1.52 -0.87 1.52 -0.94 1.53 -0.98 1.5 -1.02 1.48 -1.07 1.48 -1.12 1.46 -1.18 1.46 -1.2 1.42 -1.25 1.43 -1.31 1.42 -1.36 1.41 -1.4 1.39 -1.44 1.38 -1.49 1.36 -1.53 1.37 0 0zm-61.78 21.89l0 -10 0 0 2.07 -0.02 2.03 -0.06 2.03 -0.09 1.99 -0.14 1.97 -0.17 1.94 -0.21 1.94 -0.25 1.9 -0.28 1.87 -0.34 1.88 -0.36 1.83 -0.39 1.81 -0.45 1.79 -0.47 1.77 -0.52 1.76 -0.54 1.73 -0.6 1.71 -0.62 1.68 -0.66 1.67 -0.71 1.65 -0.73 1.62 -0.77 1.6 -0.82 1.59 -0.85 1.56 -0.89 1.54 -0.93 1.54 -0.98 1.51 -1 1.48 -1.04 1.47 -1.08 1.45 -1.12 1.43 -1.16 1.41 -1.2 6.56 7.56 -1.59 1.34 -1.61 1.3 -1.63 1.26 -1.65 1.22 -1.68 1.18 -1.71 1.14 -1.72 1.08 -1.74 1.05 -1.78 1.01 -1.79 0.97 -1.82 0.92 -1.86 0.89 -1.85 0.83 -1.87 0.79 -1.92 0.76 -1.93 0.7 -1.95 0.66 -1.96 0.62 -1.99 0.58 -2.01 0.53 -2.03 0.49 -2.07 0.45 -2.06 0.4 -2.09 0.36 -2.12 0.32 -2.12 0.27 -2.16 0.25 -2.19 0.19 -2.19 0.14 -2.21 0.11 -2.23 0.06 -2.25 0.02 0 0zm-1.47 -10l1.47 0 0 10 -1.47 0 -4.66 -6.81 4.66 -3.19zm0 10c-2.76,0 -5,-2.24 -5,-5 0,-2.76 2.24,-5 5,-5l0 10zm-24.96 45.59l20.3 -52.4 9.32 3.62 -20.3 52.4 -9.42 -3.35 0.1 -0.27zm-3.64 7.92l0 -10 0 0 0.49 0 0.42 0 0.4 -0.01 0.45 -0.01 0.42 -0.01 0.41 -0.01 0.33 -0.01 0.31 -0.01 0.37 -0.02 0.33 -0.02 0.26 -0.02 0.31 -0.02 0.29 -0.02 0.2 -0.02 0.15 -0.02 0.23 -0.04 0.22 -0.02 0.08 -0.02 0.18 -0.03 0.01 0 0.12 -0.03 0.07 -0.01 -0.04 0.01 -0.19 0.07 -0.05 0.01 -0.11 0.06 -0.33 0.18 -0.12 0.09 -0.44 0.36 -0.5 0.54 -0.4 0.62 -0.33 0.76 9.52 3.08 -0.39 0.9 -0.48 0.74 -0.62 0.68 -0.6 0.48 -0.3 0.21 -0.53 0.3 -0.35 0.16 -0.31 0.13 -0.49 0.17 -0.38 0.11 -0.27 0.07 -0.28 0.07 -0.39 0.08 -0.28 0.05 -0.38 0.06 -0.3 0.04 -0.29 0.04 -0.41 0.04 -0.4 0.04 -0.33 0.02 -0.35 0.04 -0.42 0.02 -0.37 0.02 -0.39 0.02 -0.45 0.03 -0.47 0.01 -0.41 0.01 -0.44 0.01 -0.45 0.01 -0.52 0.01 -0.52 0 -0.49 0 0 0zm-12.6 -9.76l9.32 3.62 0.34 -1.81 -0.01 -0.24 -0.03 -0.24 -0.07 -0.31 -0.09 -0.28 -0.17 -0.37 -0.13 -0.24 -0.14 -0.19 -0.19 -0.24 -0.14 -0.13 -0.04 -0.04 -0.17 -0.12 -0.06 -0.06 -0.04 -0.01 -0.13 -0.07 0.12 0.05 0.09 0.04 -0.01 0 0.09 0.02 0.15 0.04 0.17 0.04 0.2 0.05 0.22 0.04 0.17 0.03 0.28 0.03 0.36 0.04 0.25 0.03 0.27 0.02 0.36 0.02 0.43 0.02 0.4 0.01 0.36 0.01 0.44 0 0 10 -0.54 0 -0.58 -0.01 -0.52 -0.03 -0.45 -0.02 -0.5 -0.02 -0.55 -0.04 -0.53 -0.05 -0.4 -0.06 -0.46 -0.05 -0.53 -0.09 -0.44 -0.08 -0.44 -0.09 -0.43 -0.1 -0.43 -0.12 -0.45 -0.14 -0.51 -0.18 -0.39 -0.16 -0.34 -0.15 -0.55 -0.27 -0.42 -0.25 -0.42 -0.28 -0.49 -0.38 -0.34 -0.3 -0.4 -0.39 -0.43 -0.52 -0.34 -0.49 -0.31 -0.54 -0.31 -0.69 -0.19 -0.6 -0.15 -0.65 -0.07 -0.6 -0.03 -0.6 0.34 -1.81zm-0.34 1.81c0,-2.76 2.24,-5 5,-5 2.76,0 5,2.24 5,5l-10 0zm29.96 -50.6l-20.3 52.41 -9.32 -3.62 20.3 -52.41 5.73 -3.07 3.59 6.69zm-9.32 -3.62c0.99,-2.57 3.9,-3.84 6.47,-2.85 2.57,0.99 3.84,3.9 2.85,6.47l-9.32 -3.62zm-23.3 -6.73l6.84 -7.28 0.01 0 0.52 0.49 0.53 0.47 0.54 0.46 0.55 0.45 0.57 0.45 0.59 0.45 0.59 0.43 0.6 0.43 0.57 0.39 0.63 0.4 0.63 0.4 0.64 0.38 0.64 0.36 0.67 0.36 0.7 0.38 0.66 0.34 0.7 0.34 0.7 0.33 0.71 0.31 0.76 0.32 0.74 0.31 0.73 0.28 0.78 0.29 0.76 0.27 0.78 0.25 0.84 0.27 0.79 0.24 0.84 0.23 0.84 0.24 0.85 0.21 0.87 0.21 0.86 0.2 -2.14 9.76 -1.02 -0.22 -0.99 -0.25 -0.99 -0.25 -0.96 -0.26 -0.96 -0.27 -0.97 -0.3 -0.92 -0.29 -0.94 -0.31 -0.94 -0.33 -0.9 -0.33 -0.93 -0.36 -0.9 -0.37 -0.84 -0.36 -0.89 -0.39 -0.86 -0.41 -0.84 -0.4 -0.86 -0.44 -0.8 -0.42 -0.81 -0.44 -0.82 -0.48 -0.8 -0.48 -0.77 -0.48 -0.77 -0.5 -0.79 -0.53 -0.74 -0.53 -0.73 -0.53 -0.71 -0.55 -0.71 -0.55 -0.71 -0.59 -0.68 -0.58 -0.69 -0.61 -0.66 -0.61 0.01 0zm-10.99 -25.6l10 0 0 0 0.01 0.7 0.03 0.7 0.03 0.67 0.06 0.66 0.07 0.69 0.08 0.64 0.1 0.63 0.12 0.66 0.12 0.61 0.15 0.6 0.16 0.62 0.17 0.59 0.19 0.59 0.2 0.56 0.22 0.58 0.25 0.6 0.24 0.56 0.26 0.53 0.27 0.54 0.29 0.52 0.32 0.56 0.32 0.51 0.34 0.52 0.37 0.54 0.36 0.49 0.4 0.51 0.41 0.51 0.41 0.49 0.46 0.49 0.46 0.5 0.46 0.46 0.5 0.49 -6.84 7.28 -0.66 -0.63 -0.66 -0.66 -0.62 -0.66 -0.6 -0.67 -0.59 -0.69 -0.57 -0.69 -0.54 -0.71 -0.54 -0.73 -0.49 -0.72 -0.5 -0.74 -0.46 -0.77 -0.44 -0.74 -0.43 -0.78 -0.41 -0.8 -0.38 -0.81 -0.36 -0.82 -0.31 -0.78 -0.32 -0.8 -0.3 -0.86 -0.27 -0.85 -0.25 -0.85 -0.22 -0.84 -0.21 -0.88 -0.18 -0.89 -0.16 -0.86 -0.14 -0.89 -0.12 -0.92 -0.09 -0.87 -0.08 -0.92 -0.05 -0.93 -0.03 -0.9 -0.01 -0.94 0 0zm7.67 -26.05l8.3 5.6 0 -0.01 -0.37 0.57 -0.36 0.56 -0.34 0.56 -0.33 0.57 -0.32 0.58 -0.31 0.58 -0.3 0.59 -0.29 0.59 -0.26 0.58 -0.26 0.59 -0.25 0.63 -0.25 0.63 -0.21 0.58 -0.22 0.64 -0.22 0.65 -0.18 0.59 -0.18 0.66 -0.18 0.65 -0.15 0.62 -0.13 0.65 -0.14 0.67 -0.13 0.69 -0.11 0.67 -0.1 0.68 -0.09 0.7 -0.08 0.68 -0.06 0.69 -0.05 0.73 -0.05 0.7 -0.02 0.71 -0.02 0.74 -0.01 0.73 -10 0 0.01 -0.91 0.02 -0.88 0.04 -0.89 0.05 -0.9 0.07 -0.85 0.08 -0.89 0.1 -0.88 0.11 -0.84 0.12 -0.86 0.15 -0.87 0.15 -0.83 0.16 -0.83 0.19 -0.83 0.21 -0.88 0.22 -0.81 0.22 -0.8 0.26 -0.85 0.26 -0.79 0.26 -0.78 0.31 -0.84 0.31 -0.77 0.31 -0.77 0.34 -0.79 0.36 -0.78 0.37 -0.77 0.38 -0.75 0.39 -0.74 0.42 -0.76 0.43 -0.73 0.44 -0.74 0.46 -0.72 0.47 -0.71 0 -0.01zm22.42 -12.34l0 10 0 0 -0.57 0.01 -0.55 0.02 -0.55 0.04 -0.54 0.06 -0.51 0.06 -0.51 0.09 -0.54 0.11 -0.49 0.1 -0.45 0.12 -0.47 0.14 -0.46 0.16 -0.48 0.18 -0.44 0.18 -0.42 0.19 -0.46 0.23 -0.42 0.22 -0.41 0.23 -0.43 0.27 -0.4 0.27 -0.41 0.3 -0.44 0.33 -0.37 0.3 -0.39 0.34 -0.41 0.37 -0.39 0.39 -0.37 0.39 -0.4 0.44 -0.38 0.43 -0.37 0.46 -0.37 0.47 -0.36 0.51 -0.36 0.53 -8.3 -5.6 0.5 -0.71 0.52 -0.71 0.53 -0.69 0.55 -0.68 0.56 -0.65 0.56 -0.62 0.59 -0.61 0.61 -0.59 0.59 -0.55 0.63 -0.56 0.67 -0.54 0.64 -0.49 0.67 -0.48 0.68 -0.45 0.69 -0.43 0.73 -0.43 0.72 -0.38 0.72 -0.35 0.76 -0.35 0.76 -0.3 0.74 -0.28 0.78 -0.26 0.79 -0.24 0.83 -0.22 0.81 -0.18 0.78 -0.15 0.81 -0.13 0.83 -0.12 0.84 -0.08 0.83 -0.06 0.85 -0.04 0.85 -0.01 0 0zm7 9.4l-5.88 -8.08 1.75 8.9 0.07 0.01 -0.05 -0.01 -0.15 -0.03 -0.04 -0.01 -0.07 -0.01 -0.1 -0.02 -0.11 -0.02 0.13 0.02 -0.05 0 -0.12 -0.02 -0.11 -0.01 -0.09 -0.02 -0.12 -0.01 -0.12 -0.02 0.1 0.01 -0.11 0 -0.13 -0.01 -0.13 -0.01 -0.13 -0.01 -0.12 -0.01 0.05 0 -0.14 0 -0.32 -0.02 0.05 0 -0.15 0 -0.15 -0.01 0.02 0 -0.32 0 -0.14 -0.01 0 0 -0.16 0 -0.16 0 0 -10 0.16 0 0.16 0 0.32 0 0.16 0.01 -0.02 0 0.32 0 0.15 0.01 0.15 0 0.33 0.02 -0.04 0 0.14 0 0.33 0.02 0.14 0.01 0.13 0.01 0.13 0.01 0.13 0.01 0.15 0.02 0.34 0.03 0.12 0.02 0.12 0.01 0.15 0.02 0.11 0.01 0.12 0.02 0.17 0.02 0.33 0.06 0.11 0.02 0.1 0.02 0.15 0.03 0.14 0.03 0.05 0.01 0.15 0.03 0.25 0.05 1.75 8.9zm-1.75 -8.9c2.68,0.65 4.32,3.37 3.67,6.05 -0.65,2.68 -3.37,4.32 -6.05,3.67l2.38 -9.72zm-4.31 19.63l-10 0 0 0 0.01 -0.69 0.03 -0.68 0.05 -0.74 0.08 -0.67 0.09 -0.67 0.11 -0.67 0.13 -0.66 0.16 -0.67 0.17 -0.65 0.2 -0.69 0.22 -0.63 0.23 -0.63 0.28 -0.66 0.28 -0.62 0.29 -0.59 0.31 -0.59 0.34 -0.6 0.37 -0.61 0.38 -0.58 0.4 -0.56 0.41 -0.55 0.44 -0.56 0.45 -0.52 0.45 -0.52 0.48 -0.5 0.49 -0.5 0.52 -0.5 0.53 -0.48 0.56 -0.48 0.56 -0.45 0.56 -0.45 0.6 -0.44 5.88 8.08 -0.4 0.3 -0.4 0.31 -0.38 0.31 -0.34 0.3 -0.35 0.32 -0.32 0.3 -0.31 0.32 -0.3 0.32 -0.29 0.32 -0.27 0.32 -0.24 0.3 -0.25 0.33 -0.22 0.32 -0.2 0.3 -0.19 0.31 -0.18 0.32 -0.17 0.33 -0.17 0.35 -0.16 0.34 -0.12 0.3 -0.13 0.35 -0.12 0.35 -0.1 0.31 -0.09 0.35 -0.08 0.35 -0.07 0.38 -0.07 0.37 -0.05 0.39 -0.04 0.39 -0.03 0.34 -0.01 0.42 -0.01 0.41 0 0zm4.64 13.93l-8.2 5.72 0 0 -0.39 -0.58 -0.37 -0.56 -0.36 -0.55 -0.37 -0.6 -0.34 -0.58 -0.31 -0.56 -0.34 -0.61 -0.29 -0.58 -0.3 -0.58 -0.29 -0.62 -0.27 -0.6 -0.24 -0.57 -0.26 -0.6 -0.24 -0.63 -0.24 -0.66 -0.2 -0.61 -0.18 -0.56 -0.2 -0.67 -0.16 -0.61 -0.17 -0.62 -0.14 -0.63 -0.14 -0.62 -0.12 -0.67 -0.11 -0.63 -0.09 -0.63 -0.08 -0.64 -0.07 -0.64 -0.06 -0.63 -0.05 -0.64 -0.04 -0.69 -0.01 -0.64 -0.01 -0.64 10 0 0.01 0.46 0.01 0.46 0.02 0.41 0.03 0.46 0.04 0.45 0.05 0.46 0.06 0.44 0.07 0.45 0.07 0.45 0.08 0.39 0.1 0.46 0.1 0.43 0.11 0.44 0.12 0.45 0.12 0.39 0.16 0.48 0.14 0.45 0.14 0.38 0.16 0.41 0.18 0.44 0.2 0.47 0.19 0.42 0.19 0.4 0.22 0.44 0.23 0.44 0.22 0.41 0.27 0.46 0.24 0.42 0.25 0.4 0.28 0.45 0.29 0.44 0.29 0.42 0 0zm7.84 12.69l9.34 3.58 -6.25 2.95 -0.77 -0.26 -0.76 -0.28 -0.72 -0.27 -0.75 -0.3 -0.68 -0.28 -0.73 -0.31 -0.72 -0.34 -0.67 -0.32 -0.69 -0.34 -0.68 -0.36 -0.64 -0.35 -0.68 -0.38 -0.64 -0.4 -0.61 -0.38 -0.62 -0.41 -0.62 -0.42 -0.58 -0.41 -0.6 -0.44 -0.59 -0.47 -0.55 -0.45 -0.55 -0.47 -0.53 -0.47 -0.53 -0.48 -0.55 -0.53 -0.48 -0.5 -0.5 -0.52 -0.48 -0.54 -0.47 -0.55 -0.44 -0.54 -0.45 -0.56 -0.45 -0.61 -0.4 -0.56 8.2 -5.72 0.3 0.42 0.27 0.37 0.31 0.38 0.32 0.4 0.33 0.37 0.32 0.36 0.34 0.36 0.36 0.36 0.33 0.33 0.37 0.34 0.39 0.35 0.39 0.33 0.41 0.33 0.39 0.31 0.42 0.3 0.44 0.33 0.44 0.3 0.44 0.29 0.49 0.3 0.46 0.28 0.46 0.26 0.52 0.29 0.5 0.26 0.51 0.26 0.55 0.26 0.52 0.24 0.55 0.23 0.6 0.26 0.55 0.22 0.62 0.23 0.58 0.22 0.61 0.2 -6.25 2.95zm6.25 -2.95c2.61,0.87 4.03,3.71 3.16,6.32 -0.87,2.61 -3.71,4.03 -6.32,3.16l3.16 -9.48zm30.4 -64.69l-27.31 71.22 -9.34 -3.58 27.31 -71.22 8 -1.94 1.34 5.52zm-9.34 -3.58c0.98,-2.57 3.89,-3.86 6.46,-2.88 2.57,0.98 3.86,3.89 2.88,6.46l-9.34 -3.58zm-27.64 -41.57l10 0 0 0 0.02 0.96 0.07 1.01 0.11 0.99 0.16 1.01 0.2 1.06 0.24 1.04 0.3 1.08 0.35 1.1 0.39 1.1 0.45 1.14 0.5 1.16 0.54 1.17 0.6 1.17 0.67 1.22 0.7 1.22 0.76 1.24 0.82 1.27 0.86 1.27 0.92 1.28 0.99 1.32 1.03 1.33 1.08 1.33 1.15 1.36 1.19 1.37 1.24 1.37 1.32 1.4 1.35 1.41 1.42 1.42 1.48 1.45 1.51 1.44 1.58 1.46 1.64 1.48 -6.66 7.46 -1.72 -1.56 -1.68 -1.54 -1.63 -1.56 -1.56 -1.53 -1.52 -1.52 -1.47 -1.53 -1.4 -1.5 -1.38 -1.51 -1.31 -1.51 -1.25 -1.48 -1.22 -1.49 -1.15 -1.49 -1.09 -1.46 -1.06 -1.48 -1 -1.47 -0.94 -1.45 -0.9 -1.46 -0.84 -1.46 -0.77 -1.44 -0.74 -1.45 -0.68 -1.45 -0.62 -1.44 -0.57 -1.44 -0.51 -1.44 -0.45 -1.44 -0.4 -1.44 -0.34 -1.44 -0.28 -1.42 -0.22 -1.43 -0.15 -1.43 -0.09 -1.41 -0.04 -1.42 0 0zm18.44 -37.85l6.7 7.42 -0.01 0.01 -0.94 0.87 -0.94 0.9 -0.91 0.9 -0.85 0.88 -0.82 0.89 -0.8 0.91 -0.76 0.91 -0.74 0.91 -0.69 0.9 -0.66 0.91 -0.63 0.93 -0.61 0.93 -0.57 0.94 -0.54 0.93 -0.51 0.94 -0.48 0.92 -0.44 0.95 -0.43 0.96 -0.38 0.95 -0.37 0.97 -0.33 0.95 -0.29 0.96 -0.27 0.99 -0.25 0.99 -0.22 0.99 -0.18 0.98 -0.16 1.02 -0.13 1.01 -0.1 1.01 -0.07 1.04 -0.04 1.05 -0.02 1.03 -10 0 0.02 -1.33 0.06 -1.31 0.09 -1.3 0.12 -1.31 0.17 -1.31 0.2 -1.28 0.24 -1.28 0.28 -1.29 0.31 -1.25 0.35 -1.25 0.39 -1.26 0.43 -1.25 0.45 -1.21 0.5 -1.23 0.53 -1.18 0.56 -1.21 0.62 -1.2 0.63 -1.16 0.68 -1.17 0.71 -1.14 0.73 -1.13 0.77 -1.13 0.82 -1.13 0.85 -1.12 0.88 -1.09 0.9 -1.07 0.94 -1.07 0.98 -1.07 1.03 -1.06 1.03 -1.02 1.06 -1.02 1.12 -1.03 -0.01 0.01zm45.37 -14.34l9.32 3.62 -4.47 3.19 -1.79 0.07 -1.75 0.11 -1.71 0.13 -1.7 0.16 -1.67 0.19 -1.64 0.2 -1.62 0.24 -1.6 0.26 -1.54 0.28 -1.52 0.31 -1.52 0.34 -1.49 0.36 -1.44 0.38 -1.41 0.41 -1.4 0.44 -1.37 0.45 -1.33 0.48 -1.31 0.51 -1.3 0.54 -1.26 0.55 -1.23 0.58 -1.2 0.6 -1.19 0.64 -1.17 0.65 -1.12 0.67 -1.11 0.7 -1.08 0.72 -1.06 0.75 -1.04 0.78 -1.01 0.79 -0.98 0.82 -0.96 0.84 -6.7 -7.42 1.16 -1.02 1.2 -1 1.21 -0.95 1.24 -0.92 1.28 -0.91 1.3 -0.86 1.31 -0.84 1.36 -0.81 1.37 -0.77 1.39 -0.74 1.44 -0.72 1.45 -0.68 1.48 -0.65 1.5 -0.62 1.53 -0.59 1.55 -0.56 1.57 -0.53 1.6 -0.5 1.63 -0.47 1.66 -0.44 1.67 -0.4 1.68 -0.38 1.72 -0.35 1.76 -0.32 1.76 -0.28 1.78 -0.26 1.82 -0.24 1.83 -0.19 1.86 -0.18 1.89 -0.15 1.91 -0.11 1.93 -0.09 -4.47 3.19zm4.47 -3.19c2.76,-0.1 5.09,2.05 5.19,4.81 0.1,2.76 -2.05,5.09 -4.81,5.19l-0.38 -10zm18.88 -29.36l-14.03 36.17 -9.32 -3.62 14.03 -36.17 0.49 -0.95 8.83 4.57zm3.83 -7.91l0 10 0 0 -0.48 0 -0.41 0 -0.39 0.01 -0.43 0.01 -0.42 0.01 -0.41 0.01 -0.33 0.01 -0.3 0.01 -0.36 0.02 -0.34 0.02 -0.33 0.02 -0.24 0.01 -0.21 0.03 -0.28 0.02 -0.27 0.03 -0.15 0.02 -0.12 0.02 -0.29 0.05 -0.09 0 -0.08 0.02 -0.13 0.03 0.05 -0.01 -0.06 0.02 -0.07 0.02 -0.06 0.02 0.18 -0.08 0.24 -0.11 0.15 -0.08 0.38 -0.26 0.15 -0.12 0.33 -0.33 0.45 -0.56 -8.34 -5.52 0.55 -0.7 0.47 -0.45 0.31 -0.26 0.56 -0.38 0.37 -0.2 0.48 -0.23 0.46 -0.18 0.24 -0.08 0.25 -0.08 0.28 -0.08 0.43 -0.11 0.29 -0.05 0.36 -0.08 0.37 -0.06 0.19 -0.03 0.4 -0.06 0.39 -0.04 0.31 -0.03 0.32 -0.04 0.41 -0.03 0.42 -0.03 0.35 -0.02 0.36 -0.02 0.38 -0.02 0.46 -0.03 0.47 -0.01 0.41 -0.01 0.42 -0.01 0.45 -0.01 0.51 -0.01 0.51 0 0.48 0 0 0zm12.75 7.58l-10 0 0 0 0.01 0.32 0.06 0.35 0.08 0.35 0.13 0.35 0.12 0.25 0.17 0.27 0.31 0.4 0.09 0.12 0.18 0.15 0.2 0.16 0.05 0.03 0.08 0.05 0.09 0.05 0.01 0 -0.15 -0.06 0.05 0.01 -0.08 -0.01 -0.08 -0.03 -0.15 -0.03 -0.26 -0.06 -0.1 -0.02 -0.22 -0.03 -0.25 -0.04 -0.25 -0.03 -0.28 -0.03 -0.31 -0.02 -0.32 -0.03 -0.36 -0.02 -0.36 -0.01 -0.38 -0.01 -0.4 -0.01 -0.43 0 0 -10 0.53 0 0.52 0.01 0.5 0.01 0.5 0.03 0.48 0.02 0.48 0.03 0.47 0.04 0.46 0.05 0.45 0.05 0.43 0.06 0.44 0.07 0.52 0.1 0.32 0.08 0.43 0.09 0.44 0.13 0.42 0.13 0.51 0.19 0.29 0.12 0.43 0.18 0.47 0.25 0.42 0.25 0.37 0.25 0.5 0.38 0.42 0.39 0.33 0.36 0.51 0.66 0.33 0.55 0.26 0.53 0.23 0.63 0.16 0.65 0.1 0.65 0.03 0.64 0 0zm-10 0.37l0 -0.37 10 0 0 0.37 -0.33 1.8 -9.67 -1.8zm10 0c0,2.76 -2.24,5 -5,5 -2.76,0 -5,-2.24 -5,-5l10 0zm-23.33 33.63l13.66 -35.43 9.34 3.6 -13.66 35.43 -5.59 3.11 -3.75 -6.71zm9.34 3.6c-0.99,2.57 -3.9,3.86 -6.47,2.87 -2.57,-0.99 -3.86,-3.9 -2.87,-6.47l9.34 3.6zm23.91 9.91l-8.44 5.36 -0.07 -0.11 -0.34 -0.54 -0.37 -0.56 -0.36 -0.51 -0.37 -0.48 -0.42 -0.5 -0.43 -0.5 -0.46 -0.48 -0.46 -0.47 -0.47 -0.44 -0.52 -0.46 -0.52 -0.43 -0.54 -0.42 -0.58 -0.43 -0.59 -0.4 -0.6 -0.4 -0.64 -0.38 -0.64 -0.38 -0.67 -0.35 -0.72 -0.36 -0.73 -0.35 -0.75 -0.33 -0.77 -0.32 -0.8 -0.31 -0.81 -0.31 -0.83 -0.27 -0.88 -0.27 -0.91 -0.27 -0.9 -0.26 -0.96 -0.23 -0.96 -0.23 -0.96 -0.21 -1.03 -0.2 1.84 -9.82 1.17 0.22 1.18 0.25 1.14 0.27 1.12 0.29 1.12 0.3 1.05 0.31 1.06 0.33 1.07 0.37 1.03 0.37 1 0.39 0.99 0.42 0.97 0.43 0.95 0.45 0.9 0.46 0.93 0.49 0.9 0.52 0.86 0.52 0.86 0.56 0.81 0.56 0.8 0.59 0.78 0.6 0.78 0.65 0.72 0.64 0.73 0.68 0.68 0.69 0.66 0.7 0.63 0.72 0.62 0.74 0.61 0.8 0.58 0.81 0.51 0.78 0.52 0.82 -0.07 -0.11zm-46.05 3.35l-18.46 48.35 -9.34 -3.56 18.46 -48.35 4.67 -3.22 4.67 6.78zm-9.34 -3.56c0.98,-2.57 3.88,-3.87 6.45,-2.89 2.57,0.98 3.87,3.88 2.89,6.45l-9.34 -3.56zm1.71 -3.22l2.96 0 0 10 -2.96 0 0 0 0 -10zm-15.74 15.62l-6.52 -7.58 0 0 0.57 -0.48 0.6 -0.49 0.62 -0.46 0.58 -0.44 0.64 -0.45 0.61 -0.4 0.61 -0.39 0.66 -0.4 0.66 -0.37 0.62 -0.34 0.69 -0.36 0.68 -0.32 0.65 -0.3 0.71 -0.31 0.71 -0.27 0.66 -0.25 0.72 -0.25 0.73 -0.23 0.68 -0.21 0.75 -0.2 0.74 -0.18 0.71 -0.16 0.75 -0.15 0.77 -0.13 0.73 -0.12 0.76 -0.1 0.78 -0.09 0.74 -0.06 0.78 -0.06 0.8 -0.04 0.75 -0.02 0.8 -0.01 0 10 -0.58 0.01 -0.61 0.02 -0.56 0.02 -0.56 0.04 -0.58 0.06 -0.54 0.05 -0.54 0.08 -0.57 0.08 -0.51 0.09 -0.51 0.11 -0.55 0.12 -0.5 0.12 -0.49 0.14 -0.52 0.15 -0.49 0.15 -0.46 0.17 -0.52 0.19 -0.47 0.19 -0.45 0.19 -0.49 0.22 -0.46 0.22 -0.43 0.22 -0.48 0.26 -0.44 0.25 -0.42 0.26 -0.45 0.29 -0.45 0.3 -0.42 0.29 -0.44 0.32 -0.42 0.32 -0.4 0.33 -0.43 0.36 0 0zm-6.2 15.03l-10 0 0 0 0.01 -0.84 0.02 -0.85 0.05 -0.82 0.06 -0.83 0.08 -0.85 0.11 -0.8 0.11 -0.81 0.14 -0.79 0.16 -0.79 0.18 -0.78 0.19 -0.75 0.21 -0.77 0.24 -0.76 0.26 -0.76 0.27 -0.73 0.29 -0.7 0.3 -0.7 0.34 -0.73 0.36 -0.71 0.36 -0.66 0.4 -0.67 0.41 -0.67 0.45 -0.66 0.44 -0.61 0.45 -0.6 0.49 -0.62 0.52 -0.61 0.53 -0.58 0.52 -0.54 0.55 -0.55 0.59 -0.55 0.59 -0.52 6.52 7.58 -0.39 0.34 -0.35 0.33 -0.37 0.37 -0.36 0.38 -0.33 0.36 -0.3 0.35 -0.29 0.36 -0.31 0.42 -0.3 0.41 -0.25 0.38 -0.25 0.39 -0.24 0.43 -0.24 0.44 -0.22 0.41 -0.2 0.43 -0.2 0.46 -0.19 0.48 -0.19 0.49 -0.16 0.46 -0.14 0.48 -0.15 0.51 -0.13 0.53 -0.12 0.52 -0.1 0.55 -0.1 0.55 -0.09 0.57 -0.07 0.58 -0.06 0.55 -0.04 0.61 -0.03 0.62 -0.02 0.63 -0.01 0.64 0 0zm1.77 20.92l9.34 3.56 -8.09 1.87 -0.76 -0.73 -0.75 -0.74 -0.72 -0.75 -0.71 -0.75 -0.67 -0.74 -0.68 -0.77 -0.62 -0.77 -0.6 -0.73 -0.62 -0.81 -0.57 -0.8 -0.53 -0.77 -0.54 -0.82 -0.48 -0.79 -0.49 -0.8 -0.46 -0.84 -0.43 -0.83 -0.39 -0.82 -0.39 -0.82 -0.35 -0.86 -0.33 -0.83 -0.32 -0.89 -0.27 -0.86 -0.25 -0.85 -0.22 -0.86 -0.21 -0.87 -0.18 -0.9 -0.14 -0.89 -0.12 -0.88 -0.1 -0.87 -0.07 -0.92 -0.04 -0.91 -0.01 -0.88 10 0 0.01 0.62 0.02 0.57 0.05 0.58 0.06 0.61 0.08 0.6 0.1 0.57 0.12 0.58 0.13 0.59 0.16 0.6 0.17 0.59 0.19 0.58 0.2 0.57 0.23 0.59 0.25 0.58 0.27 0.6 0.29 0.6 0.31 0.59 0.32 0.58 0.35 0.6 0.38 0.61 0.38 0.58 0.43 0.61 0.43 0.6 0.44 0.57 0.5 0.63 0.5 0.61 0.52 0.59 0.55 0.62 0.57 0.61 0.6 0.61 0.61 0.6 0.64 0.61 -8.09 1.87zm8.09 -1.87c2.01,1.88 2.11,5.06 0.23,7.07 -1.88,2.01 -5.06,2.11 -7.07,0.23l6.84 -7.3zm0.2 41.26l6.28 4.43 -5.76 8.18 -6.28 -4.43 -1.78 -5.89 7.54 -2.29zm-5.76 8.18c-2.25,-1.59 -2.8,-4.72 -1.21,-6.97 1.59,-2.25 4.72,-2.8 6.97,-1.21l-5.76 8.18zm-25.77 56.11l23.99 -62 9.32 3.6 -23.99 62 -4.38 3.19 -4.94 -6.79zm9.32 3.6c-0.99,2.57 -3.89,3.85 -6.46,2.86 -2.57,-0.99 -3.85,-3.89 -2.86,-6.46l9.32 3.6zm23.88 -16.9l6.4 7.68 0 0 -0.86 0.71 -0.88 0.67 -0.87 0.64 -0.91 0.66 -0.94 0.62 -0.91 0.59 -0.96 0.58 -0.97 0.56 -0.99 0.54 -0.99 0.52 -1.01 0.49 -1 0.47 -1.06 0.47 -1.07 0.43 -1.05 0.42 -1.09 0.39 -1.08 0.37 -1.11 0.36 -1.13 0.34 -1.14 0.32 -1.15 0.3 -1.16 0.27 -1.16 0.25 -1.2 0.24 -1.19 0.22 -1.22 0.2 -1.24 0.18 -1.23 0.15 -1.24 0.14 -1.27 0.13 -1.29 0.1 -1.29 0.08 -0.56 -9.98 1.15 -0.08 1.11 -0.08 1.09 -0.11 1.1 -0.12 1.09 -0.15 1.06 -0.14 1.02 -0.18 1.05 -0.18 1 -0.2 1 -0.23 1 -0.23 0.95 -0.24 0.94 -0.26 0.93 -0.28 0.93 -0.3 0.9 -0.31 0.89 -0.33 0.89 -0.34 0.85 -0.35 0.82 -0.37 0.84 -0.39 0.83 -0.41 0.79 -0.4 0.79 -0.44 0.77 -0.44 0.74 -0.46 0.77 -0.49 0.72 -0.48 0.71 -0.5 0.73 -0.54 0.68 -0.53 0.68 -0.55 0 0zm10.38 -19.41l10 0 0 0 -0.01 0.97 -0.05 0.97 -0.07 0.93 -0.1 0.95 -0.13 0.95 -0.15 0.92 -0.18 0.93 -0.21 0.94 -0.25 0.93 -0.27 0.92 -0.29 0.88 -0.33 0.9 -0.35 0.89 -0.39 0.88 -0.41 0.88 -0.43 0.85 -0.45 0.83 -0.48 0.84 -0.53 0.86 -0.55 0.82 -0.56 0.81 -0.58 0.78 -0.61 0.79 -0.64 0.78 -0.66 0.78 -0.69 0.76 -0.71 0.75 -0.74 0.74 -0.75 0.73 -0.79 0.72 -0.79 0.7 -0.83 0.71 -6.4 -7.68 0.67 -0.57 0.65 -0.58 0.63 -0.58 0.59 -0.57 0.58 -0.58 0.55 -0.59 0.53 -0.58 0.5 -0.58 0.48 -0.58 0.45 -0.59 0.44 -0.6 0.42 -0.59 0.39 -0.6 0.35 -0.56 0.34 -0.6 0.33 -0.61 0.31 -0.61 0.29 -0.6 0.25 -0.6 0.25 -0.61 0.21 -0.6 0.21 -0.64 0.19 -0.6 0.15 -0.61 0.15 -0.62 0.12 -0.63 0.11 -0.66 0.09 -0.63 0.06 -0.65 0.05 -0.67 0.03 -0.65 0.01 -0.67 0 0zm-11.53 -18.97l5.76 -8.18 0.07 0.05 0.92 0.7 0.89 0.68 0.86 0.7 0.85 0.72 0.82 0.73 0.79 0.73 0.78 0.75 0.73 0.76 0.71 0.75 0.7 0.8 0.65 0.79 0.63 0.79 0.62 0.84 0.57 0.82 0.55 0.83 0.53 0.86 0.48 0.84 0.46 0.88 0.44 0.9 0.39 0.88 0.37 0.89 0.35 0.92 0.3 0.92 0.28 0.93 0.24 0.95 0.21 0.94 0.18 0.94 0.15 0.99 0.11 0.94 0.08 0.97 0.05 0.99 0.01 0.97 -10 0 -0.01 -0.67 -0.03 -0.61 -0.06 -0.65 -0.07 -0.64 -0.09 -0.61 -0.12 -0.62 -0.13 -0.62 -0.16 -0.59 -0.18 -0.61 -0.2 -0.6 -0.21 -0.58 -0.25 -0.61 -0.27 -0.6 -0.28 -0.58 -0.32 -0.58 -0.34 -0.6 -0.35 -0.58 -0.39 -0.59 -0.41 -0.6 -0.42 -0.56 -0.47 -0.59 -0.49 -0.59 -0.5 -0.56 -0.55 -0.59 -0.57 -0.58 -0.58 -0.57 -0.63 -0.59 -0.64 -0.57 -0.67 -0.56 -0.72 -0.58 -0.73 -0.58 -0.76 -0.56 0.07 0.05z"/>
    <path id="1" class="fil3" d="M10747.72 13506.4c1.72,2.71 2.58,6.21 2.58,10.52 0,4.3 -1.29,8.06 -3.87,11.25 -2.59,3.2 -6.34,4.8 -11.26,4.8l-2.22 0c0,-9.1 -5.53,-16.73 -16.6,-22.88l-20.67 54.25 7.01 4.8c20.92,14.51 31.37,30.01 31.37,46.5 0,16.48 -7.93,31.61 -23.8,45.39 -15.87,13.78 -35.37,20.67 -58.5,20.67l-1.47 0 -20.3 52.4c-0.24,0.74 -3.01,1.11 -8.3,1.11 -5.29,0 -7.94,-0.99 -7.94,-2.95l20.3 -52.41c-10.09,-2.21 -18.27,-6.27 -24.54,-12.18 -6.28,-5.9 -9.41,-13.22 -9.41,-21.96 0,-8.73 2.27,-16.48 6.82,-23.25 4.56,-6.76 10.65,-10.14 18.27,-10.14 1.73,0 3.08,0.12 4.06,0.36 -5.41,3.94 -8.12,8.86 -8.12,14.77 0,5.9 1.85,11.5 5.54,16.79 3.69,5.29 9.23,9.16 16.61,11.62l27.31 -71.22c-18.21,-16.24 -27.31,-30.69 -27.31,-43.36 0,-12.68 5.59,-24.06 16.79,-34.14 11.19,-10.09 26.75,-15.5 46.68,-16.24l14.03 -36.17c0.49,-0.74 3.32,-1.1 8.49,-1.1 5.16,0 7.75,0.86 7.75,2.58l0 0.37 -13.66 35.43c11.81,2.21 19.93,7.01 24.36,14.39zm-64.96 47.24l18.46 -48.35 -2.96 0c-7.38,0 -13.71,2.28 -19,6.83 -5.29,4.55 -7.94,10.83 -7.94,18.82 0,8 3.82,15.56 11.44,22.7zm7.02 46.13l-6.28 -4.43 -23.99 62c13.04,-0.74 23.62,-4.49 31.74,-11.26 8.12,-6.76 12.18,-14.51 12.18,-23.25 0,-8.73 -4.55,-16.42 -13.65,-23.06z"/>
   </g>
  </g>
 </g>
</svg>
